<?xml version="1.0" encoding="UTF-8"?>
<svg width="124px" height="45px" viewBox="0 0 124 45" version="1.1" xmlns="http://www.w3.org/2000/svg" xmlns:xlink="http://www.w3.org/1999/xlink">
    <!-- Generator: Sketch 55.2 (78181) - https://sketchapp.com -->
    <title>Group 36</title>
    <desc>Created with Sketch.</desc>
    <defs>
        <polygon id="path-1" points="0.1561 0.0878 9.69 0.0878 9.69 8.38813333 0.1561 8.38813333"></polygon>
    </defs>
    <g id="Design" stroke="none" stroke-width="1" fill="none" fill-rule="evenodd">
        <g id="About-me" transform="translate(-796.000000, -2353.000000)">
            <g id="Group-36" transform="translate(796.000000, 2353.000000)">
                <path d="M56.1409667,11.3184667 C56.1073,12.6854667 56.1073,14.0854667 56.1073,15.5021333 L56.1073,16.0854667 C56.1073,17.4854667 56.1073,18.8854667 56.1409667,20.2691333 L57.4909667,20.4191333 L57.4909667,21.2524667 L52.2906333,21.2524667 L52.2906333,20.4191333 L53.6406333,20.2691333 C53.6743,18.9021333 53.6743,17.5021333 53.6743,16.0854667 L53.6743,13.1518 L49.9403,21.2524667 L49.2736333,21.2524667 L45.5069667,13.1684667 L45.5069667,20.2021333 L47.0736333,20.4191333 L47.0736333,21.2524667 L43.0233,21.2524667 L43.0233,20.4191333 L44.5903,20.2021333 L44.5903,11.3184667 L43.2066333,11.1684667 L43.2066333,10.3351333 L46.5569667,10.3351333 L50.3239667,18.1688 L53.9906333,10.3351333 L57.4909667,10.3351333 L57.4909667,11.1684667 L56.1409667,11.3184667 Z" id="Fill-1" fill="#191A1E"></path>
                <path d="M59.2402333,10.2351333 C59.2402333,9.46813333 59.8732333,8.91846667 60.6232333,8.91846667 C61.3902333,8.91846667 62.0069,9.46813333 62.0069,10.2351333 C62.0069,11.0018 61.3902333,11.5684667 60.6232333,11.5684667 C59.8732333,11.5684667 59.2402333,11.0018 59.2402333,10.2351333 L59.2402333,10.2351333 Z M62.7569,20.5191333 L62.7569,21.2524667 L58.4899,21.2524667 L58.4899,20.5191333 L59.5069,20.3191333 C59.5235667,19.4854667 59.5235667,18.4688 59.5235667,17.7521333 L59.5235667,16.9188 C59.5235667,16.0021333 59.5069,15.4854667 59.4732333,14.8188 L58.3569,14.6688 L58.3569,14.0351333 L61.5902333,12.9518 L61.8402333,13.1184667 L61.7902333,15.5021333 L61.7902333,17.7521333 C61.7902333,18.4688 61.7902333,19.5024667 61.8069,20.3191333 L62.7569,20.5191333 Z" id="Fill-3" fill="#191A1E"></path>
                <path d="M73.0407,20.5189667 L73.0407,21.2523 L68.7737,21.2523 L68.7737,20.5189667 L69.7903667,20.3189667 C69.8070333,19.5023 69.8070333,18.4853 69.8070333,17.7519667 L69.8070333,16.1519667 C69.8070333,14.8853 69.5903667,14.3183 68.8237,14.3183 C68.1903667,14.3183 67.5900333,14.6853 66.9400333,15.3019667 L66.9400333,17.7519667 C66.9400333,18.4689667 66.9400333,19.5023 66.9567,20.3189667 L67.9070333,20.5189667 L67.9070333,21.2523 L63.6400333,21.2523 L63.6400333,20.5189667 L64.6567,20.3189667 C64.6733667,19.4853 64.6733667,18.4689667 64.6733667,17.7519667 L64.6733667,16.8023 C64.6733667,15.8856333 64.6567,15.4853 64.6233667,14.8186333 L63.5063667,14.6686333 L63.5063667,14.0353 L66.5233667,12.9519667 L66.7733667,13.1186333 L66.8903667,14.4353 C67.8237,13.3853 68.4737,12.9519667 69.6070333,12.9519667 C71.1903667,12.9519667 72.0740333,13.8853 72.0740333,15.8856333 L72.0740333,17.7519667 C72.0740333,18.4853 72.0740333,19.5189667 72.0903667,20.3189667 L73.0407,20.5189667 Z" id="Fill-5" fill="#191A1E"></path>
                <path d="M78.4231667,16.5020667 C79.2231667,16.5020667 79.4731667,16.1687333 79.4731667,15.4687333 C79.4731667,14.4187333 78.9731667,13.7854 78.2731667,13.7854 C77.5398333,13.7854 76.5898333,14.4520667 76.4231667,16.5020667 L78.4231667,16.5020667 Z M76.4065,17.3354 C76.4728333,19.3020667 77.4731667,20.2024 78.8231667,20.2024 C79.7901667,20.2024 80.3898333,19.7524 80.8898333,18.9524 L81.4568333,19.2690667 C81.0068333,20.7357333 79.7068333,21.5024 78.0231667,21.5024 C75.6065,21.5024 73.9895,19.9524 73.9895,17.2520667 C73.9895,14.7354 75.7898333,12.9520667 78.1565,12.9520667 C80.2901667,12.9520667 81.6235,14.4020667 81.6235,16.4687333 C81.6235,16.7687333 81.5901667,17.0687333 81.5235,17.3354 L76.4065,17.3354 Z" id="Fill-7" fill="#191A1E"></path>
                <path d="M86.1230333,14.7520667 C86.7397,13.6350667 87.6063667,12.9520667 88.3730333,12.9520667 C88.8397,12.9520667 89.4397,13.1854 89.6063667,13.9850667 C89.6063667,14.7184 89.1400333,15.2184 88.4397,15.2184 C87.9900333,15.2184 87.5897,15.0020667 87.1567,14.5354 L87.1230333,14.5020667 C86.7230333,14.8687333 86.3730333,15.3520667 86.1230333,15.9687333 L86.1230333,17.7520667 C86.1230333,18.4524 86.1230333,19.4524 86.1397,20.2690667 L87.4067,20.5190667 L87.4067,21.2524 L82.8230333,21.2524 L82.8230333,20.5190667 L83.8393667,20.3190667 C83.8560333,19.5024 83.8560333,18.4687333 83.8560333,17.7520667 L83.8560333,16.7857333 C83.8560333,15.8687333 83.8393667,15.4854 83.8063667,14.8187333 L82.6893667,14.6687333 L82.6893667,14.0354 L85.7063667,12.9520667 L85.9563667,13.1187333 L86.1230333,14.7520667 Z" id="Fill-9" fill="#191A1E"></path>
                <polygon id="Fill-11" fill="#191A1E" points="98.8899667 13.9851333 97.8399667 14.1688 94.8729667 21.4191333 93.9229667 21.4191333 90.9559667 14.1688 90.0559667 13.9851333 90.0559667 13.2521333 94.6059667 13.2521333 94.6059667 13.9851333 93.4229667 14.2184667 95.0896333 18.8188 96.8563 14.1688 95.8229667 13.9851333 95.8229667 13.2521333 98.8899667 13.2521333"></polygon>
                <path d="M104.005867,16.9522333 C103.5892,17.0689 103.2062,17.2022333 102.9392,17.3022333 C101.972533,17.6855667 101.6392,18.2855667 101.6392,18.9855667 C101.6392,19.4189 101.772533,19.6689 101.955867,19.8522333 C102.205867,20.1022333 102.522533,20.2022333 102.8892,20.2022333 C103.2392,20.2022333 103.539533,20.1022333 104.005867,19.7689 L104.005867,16.9522333 Z M107.7062,20.2022333 C107.272867,21.1189 106.739533,21.4189 105.8892,21.4189 C104.9892,21.4189 104.372867,21.0355667 104.122867,20.4522333 C103.372867,21.1359 102.772533,21.5022333 101.722533,21.5022333 C100.405867,21.5022333 99.4722,20.8025667 99.4722,19.5022333 C99.4722,18.4689 100.022533,17.5019 102.555867,16.6685667 C102.9392,16.5355667 103.472533,16.3855667 104.005867,16.2355667 L104.005867,15.7355667 C104.005867,14.3352333 103.6392,13.7852333 102.572533,13.7852333 C102.405867,13.7852333 102.2392,13.8019 102.055867,13.8185667 L101.922533,14.7852333 C101.805867,15.6522333 101.355867,16.0689 100.772533,16.0689 C100.255867,16.0689 99.8558667,15.7355667 99.7558667,15.2185667 C99.9055333,13.9185667 101.2222,12.9519 103.3392,12.9519 C105.422867,12.9519 106.272867,13.8185667 106.272867,16.3022333 L106.272867,19.7359 C106.272867,20.0855667 106.4062,20.3355667 106.689533,20.3355667 C106.9062,20.3355667 107.022867,20.1855667 107.189533,19.9859 L107.272867,19.8855667 L107.7062,20.2022333 Z" id="Fill-13" fill="#191A1E"></path>
                <path d="M49.1904333,33.6021667 L47.8571,29.8855 L46.4737667,33.6021667 L49.1904333,33.6021667 Z M53.9241,37.1025 L53.9241,37.9191667 L49.0237667,37.9191667 L49.0237667,37.1025 L50.3907667,36.9358333 L49.5237667,34.5191667 L46.1404333,34.5191667 L45.2567667,36.8858333 L46.6067667,37.0858333 L46.6067667,37.9191667 L42.8567667,37.9191667 L42.8567667,37.0858333 L44.3401,36.8691667 L48.0404333,27.0018333 L49.0404333,27.0018333 L52.8237667,36.9691667 L53.9241,37.1025 Z" id="Fill-15" fill="#191A1E"></path>
                <path d="M59.9069,31.4521 C59.4405667,31.1187667 58.9902333,30.9021 58.5239,30.9021 C57.5569,30.9021 56.6569,31.8521 56.6569,33.8857667 C56.6569,35.8857667 57.4235667,36.8691 58.4235667,36.8691 C58.9069,36.8691 59.4239,36.6357667 59.9069,36.3024333 L59.9069,31.4521 Z M63.1405667,37.1857667 L63.1405667,37.9191 L60.1072333,38.0857667 L59.9735667,37.1024333 C59.3069,37.7857667 58.5569,38.1691 57.5402333,38.1691 C55.6569,38.1691 54.2399,36.7361 54.2399,33.9354333 C54.2399,31.2521 55.8065667,29.6187667 57.7902333,29.6187667 C58.7069,29.6187667 59.4069,29.9354333 59.9902333,30.5187667 L59.9902333,27.5017667 L58.6569,27.3351 L58.6569,26.6684333 L62.0072333,25.9184333 L62.2405667,26.0517667 L62.1739,28.4184333 L62.1739,36.9861 L63.1405667,37.1857667 Z" id="Fill-17" fill="#191A1E"></path>
                <polygon id="Fill-19" fill="#191A1E" points="72.1074333 30.6519667 71.0574333 30.8356333 68.0904333 38.0859667 67.1404333 38.0859667 64.1734333 30.8356333 63.2734333 30.6519667 63.2734333 29.9189667 67.8234333 29.9189667 67.8234333 30.6519667 66.6404333 30.8853 68.3071 35.4856333 70.0737667 30.8356333 69.0404333 30.6519667 69.0404333 29.9189667 72.1074333 29.9189667"></polygon>
                <path d="M74.7399,33.9022667 C74.7399,36.2356 75.3399,37.3359333 76.4899,37.3359333 C77.6569,37.3359333 78.2402333,36.2356 78.2402333,33.9022667 C78.2402333,31.6022667 77.6569,30.4519333 76.4899,30.4519333 C75.3399,30.4519333 74.7399,31.6022667 74.7399,33.9022667 M80.7069,33.9189333 C80.7069,36.5692667 78.9069,38.1692667 76.4899,38.1692667 C74.0899,38.1692667 72.2732333,36.5692667 72.2732333,33.9189333 C72.2732333,31.2689333 74.2565667,29.6186 76.4899,29.6186 C78.7065667,29.6186 80.7069,31.2689333 80.7069,33.9189333" id="Fill-21" fill="#191A1E"></path>
                <path d="M89.3567667,35.9358 C88.9567667,37.3691333 87.6401,38.1691333 85.9734333,38.1691333 C83.5397667,38.1691333 81.9564333,36.6191333 81.9564333,33.9188 C81.9564333,31.2354667 83.9064333,29.6188 86.2397667,29.6188 C88.0401,29.6188 89.3567667,30.6354667 89.3734333,31.9688 C89.2567667,32.5021333 88.9067667,32.7688 88.3904333,32.7688 C87.7734333,32.7688 87.2734333,32.3858 87.2234333,31.4021333 L87.1734333,30.5188 C87.0067667,30.4688 86.8231,30.4521333 86.6564333,30.4521333 C85.4231,30.4521333 84.3734333,31.5688 84.3734333,33.6688 C84.3734333,35.8358 85.3901,36.8691333 86.7901,36.8691333 C87.6734333,36.8691333 88.2734333,36.4691333 88.7901,35.6191333 L89.3567667,35.9358 Z" id="Fill-23" fill="#191A1E"></path>
                <path d="M94.9899,33.6190667 C94.5732333,33.7357333 94.1902333,33.8690667 93.9232333,33.9690667 C92.9565667,34.3524 92.6232333,34.9524 92.6232333,35.6524 C92.6232333,36.0857333 92.7565667,36.3357333 92.9399,36.5190667 C93.1899,36.7690667 93.5065667,36.8690667 93.8732333,36.8690667 C94.2232333,36.8690667 94.5235667,36.7690667 94.9899,36.4357333 L94.9899,33.6190667 Z M98.6902333,36.8690667 C98.2569,37.7857333 97.7235667,38.0857333 96.8732333,38.0857333 C95.9732333,38.0857333 95.3569,37.7024 95.1069,37.1190667 C94.3569,37.8027333 93.7565667,38.1690667 92.7065667,38.1690667 C91.3899,38.1690667 90.4562333,37.4694 90.4562333,36.1690667 C90.4562333,35.1357333 91.0065667,34.1687333 93.5399,33.3354 C93.9232333,33.2024 94.4565667,33.0524 94.9899,32.9024 L94.9899,32.4024 C94.9899,31.0020667 94.6232333,30.4520667 93.5565667,30.4520667 C93.3899,30.4520667 93.2232333,30.4687333 93.0399,30.4854 L92.9065667,31.4520667 C92.7899,32.3190667 92.3399,32.7357333 91.7565667,32.7357333 C91.2399,32.7357333 90.8399,32.4024 90.7399,31.8854 C90.8895667,30.5854 92.2062333,29.6187333 94.3232333,29.6187333 C96.4069,29.6187333 97.2569,30.4854 97.2569,32.9690667 L97.2569,36.4027333 C97.2569,36.7524 97.3902333,37.0024 97.6735667,37.0024 C97.8902333,37.0024 98.0069,36.8524 98.1735667,36.6527333 L98.2569,36.5524 L98.6902333,36.8690667 Z" id="Fill-25" fill="#191A1E"></path>
                <path d="M104.556967,36.9026 C104.139967,37.5526 103.3233,38.0859333 102.139967,38.0859333 C100.789967,38.0859333 99.9396333,37.4359333 99.9396333,36.0356 C99.9396333,35.3526 99.9563,34.9359333 99.9563,34.2856 L99.9563,30.9852667 L98.8399667,30.9852667 L98.8399667,30.0686 L100.156633,29.9019333 L100.6233,27.5852667 L102.2233,27.5852667 L102.2233,29.9189333 L104.1233,29.9189333 L104.1233,30.9852667 L102.2233,30.9852667 L102.2233,35.5689333 C102.2233,36.3856 102.5733,36.7359333 103.0903,36.7359333 C103.306633,36.7359333 103.673633,36.6692667 104.073633,36.3359333 L104.556967,36.9026 Z" id="Fill-27" fill="#191A1E"></path>
                <path d="M109.556633,33.1689 C110.356633,33.1689 110.606633,32.8355667 110.606633,32.1355667 C110.606633,31.0855667 110.106633,30.4522333 109.406633,30.4522333 C108.6733,30.4522333 107.7233,31.1189 107.556633,33.1689 L109.556633,33.1689 Z M107.539967,34.0022333 C107.6063,35.9689 108.606633,36.8692333 109.956633,36.8692333 C110.923633,36.8692333 111.5233,36.4192333 112.0233,35.6192333 L112.5903,35.9359 C112.1403,37.4025667 110.8403,38.1692333 109.156633,38.1692333 C106.739967,38.1692333 105.122967,36.6192333 105.122967,33.9189 C105.122967,31.4022333 106.9233,29.6189 109.289967,29.6189 C111.423633,29.6189 112.756967,31.0689 112.756967,33.1355667 C112.756967,33.4355667 112.723633,33.7355667 112.656967,34.0022333 L107.539967,34.0022333 Z" id="Fill-29" fill="#191A1E"></path>
                <g id="Group-33" transform="translate(113.666667, 29.531000)">
                    <mask id="mask-2" fill="white">
                        <use xlink:href="#path-1"></use>
                    </mask>
                    <g id="Clip-32"></g>
                    <path d="M9.6901,7.6548 L9.6901,8.38813333 L5.4231,8.38813333 L5.4231,7.6548 L6.4401,7.4548 C6.45676667,6.63813333 6.45676667,5.62113333 6.45676667,4.8878 L6.45676667,3.2878 C6.45676667,2.02113333 6.23976667,1.45413333 5.47343333,1.45413333 C4.83976667,1.45413333 4.23976667,1.82113333 3.58976667,2.4378 L3.58976667,4.8878 C3.58976667,5.6048 3.58976667,6.63813333 3.60643333,7.4548 L4.55676667,7.6548 L4.55676667,8.38813333 L0.289766667,8.38813333 L0.289766667,7.6548 L1.30643333,7.4548 C1.32276667,6.62113333 1.32276667,5.6048 1.32276667,4.8878 L1.32276667,3.93813333 C1.32276667,3.02146667 1.30643333,2.62113333 1.2731,1.95446667 L0.1561,1.80446667 L0.1561,1.17113333 L3.1731,0.0878 L3.4231,0.254466667 L3.53976667,1.57113333 C4.47343333,0.521133333 5.12343333,0.0878 6.25643333,0.0878 C7.8401,0.0878 8.72376667,1.02113333 8.72376667,3.02146667 L8.72376667,4.8878 C8.72376667,5.62113333 8.72376667,6.6548 8.7401,7.4548 L9.6901,7.6548 Z" id="Fill-31" fill="#191A1E" mask="url(#mask-2)"></path>
                </g>
                <path d="M21.6432333,18.8376667 C20.7685667,19.5403333 19.9602333,20.2323333 19.1359,20.9846667 C19.1165667,20.974 19.0972333,20.966 19.0782333,20.9556667 C19.0159,20.922 18.9525667,20.8906667 18.8885667,20.8606667 C18.8715667,20.853 18.8545667,20.8446667 18.8375667,20.837 C18.6582333,20.7563333 18.4735667,20.6893333 18.2829,20.6426667 C18.1859,20.6186667 18.0892333,20.601 17.9925667,20.587 C18.1265667,20.423 18.2599,20.2553333 18.3922333,20.0836667 C22.7815667,14.3823333 28.0155667,11.479 29.6329,10.672 C30.3229,11.448 31.9385667,13.4056667 33.5242333,15.996 C30.8935667,15.499 26.0629,15.286 21.6432333,18.8376667 L21.6432333,18.8376667 Z M30.5745667,25.1536667 C29.9415667,25.5166667 29.6585667,26.2753333 29.8972333,26.9633333 L30.1919,27.8896667 L29.2522333,28.9086667 L29.9505667,29.8513333 L29.2212333,30.9233333 L29.2152333,31.163 C29.2052333,31.5813333 29.0385667,32.5616667 28.5892333,32.9216667 C28.4832333,33.007 28.2969,33.1113333 27.9135667,33.036 C26.3085667,32.7196667 25.2769,32.4653333 25.0759,32.415 C23.7529,31.9463333 22.8029,31.121 22.7935667,31.113 L21.7159,32.3316667 C21.7532333,32.3646667 22.4415667,32.9666667 23.5052333,33.5056667 C23.1502333,34.049 22.8352333,34.7913333 22.9409,35.6346667 C23.0895667,36.8243333 24.0012333,37.8303333 25.6502333,38.6243333 C27.7665667,39.6433333 28.5892333,40.934 28.8975667,41.9103333 C26.7745667,40.6613333 22.5932333,38.8156667 18.0702333,40.1966667 C14.9789,41.1403333 12.6999,41.1293333 11.4795667,40.1656667 C10.8232333,39.647 10.5792333,38.936 10.4902333,38.4273333 C11.8122333,38.1936667 14.4509,37.5213333 15.6775667,35.767 C16.2235667,34.985 16.4345667,34.097 16.3095667,33.1203333 C16.5599,32.9643333 16.8025667,32.7893333 17.0299,32.5883333 C17.9775667,31.7506667 18.5382333,30.6393333 18.7049,29.2796667 C19.3435667,29.1143333 19.9225667,28.613 20.4322333,27.7816667 L19.0452333,26.9316667 C18.7359,27.4356667 18.4235667,27.7303333 18.1985667,27.7133333 C17.7365667,27.6833333 17.0525667,26.704 16.7569,26.04 L16.7059,25.9426667 C16.7009,25.9346667 16.5332333,25.655 16.3685667,25.2493333 L16.3309,25.1503333 C16.2739,25.0003333 16.2252333,24.8556667 16.1852333,24.716 L16.1852333,24.7156667 C16.1702333,24.6623333 16.1572333,24.6106667 16.1445667,24.5586667 C15.9785667,23.8656667 15.9822333,23.07 16.6109,22.567 C16.8709,22.359 17.1285667,22.2373333 17.3899,22.198 C17.4039,22.1956667 17.4179,22.194 17.4322333,22.1923333 C17.4615667,22.189 17.4912333,22.1873333 17.5209,22.186 C17.5492333,22.185 17.5775667,22.1843333 17.6069,22.185 C17.6232333,22.1853333 17.6395667,22.1866667 17.6562333,22.1876667 C17.6939,22.1903333 17.7322333,22.1936667 17.7719,22.1996667 C17.7839,22.2016667 17.7959,22.2043333 17.8079,22.2063333 C17.8505667,22.214 17.8942333,22.2233333 17.9389,22.2353333 C17.9489,22.2383333 17.9582333,22.241 17.9679,22.244 C18.0122333,22.2573333 18.0575667,22.273 18.1039,22.291 C18.1162333,22.296 18.1285667,22.3006667 18.1409,22.3056667 C18.3169,22.3793333 18.5055667,22.4903333 18.7059,22.6513333 L18.7769,22.7086667 C19.1709,23.0443333 19.4952333,23.4876667 19.6679,23.8813333 L21.1579,23.2283333 C20.9895667,22.844 20.7279,22.427 20.3952333,22.039 C21.1382333,21.3666667 21.8722333,20.7403333 22.6622333,20.106 C25.0469,18.1893333 27.6079,17.5253333 29.7682333,17.3963333 C29.9149,17.779 30.4332333,19.3773333 29.8469,21.5383333 L29.8032333,21.6996667 L29.8265667,21.8653333 C29.8449,21.9953333 30.0322333,23.046 31.4355667,24.6596667 L30.5745667,25.1536667 Z M11.5845667,28.2566667 C13.0355667,27.8946667 14.1849,27.4033333 15.2552333,26.684 C15.2689,26.708 15.2815667,26.7296667 15.2912333,26.7463333 C15.3635667,26.902 15.6025667,27.3923333 15.9619,27.8913333 C16.3225667,28.3926667 16.7025667,28.765 17.0979,29.0066667 C16.9909,30.0036667 16.6169,30.78 15.9565667,31.3656667 C14.8189,32.3746667 13.0939,32.5876667 12.0312333,32.6143333 C12.1849,31.656 12.2292333,30.1286667 11.5845667,28.2566667 L11.5845667,28.2566667 Z M7.71923333,30.226 C6.9259,30.981 5.87423333,31.3193333 4.99456667,31.4666667 C5.77156667,30.2413333 6.57523333,28.296 6.31723333,25.6923333 L4.69823333,25.8526667 C4.74656667,26.3413333 4.74956667,26.8 4.7189,27.2303333 C3.5349,26.835 2.73423333,26.0143333 2.58956667,25.0113333 C2.40723333,23.7476667 3.26623333,22.4586667 4.88756667,21.5633333 L4.10123333,20.139 C3.6099,20.4103333 3.17356667,20.7156667 2.78923333,21.0453333 C1.9259,20.3703333 1.5229,19.4806667 1.65056667,18.504 C1.83223333,17.118 3.0449,15.877 4.73956667,15.3413333 L4.24923333,13.79 C3.72856667,13.9546667 3.2429,14.1753333 2.79656667,14.438 C2.6419,13.744 2.69956667,12.8826667 3.09923333,12.1186667 C3.56956667,11.2193333 4.6609,10.1776667 7.18123333,10.3206667 L7.27323333,8.69633333 C6.64256667,8.661 6.07823333,8.68833333 5.57123333,8.76233333 C5.8049,8.04466667 6.36723333,7.23266667 7.17023333,6.713 C8.0349,6.15366667 9.4589,5.73466667 11.3319,6.91766667 L12.2005667,5.54166667 C11.6355667,5.185 11.0962333,4.94033333 10.5862333,4.78 C11.5455667,3.65833333 12.8285667,2.931 14.0275667,2.889 C15.2355667,2.84766667 16.3125667,3.48833333 17.1475667,4.745 L18.5025667,3.84466667 C18.0549,3.171 17.5362333,2.62166667 16.9659,2.20433333 C17.9189,1.654 19.0375667,1.476 20.0439,1.75633333 C21.2072333,2.08033333 22.0042333,2.939 22.2882333,4.17366667 L23.8735667,3.80933333 C23.7602333,3.316 23.5845667,2.86066667 23.3565667,2.44766667 C24.5849,1.99833333 25.9869,2.428 26.7632333,3.307 C27.7519,4.42633333 27.5049,5.901 26.1185667,7.294 C24.9045667,6.60633333 23.6159,6.159 22.2599,5.962 C19.5569,5.56866667 16.5709,6.164 13.3849,7.73033333 C9.9429,9.42233333 7.4669,12.543 6.59123333,16.2916667 C5.79656667,19.6936667 6.40923333,23.1403333 8.2299,25.511 C8.51556667,25.883 8.76523333,26.246 8.98656667,26.6 C9.0139,28.178 8.5889,29.3976667 7.71923333,30.226 L7.71923333,30.226 Z M17.1029,19.0913333 C14.3552333,22.6603333 11.0195667,24.3833333 9.8179,24.9216667 C9.7219,24.7886667 9.62356667,24.655 9.52023333,24.52 C7.99323333,22.532 7.49056667,19.594 8.17556667,16.6616667 C8.93956667,13.3896667 11.1002333,10.6666667 14.1025667,9.19033333 C16.9882333,7.77133333 19.6539,7.22633333 22.0255667,7.572 C23.9179,7.847 25.6709,8.70033333 27.2519,10.1086667 C24.7895667,11.552 20.7119,14.404 17.1029,19.0913333 L17.1029,19.0913333 Z M14.5552333,24.9026667 C14.5719,24.974 14.5902333,25.0436667 14.6089,25.113 C14.6122333,25.1246667 14.6145667,25.1356667 14.6179,25.1473333 C13.7155667,25.805 12.6582333,26.3376667 10.9515667,26.737 L10.7369,26.2943333 C11.5612333,25.9103333 12.9135667,25.192 14.4272333,24.033 C14.4419,24.31 14.4845667,24.5983333 14.5539,24.896 C14.5545667,24.8983333 14.5549,24.9003333 14.5552333,24.9026667 L14.5552333,24.9026667 Z M36.9682333,18.8253333 L35.9192333,16.8913333 C33.5992333,12.6136667 30.6289,9.25333333 30.2635667,9.00966667 L29.8975667,8.76566667 L29.4925667,8.93866667 C29.4419,8.96033333 29.1815667,9.07366667 28.7575667,9.28666667 C28.3495667,8.893 27.9299,8.533 27.4995667,8.206 C29.6589,5.86233333 29.1525667,3.55466667 27.9825667,2.23 C27.2235667,1.37066667 26.1119,0.8 24.9329,0.663666667 C24.0015667,0.556 23.0919,0.724 22.2889,1.13866667 C21.7775667,0.705666667 21.1692333,0.381 20.4805667,0.189 C18.7282333,-0.299333333 16.7542333,0.178 15.2872333,1.40166667 C14.8625667,1.29433333 14.4219,1.24666667 13.9702333,1.263 C12.0129,1.332 10.0069,2.60133333 8.73556667,4.53766667 C7.66656667,4.59733333 6.82556667,4.99833333 6.28656667,5.347 C4.87856667,6.258 3.90056667,7.86333333 3.82823333,9.28033333 C2.63523333,9.85666667 1.98923333,10.731 1.65756667,11.365 C0.979566667,12.6616667 0.9169,14.2666667 1.43156667,15.51 C0.671233333,16.3033333 0.172233333,17.2656667 0.0379,18.2923333 C-0.162433333,19.8183333 0.4399,21.2333333 1.70156667,22.2593333 C1.09123333,23.1776667 0.829233333,24.203 0.979233333,25.2436667 C1.22423333,26.9403333 2.52923333,28.29 4.42423333,28.843 C3.86456667,30.6986667 2.74723333,31.6963333 2.68156667,31.7536667 L1.2239,33.0003333 L3.13356667,33.1816667 C3.16656667,33.1846667 3.3749,33.203 3.70256667,33.203 C4.7809,33.203 7.1519,33.0043333 8.83156667,31.413 C9.4509,30.8263333 9.9089,30.1173333 10.2062333,29.2936667 C10.8372333,31.537 10.2815667,32.9983333 10.2472333,33.084 L9.8279,34.0866667 L10.9082333,34.206 C10.9529,34.211 11.2852333,34.2456667 11.7909,34.2456667 C12.5182333,34.2456667 13.6039,34.172 14.7049,33.837 C14.6735667,34.1993333 14.5562333,34.5303333 14.3452333,34.833 C13.3465667,36.2653333 10.5492333,36.8243333 9.55656667,36.9193333 L8.8729,36.983 L8.8209,37.6676667 C8.8139,37.762 8.6659,39.997 10.4492333,41.425 C12.1285667,42.7693333 14.8522333,42.8796667 18.5452333,41.7526667 C24.0749,40.0646667 29.2875667,44.1143333 29.3385667,44.1546667 L30.2899,44.8643333 L30.4299,44.393 C30.7555667,43.2966667 30.7372333,42.118 30.3242333,41.0516667 C29.8359,39.79 28.7405667,38.307 26.3562333,37.1586667 C25.5889,36.7893333 24.6539,36.1906667 24.5559,35.438 C24.4902333,34.9353333 24.8119,34.4193333 25.0889,34.0923333 C25.5762333,34.208 26.4369,34.403 27.5989,34.632 C28.5669,34.8233333 29.2249,34.4973333 29.6072333,34.191 C30.5535667,33.4323333 30.7749,32.0426667 30.8262333,31.4563333 L31.9455667,29.8106667 L31.3609,29.0216667 L32.0289,28.2976667 L31.4632333,26.5193333 L34.0659,25.027 L33.3055667,24.2746667 C31.9929,22.977 31.5862333,22.0713333 31.4732333,21.7473333 C31.9492333,19.8216667 31.7125667,18.2733333 31.4759,17.398 C33.5019,17.5206667 34.8839,18.0276667 34.9132333,18.039 L36.9682333,18.8253333 Z" id="Fill-34" fill="#191A1E"></path>
            </g>
        </g>
    </g>
</svg>