<?xml version="1.0" encoding="UTF-8"?>
<svg width="106px" height="50px" viewBox="0 0 106 50" version="1.1" xmlns="http://www.w3.org/2000/svg" xmlns:xlink="http://www.w3.org/1999/xlink">
    <!-- Generator: Sketch 55.2 (78181) - https://sketchapp.com -->
    <title>Group 25</title>
    <desc>Created with Sketch.</desc>
    <defs>
        <polygon id="path-1" points="0.0340884718 0.089155496 90.6793276 0.089155496 90.6793276 26.6756032 0.0340884718 26.6756032"></polygon>
        <polygon id="path-3" points="0 0.0975871314 87.7011528 0.0975871314 87.7011528 32.8403753 0 32.8403753"></polygon>
    </defs>
    <g id="Design" stroke="none" stroke-width="1" fill="none" fill-rule="evenodd">
        <g id="About-me" transform="translate(-1080.000000, -2547.000000)">
            <g id="Group-25" transform="translate(1080.000000, 2547.000000)">
                <g id="Group-3" transform="translate(14.611260, 23.226810)">
                    <mask id="mask-2" fill="white">
                        <use xlink:href="#path-1"></use>
                    </mask>
                    <g id="Clip-2"></g>
                    <path d="M89.8663941,2.33969169 C84.6261796,14.376689 58.4860992,23.8445174 30.366126,23.9363405 L29.5839544,23.9458579 C17.9564745,23.8797721 7.61317694,22.101622 0.0340884718,19.0870107 C9.65312332,23.7709249 23.1559383,26.707252 38.1036595,26.6756059 C67.1539276,26.6093968 90.724437,15.3967962 90.6793276,1.64558981 C90.6562064,1.11703753 90.6402547,0.60497319 90.585429,0.089155496 C90.3968231,0.857117962 90.1968231,1.59130027 89.8663941,2.33969169" id="Fill-1" fill="#191A1E" mask="url(#mask-2)"></path>
                </g>
                <g id="Group-6" transform="translate(0.000000, 0.036461)">
                    <mask id="mask-4" fill="white">
                        <use xlink:href="#path-3"></use>
                    </mask>
                    <g id="Clip-5"></g>
                    <path d="M2.61898123,24.7031099 C7.86589812,12.683807 34.0066488,3.21504021 62.1022252,3.11343164 L62.8858713,3.10404826 C72.2614745,3.16075067 80.7951206,4.31088472 87.7011528,6.33018767 C78.3801072,2.42737265 66.0791689,0.041849866 52.582252,0.0985522788 C23.5148257,0.171340483 -0.0460321716,11.3602145 -5.03640134e-05,25.1128954 C-0.0127882038,27.8257641 0.924343164,30.4224129 2.63533512,32.8403753 C1.4327882,30.2545845 1.42648794,27.4913137 2.61898123,24.7031099" id="Fill-4" fill="#191A1E" mask="url(#mask-4)"></path>
                </g>
                <path d="M33.6688204,16.8174933 C33.0830295,17.0350536 32.2988472,16.7453753 30.7312869,17.2526139 C28.9686863,17.8325067 26.7084987,18.4365282 22.4162735,20.3212466 C22.2739142,20.8531501 21.8402681,22.1811662 21.3559517,23.438807 C21.2405362,23.7520777 21.1141287,24.1148123 20.9489812,24.5496649 C21.8741823,24.1148123 23.6079625,23.3660188 24.9975067,22.9547587 C26.8500536,22.4715147 29.0496515,22.0365282 29.3587668,22.3507373 C29.7745845,22.6886729 29.2897319,23.8491287 28.4139946,24.1633378 C27.8618499,24.3325067 27.3862466,24.2595845 26.0131903,24.5984584 C24.7243164,24.9603887 22.4098391,25.8059651 20.0540751,27.2318365 C19.84,27.8841153 18.9568901,30.711059 18.7803485,31.991756 C18.6890617,32.5951072 18.7702949,33.1270107 18.387185,33.5382708 C17.865067,34.0692359 17.0209651,34.0455094 16.7109115,33.6342493 C16.5418767,33.3932306 17.5441555,29.9376005 18.0564879,27.7632038 C17.8877212,27.6182976 17.667882,27.3039544 17.7713673,26.8449732 C17.9019303,26.2649464 18.0631903,26.1448391 18.6863807,25.6615952 C18.8068901,25.2264745 19.2404021,23.897118 19.4429491,23.1969839 C19.6347721,22.544437 19.8210992,21.9164209 20.0126542,21.2634718 C19.164933,21.5532842 17.5193566,22.1091823 17.329008,22.061059 C16.4335657,21.8674933 16.5614477,20.8043566 17.0890617,20.2484584 C17.3332976,19.9587802 19.303941,19.5481903 20.5752547,19.0645442 C20.723378,18.605563 21.0202949,17.7843834 21.5611796,17.5668231 C22.2245845,17.3011394 22.6463003,17.7114611 22.7446917,18.2673592 C24.1332976,17.7602547 29.1194906,15.9719169 30.1908043,15.6822386 C31.5523324,15.2956434 33.9357105,14.7397453 34.2780697,15.005429 C34.9186863,15.5374665 34.5945576,16.4791555 33.6688204,16.8174933" id="Fill-7" fill="#191A1E"></path>
                <path d="M34.5784316,37.7900268 C33.5250804,41.0762198 32.7792359,42.5019571 32.8473324,42.6955228 C33.0225335,43.0091957 33.4080563,44.8696515 31.6363405,44.8939142 C29.6079223,44.9665684 31.1258847,42.6955228 31.3880831,42.6227346 C31.5555094,42.573941 32.1768231,39.9163003 33.6746783,35.2532976 C34.6126139,32.2815818 35.1556434,30.56563 35.9092627,27.618311 C34.3591287,29.1406971 31.0862064,32.3539678 30.0734718,32.1847989 C28.6969303,31.9431099 29.9782976,28.4393566 31.2705228,24.8882842 C31.7539008,23.4386863 32.1450536,22.4955228 32.7364745,22.3507507 C33.126689,22.2061126 33.9012198,22.7370777 33.804437,23.3660322 C33.72937,23.8971314 31.2882172,28.7780965 31.5981367,29.1886863 C31.8965282,29.5514209 33.9950536,27.1831903 36.3457239,24.8882842 C36.8902279,24.3562466 37.3199866,23.3416354 38.0879491,23.70437 C38.5753485,23.9217962 38.5020241,25.6369437 38.084866,26.8931099 C37.6233378,28.2464611 35.92937,33.7798391 34.5784316,37.7900268" id="Fill-9" fill="#191A1E"></path>
                <path d="M48.0197855,22.6886595 C47.5949866,22.6886595 47.4144236,22.3993834 47.2356032,22.3993834 C46.5370777,22.4237802 46.2160322,22.9547453 44.2022252,24.5496515 C43.0007507,25.5162735 42.1313137,26.8930831 42.1018231,27.5215013 C41.9925737,28.8992493 43.1279625,29.0194906 44.3496783,29.5513941 C45.6952547,30.2279357 46.8423056,30.4933512 46.6618767,32.0878552 C46.5286327,33.1751206 41.9152279,35.5917426 41.4797051,35.6397319 C40.551555,35.5917426 40.2448525,34.7702949 40.9224665,34.045496 C41.2952547,33.7798123 44.5361394,32.6918767 44.5708579,31.9430831 C44.6585255,30.7589008 39.8087936,31.0488472 40.1975335,27.8358445 C40.5712601,24.8882574 44.1944504,22.3027346 46.1530295,20.8532708 C46.8373458,20.2973727 47.6597319,20.417882 48.023941,20.5867828 C48.3102681,20.8043432 49.0963271,21.38437 49.0369437,21.7467024 C48.9952547,22.2299464 48.735067,22.6886595 48.0197855,22.6886595" id="Fill-11" fill="#191A1E"></path>
                <path d="M52.0118365,30.3727346 C51.4591555,32.3302413 52.1434718,31.870992 51.624571,32.8856032 C51.3982976,33.393244 50.5068767,33.876622 49.9555362,33.2476676 C49.5391823,32.8134853 50.2457507,30.3727346 51.377118,26.1448525 C51.7869035,24.6226005 52.2417292,23.1002145 53.1025871,23.051555 C53.7115684,23.0274263 54.1673324,23.5833244 53.8655898,24.5256836 C53.6458847,25.2018231 52.268941,29.4305094 52.0118365,30.3727346 M54.7429357,18.0500804 C54.1458847,19.0165684 54.2041957,19.4518231 53.8815416,19.693244 C53.5701475,19.9826542 53.0403887,20.151689 52.7759115,19.8380161 C52.5507105,19.5482038 52.588244,18.3885523 53.5137131,17.0589276 C54.3334182,15.8028954 54.4083512,15.271126 55.1012466,15.271126 C55.6155898,15.271126 55.9543298,15.7550402 55.7340885,16.4310456 C55.6360992,16.7695174 55.2470912,17.204504 54.7429357,18.0500804" id="Fill-13" fill="#191A1E"></path>
                <path d="M64.3142359,26.8690214 C64.5752279,23.8250536 62.6084718,23.0274665 61.6531099,23.1001206 C60.3796515,23.1969035 58.6763003,24.3081635 56.6332708,27.6183512 C55.011689,30.2517292 55.6708043,32.8856434 56.6693298,33.5135255 C58.2956032,34.5285389 63.8685255,31.7254558 64.3142359,26.8690214 M62.4220107,26.3377882 C62.5528418,27.6424799 62.1336729,28.6088338 61.3136997,29.7687534 C60.7098123,30.6624531 58.9907775,32.0397989 58.1555228,31.6776005 C57.3820643,31.3389946 57.4620912,29.792882 57.9268365,28.923311 C60.0052547,25.0570912 61.4651743,25.2265282 61.4651743,25.2265282 C61.4651743,25.2265282 62.3330027,25.4432842 62.4220107,26.3377882" id="Fill-15" fill="#191A1E"></path>
                <path d="M83.4814343,16.8174933 C82.8955094,17.0350536 82.111059,16.7453753 80.5436327,17.2526139 C78.7813003,17.8325067 76.5209786,18.4365282 72.2284853,20.3212466 C72.0865282,20.8531501 71.652882,22.1811662 71.1682976,23.438807 C71.052882,23.7520777 70.9264745,24.1148123 70.7617292,24.5496649 C71.6867962,24.1148123 73.4205764,23.3660188 74.8098525,22.9547587 C76.6622654,22.4715147 78.8618633,22.0365282 79.1713807,22.3507373 C79.5869303,22.6886729 79.1022118,23.8491287 78.2264745,24.1633378 C77.6737936,24.3325067 77.1987265,24.2595845 75.8258043,24.5984584 C74.5367962,24.9603887 72.2225871,25.8059651 69.866689,27.2318365 C69.6522118,27.8841153 68.769504,30.711059 68.5925603,31.991756 C68.5015416,32.5951072 68.5827748,33.1270107 68.1997989,33.5382708 C67.6775469,34.0692359 66.833445,34.0455094 66.5231233,33.6342493 C66.3540885,33.3932306 67.3559651,29.9376005 67.8685657,27.7632038 C67.7002011,27.6182976 67.4807641,27.3039544 67.5838472,26.8449732 C67.7142761,26.2649464 67.8760724,26.1448391 68.4988606,25.6615952 C68.6191019,25.2264745 69.0530161,23.897118 69.2552949,23.1969839 C69.447118,22.544437 69.6331769,21.9164209 69.8252681,21.2634718 C68.9772788,21.5532842 67.3315684,22.1091823 67.1414879,22.061059 C66.2459115,21.8674933 66.3736595,20.8043566 66.9014075,20.2484584 C67.1459115,19.9587802 69.1160188,19.5481903 70.3877346,19.0645442 C70.5353217,18.605563 70.8330429,17.7843834 71.3735255,17.5668231 C72.0373324,17.3011394 72.4585121,17.7114611 72.5574397,18.2673592 C73.9457775,17.7602547 78.9318365,15.9719169 80.0032842,15.6822386 C81.3646783,15.2956434 83.7477882,14.7397453 84.0904155,15.005429 C84.7308981,15.5374665 84.4066354,16.4791555 83.4814343,16.8174933" id="Fill-17" fill="#191A1E"></path>
                <path d="M82.6181099,30.3727346 C82.0656971,32.3302413 82.7504155,31.870992 82.2309786,32.8856032 C82.0048391,33.393244 81.1135523,33.876622 80.5619437,33.2476676 C80.1458579,32.8134853 80.8521582,30.3727346 81.9837936,26.1448525 C82.3939812,24.6226005 82.8486729,23.1002145 83.7095308,23.051555 C84.3187802,23.0274263 84.7744102,23.5833244 84.4725335,24.5256836 C84.2530965,25.2018231 82.8757507,29.4305094 82.6181099,30.3727346 M85.3501475,18.0500804 C84.7528284,19.0165684 84.8110054,19.4518231 84.487815,19.693244 C84.1770912,19.9826542 83.6469303,20.151689 83.382185,19.8380161 C83.157252,19.5482038 83.1950536,18.3885523 84.1203887,17.0589276 C84.9400938,15.8028954 85.0150268,15.271126 85.7080563,15.271126 C86.2226676,15.271126 86.5607373,15.7550402 86.3411662,16.4310456 C86.2426408,16.7695174 85.8539008,17.204504 85.3501475,18.0500804" id="Fill-19" fill="#191A1E"></path>
                <path d="M96.557815,23.7763539 C95.3280563,23.7763539 93.8989678,24.0668365 93.0280563,24.2595979 C92.6491019,25.3468633 91.2218901,29.6959249 90.7297989,32.4750134 C90.6815416,32.7885523 90.7909249,34.2870777 89.471756,34.1901609 C88.5488338,34.1181769 88.6862332,32.8134853 88.7625067,32.4750134 C89.074571,31.387882 89.3448123,29.8894906 90.1520509,27.4007507 C90.6071448,25.9754155 90.79937,25.4193834 91.052319,24.6947185 C90.6452145,24.8153619 90.0702815,24.984933 89.5685389,25.2264879 C88.3257775,25.7818499 87.8815416,26.2648257 87.5847587,26.1929759 C87.0019169,25.9994102 86.674571,25.4680429 86.9895845,24.8636193 C87.2162601,24.4530295 87.3040617,24.1633512 88.8658579,23.5833244 C90.1875737,23.0754155 90.5275201,22.9547721 91.7886461,22.6164343 C92.0084853,22.0365416 92.6359651,20.3453887 93.2936059,18.2189812 C93.4964209,17.5181769 93.7155898,15.8510188 94.6324799,15.8510188 C95.2583512,15.8510188 95.6650536,16.6244772 94.8202815,19.282118 C94.4145174,20.5868097 94.177252,21.0459249 93.7591555,22.2061126 C94.4296649,22.1091957 95.6748391,21.940429 96.9555362,22.0124129 C97.5533914,22.0365416 98.4875737,22.1579893 98.3693432,22.9786327 C98.2131769,23.9697855 97.0720241,23.7763539 96.557815,23.7763539" id="Fill-21" fill="#191A1E"></path>
                <path d="M98.0540751,16.7841153 L98.0540751,19.514008 L98.5209651,19.514008 L98.5209651,18.4365282 L98.9082306,18.4365282 C99.1689544,18.4365282 99.3512601,18.4654826 99.4555496,18.5240617 C99.6306166,18.6263405 99.7185523,18.8353217 99.7185523,19.1514075 L99.7185523,19.3684316 L99.7283378,19.4565013 C99.7306166,19.4676273 99.7331635,19.4780831 99.7354424,19.4874665 C99.7379893,19.4959115 99.7404021,19.5051609 99.7425469,19.514008 L100.197373,19.514008 L100.180617,19.4798257 C100.168686,19.4577078 100.160643,19.4102547 100.15622,19.3376005 C100.151662,19.2662869 100.149249,19.1976542 100.149249,19.1347855 L100.149249,18.9346515 C100.149249,18.797118 100.09992,18.6560992 100.000992,18.5109249 C99.9030027,18.3664209 99.7472386,18.2774129 99.534504,18.2434987 C99.7036729,18.216555 99.8358445,18.1720509 99.9300804,18.111059 C100.108633,17.9959115 100.197373,17.816555 100.197373,17.5725871 C100.197373,17.2298257 100.055147,16.9991287 99.7702949,16.8821046 C99.6106434,16.8161528 99.3601072,16.7841153 99.0176139,16.7841153 L98.0540751,16.7841153 Z M99.7303485,17.616689 C99.7303485,17.8252681 99.6336997,17.9662869 99.440134,18.0409517 C99.3358445,18.0807641 99.1778016,18.1012735 98.9682842,18.1012735 L98.5209651,18.1012735 L98.5209651,17.11937 L98.9440214,17.11937 C99.2186863,17.11937 99.4186863,17.152748 99.5429491,17.2197721 C99.667882,17.2870643 99.7303485,17.419504 99.7303485,17.616689 L99.7303485,17.616689 Z M101.562654,18.1524799 C101.562654,17.4652145 101.318954,16.8796917 100.832627,16.3957775 C100.34563,15.9121314 99.7570241,15.6700402 99.0665416,15.6700402 C98.3807507,15.6700402 97.79563,15.9121314 97.3107775,16.3957775 C96.8239142,16.8821046 96.5808847,17.4677614 96.5808847,18.1524799 C96.5808847,18.8447051 96.8217694,19.4330429 97.303807,19.91937 C97.7886595,20.4077078 98.3764611,20.6516756 99.0665416,20.6516756 C99.7570241,20.6516756 100.34563,20.4077078 100.832627,19.91937 C101.318954,19.43063 101.562654,18.8421582 101.562654,18.1524799 L101.562654,18.1524799 Z M99.0700268,16.005563 C99.6670777,16.005563 100.176595,16.2157507 100.598177,16.6369303 C101.017748,17.0566354 101.227668,17.5625335 101.227668,18.1559651 C101.227668,18.7539544 101.017748,19.2630697 100.598177,19.6845174 C100.17874,20.105563 99.6696247,20.3170912 99.0700268,20.3170912 C98.4702949,20.3170912 97.9609115,20.105563 97.5424129,19.6845174 C97.1244504,19.2630697 96.9162735,18.7539544 96.9162735,18.1559651 C96.9162735,17.5625335 97.1257909,17.0566354 97.54563,16.6369303 C97.9668097,16.2157507 98.4752547,16.005563 99.0700268,16.005563 L99.0700268,16.005563 Z" id="Fill-23" fill="#191A1E"></path>
            </g>
        </g>
    </g>
</svg>