<?xml version="1.0" encoding="UTF-8"?>
<svg width="153px" height="35px" viewBox="0 0 153 35" version="1.1" xmlns="http://www.w3.org/2000/svg" xmlns:xlink="http://www.w3.org/1999/xlink">
    <!-- Generator: Sketch 55.2 (78181) - https://sketchapp.com -->
    <title>Group 3</title>
    <desc>Created with Sketch.</desc>
    <g id="Design" stroke="none" stroke-width="1" fill="none" fill-rule="evenodd">
        <g id="About-me" transform="translate(-229.000000, -2157.000000)" fill="#191A1E">
            <g id="Group-3" transform="translate(229.000000, 2157.000000)">
                <g id="Icon">
                    <path d="M19.1876562,11.4044787 C18.1022062,12.4253287 17.0779562,13.5605037 16.2224312,14.7522037 C14.3787812,17.3209037 13.7004812,19.5912537 14.3124812,21.1442037 C14.7808312,22.3329287 15.6291312,22.8739537 16.2194562,22.8739537 C17.1191812,22.8739537 18.5675812,22.1144787 18.9471062,20.6890287 C19.5425312,18.4484287 19.7031812,14.7925787 19.1876562,11.4044787 M25.9617312,34.8955037 C25.7415812,34.8955037 25.5176062,34.8525787 25.3012812,34.7612037 C24.4364062,34.3961287 24.0313812,33.3986537 24.3968812,32.5337787 C31.6346312,15.3982037 30.8284062,9.83410369 29.7030062,8.04230369 C29.3897812,7.54292869 28.7884062,6.86972869 27.1908312,6.79025369 C26.0560812,6.73500369 24.1848062,7.57947869 22.1745562,8.97645369 C23.2047562,13.4461787 23.0322062,18.5563787 22.2323562,21.5628287 C21.4184812,24.6232537 18.5267812,26.2739537 16.2194562,26.2739537 C14.0689562,26.2739537 12.0786812,24.7499037 11.1492062,22.3911537 C10.0837312,19.6873037 10.8831562,16.3604037 13.4607812,12.7695787 C14.7349312,10.9939287 16.4247312,9.21275369 18.2675312,7.68020369 C17.9305062,6.76432869 17.5178312,5.93855369 17.0227062,5.25472869 C16.1684562,4.07492869 15.1756562,3.46845369 13.9877812,3.40045369 C13.6550062,3.38090369 12.6337312,3.72090369 11.1619562,5.14295369 C7.43300615,8.74482869 3.16473115,16.8423537 3.40995615,27.8086287 C3.43120615,28.7474537 2.68703115,29.5252037 1.74863115,29.5464537 C1.73545615,29.5468787 1.72228115,29.5468787 1.70953115,29.5468787 C0.788131152,29.5468787 0.0316311516,28.8103537 0.0108061516,27.8847037 C-0.259068848,15.8202287 4.57700615,6.77580369 8.80023115,2.69750369 C10.1372812,1.40592869 12.1611312,-0.11089631 14.1820062,0.00640369009 C16.3911562,0.13262869 18.3261812,1.25760369 19.7767062,3.26062869 C20.2841562,3.96102869 20.7206312,4.75492869 21.0933562,5.61470369 C22.7806062,4.54922869 25.2562312,3.29037869 27.3599812,3.39407869 C30.2950312,3.54070369 31.8203562,5.01970369 32.5828062,6.23435369 C35.2798562,10.5306787 33.6742062,19.3077787 27.5287062,33.8568037 C27.2545812,34.5053537 26.6247312,34.8955037 25.9617312,34.8955037" id="Fill-1"></path>
                </g>
                <path d="M53.962,13.982 L53.89,13.982 L52.918,15.98 L50.344,20.732 L47.77,15.98 L46.798,13.982 L46.726,13.982 L46.726,23 L44.476,23 L44.476,10.436 L47.158,10.436 L50.38,16.574 L50.452,16.574 L53.638,10.436 L56.212,10.436 L56.212,23 L53.962,23 L53.962,13.982 Z M62.818,23.216 C62.1219965,23.216 61.5010027,23.0990012 60.955,22.865 C60.4089973,22.6309988 59.9470019,22.3010021 59.569,21.875 C59.1909981,21.4489979 58.900001,20.933003 58.696,20.327 C58.491999,19.720997 58.39,19.0400038 58.39,18.284 C58.39,17.5399963 58.488999,16.868003 58.687,16.268 C58.885001,15.667997 59.1699981,15.1550021 59.542,14.729 C59.9140019,14.3029979 60.3699973,13.9730012 60.91,13.739 C61.4500027,13.5049988 62.0619966,13.388 62.746,13.388 C63.4780037,13.388 64.1139973,13.5139987 64.654,13.766 C65.1940027,14.0180013 65.6379983,14.3599978 65.986,14.792 C66.3340017,15.2240022 66.5949991,15.7249972 66.769,16.295 C66.9430009,16.8650028 67.03,17.4739968 67.03,18.122 L67.03,18.878 L60.784,18.878 L60.784,19.112 C60.784,19.7960034 60.9759981,20.3449979 61.36,20.759 C61.7440019,21.1730021 62.3139962,21.38 63.07,21.38 C63.6460029,21.38 64.1169982,21.2600012 64.483,21.02 C64.8490018,20.7799988 65.1759986,20.4740019 65.464,20.102 L66.706,21.488 C66.3219981,22.0280027 65.7970033,22.4509985 65.131,22.757 C64.4649967,23.0630015 63.6940044,23.216 62.818,23.216 Z M62.782,15.116 C62.1699969,15.116 61.6840018,15.319998 61.324,15.728 C60.9639982,16.136002 60.784,16.6639968 60.784,17.312 L60.784,17.456 L64.636,17.456 L64.636,17.294 C64.636,16.6459968 64.4770016,16.121002 64.159,15.719 C63.8409984,15.316998 63.382003,15.116 62.782,15.116 Z M72.862,23.216 C72.1659965,23.216 71.5450027,23.0990012 70.999,22.865 C70.4529973,22.6309988 69.9910019,22.3010021 69.613,21.875 C69.2349981,21.4489979 68.944001,20.933003 68.74,20.327 C68.535999,19.720997 68.434,19.0400038 68.434,18.284 C68.434,17.5399963 68.532999,16.868003 68.731,16.268 C68.929001,15.667997 69.2139981,15.1550021 69.586,14.729 C69.9580019,14.3029979 70.4139973,13.9730012 70.954,13.739 C71.4940027,13.5049988 72.1059966,13.388 72.79,13.388 C73.5220037,13.388 74.1579973,13.5139987 74.698,13.766 C75.2380027,14.0180013 75.6819983,14.3599978 76.03,14.792 C76.3780017,15.2240022 76.6389991,15.7249972 76.813,16.295 C76.9870009,16.8650028 77.074,17.4739968 77.074,18.122 L77.074,18.878 L70.828,18.878 L70.828,19.112 C70.828,19.7960034 71.0199981,20.3449979 71.404,20.759 C71.7880019,21.1730021 72.3579962,21.38 73.114,21.38 C73.6900029,21.38 74.1609982,21.2600012 74.527,21.02 C74.8930018,20.7799988 75.2199986,20.4740019 75.508,20.102 L76.75,21.488 C76.3659981,22.0280027 75.8410033,22.4509985 75.175,22.757 C74.5089967,23.0630015 73.7380044,23.216 72.862,23.216 Z M72.826,15.116 C72.2139969,15.116 71.7280018,15.319998 71.368,15.728 C71.0079982,16.136002 70.828,16.6639968 70.828,17.312 L70.828,17.456 L74.68,17.456 L74.68,17.294 C74.68,16.6459968 74.5210016,16.121002 74.203,15.719 C73.8849984,15.316998 73.426003,15.116 72.826,15.116 Z M82.186,23.216 C81.2859955,23.216 80.5300031,23.0630015 79.918,22.757 C79.3059969,22.4509985 78.7660023,22.0280027 78.298,21.488 L79.702,20.12 C80.0500017,20.516002 80.4309979,20.8279989 80.845,21.056 C81.2590021,21.2840011 81.7359973,21.398 82.276,21.398 C82.8280028,21.398 83.2269988,21.302001 83.473,21.11 C83.7190012,20.917999 83.842,20.6540017 83.842,20.318 C83.842,20.0419986 83.7550009,19.8230008 83.581,19.661 C83.4069991,19.4989992 83.1100021,19.388 82.69,19.328 L81.754,19.202 C80.7339949,19.0699993 79.9570027,18.7790023 79.423,18.329 C78.8889973,17.8789977 78.622,17.2220043 78.622,16.358 C78.622,15.9019977 78.7059992,15.4910018 78.874,15.125 C79.0420008,14.7589982 79.2819984,14.4470013 79.594,14.189 C79.9060016,13.9309987 80.2809978,13.7330007 80.719,13.595 C81.1570022,13.4569993 81.6459973,13.388 82.186,13.388 C82.6420023,13.388 83.0469982,13.4209997 83.401,13.487 C83.7550018,13.5530003 84.0759986,13.6489994 84.364,13.775 C84.6520014,13.9010006 84.9159988,14.0569991 85.156,14.243 C85.3960012,14.4290009 85.6299989,14.6359989 85.858,14.864 L84.508,16.214 C84.2319986,15.9259986 83.9020019,15.686001 83.518,15.494 C83.1339981,15.301999 82.7140023,15.206 82.258,15.206 C81.7539975,15.206 81.3910011,15.2959991 81.169,15.476 C80.9469989,15.6560009 80.836,15.8899986 80.836,16.178 C80.836,16.4900016 80.9289991,16.7269992 81.115,16.889 C81.3010009,17.0510008 81.6159978,17.1679996 82.06,17.24 L83.014,17.366 C85.0420101,17.6540014 86.056,18.5779922 86.056,20.138 C86.056,20.5940023 85.9630009,21.0109981 85.777,21.389 C85.5909991,21.7670019 85.3300017,22.0909986 84.994,22.361 C84.6579983,22.6310013 84.2530024,22.8409992 83.779,22.991 C83.3049976,23.1410007 82.7740029,23.216 82.186,23.216 Z M91.024,23 C90.231996,23 89.6290021,22.7930021 89.215,22.379 C88.8009979,21.9649979 88.594,21.3740038 88.594,20.606 L88.594,15.44 L87.208,15.44 L87.208,13.604 L87.928,13.604 C88.2760017,13.604 88.5129994,13.5230008 88.639,13.361 C88.7650006,13.1989992 88.828,12.9560016 88.828,12.632 L88.828,11.03 L90.898,11.03 L90.898,13.604 L92.824,13.604 L92.824,15.44 L90.898,15.44 L90.898,21.164 L92.68,21.164 L92.68,23 L91.024,23 Z M98.62,23.216 C97.9239965,23.216 97.3030027,23.0990012 96.757,22.865 C96.2109973,22.6309988 95.7490019,22.3010021 95.371,21.875 C94.9929981,21.4489979 94.702001,20.933003 94.498,20.327 C94.293999,19.720997 94.192,19.0400038 94.192,18.284 C94.192,17.5399963 94.290999,16.868003 94.489,16.268 C94.687001,15.667997 94.9719981,15.1550021 95.344,14.729 C95.7160019,14.3029979 96.1719973,13.9730012 96.712,13.739 C97.2520027,13.5049988 97.8639966,13.388 98.548,13.388 C99.2800037,13.388 99.9159973,13.5139987 100.456,13.766 C100.996003,14.0180013 101.439998,14.3599978 101.788,14.792 C102.136002,15.2240022 102.396999,15.7249972 102.571,16.295 C102.745001,16.8650028 102.832,17.4739968 102.832,18.122 L102.832,18.878 L96.586,18.878 L96.586,19.112 C96.586,19.7960034 96.7779981,20.3449979 97.162,20.759 C97.5460019,21.1730021 98.1159962,21.38 98.872,21.38 C99.4480029,21.38 99.9189982,21.2600012 100.285,21.02 C100.651002,20.7799988 100.977999,20.4740019 101.266,20.102 L102.508,21.488 C102.123998,22.0280027 101.599003,22.4509985 100.933,22.757 C100.266997,23.0630015 99.4960044,23.216 98.62,23.216 Z M98.584,15.116 C97.9719969,15.116 97.4860018,15.319998 97.126,15.728 C96.7659982,16.136002 96.586,16.6639968 96.586,17.312 L96.586,17.456 L100.438,17.456 L100.438,17.294 C100.438,16.6459968 100.279002,16.121002 99.961,15.719 C99.6429984,15.316998 99.184003,15.116 98.584,15.116 Z M104.866,23 L104.866,13.604 L107.17,13.604 L107.17,15.548 L107.26,15.548 C107.32,15.2959987 107.412999,15.0530012 107.539,14.819 C107.665001,14.5849988 107.829999,14.3780009 108.034,14.198 C108.238001,14.0179991 108.480999,13.8740005 108.763,13.766 C109.045001,13.6579995 109.371998,13.604 109.744,13.604 L110.248,13.604 L110.248,15.782 L109.528,15.782 C108.747996,15.782 108.160002,15.8959989 107.764,16.124 C107.367998,16.3520011 107.17,16.7239974 107.17,17.24 L107.17,23 L104.866,23 Z M112.084,10.436 L117.898,10.436 C118.414003,10.436 118.878998,10.5139992 119.293,10.67 C119.707002,10.8260008 120.057999,11.0419986 120.346,11.318 C120.634001,11.5940014 120.852999,11.932998 121.003,12.335 C121.153001,12.737002 121.228,13.1779976 121.228,13.658 C121.228,14.1380024 121.165001,14.5429983 121.039,14.873 C120.912999,15.2030016 120.745001,15.4759989 120.535,15.692 C120.324999,15.9080011 120.085001,16.0699995 119.815,16.178 C119.544999,16.2860005 119.266001,16.3459999 118.978,16.358 L118.978,16.466 C119.254001,16.466 119.550998,16.5199995 119.869,16.628 C120.187002,16.7360005 120.480999,16.9069988 120.751,17.141 C121.021001,17.3750012 121.245999,17.6749982 121.426,18.041 C121.606001,18.4070018 121.696,18.8599973 121.696,19.4 C121.696,19.9040025 121.615001,20.3749978 121.453,20.813 C121.290999,21.2510022 121.066001,21.6319984 120.778,21.956 C120.489999,22.2800016 120.148002,22.5349991 119.752,22.721 C119.355998,22.9070009 118.924002,23 118.456,23 L112.084,23 L112.084,10.436 Z M114.46,20.984 L117.772,20.984 C118.228002,20.984 118.581999,20.8670012 118.834,20.633 C119.086001,20.3989988 119.212,20.0600022 119.212,19.616 L119.212,19.004 C119.212,18.5599978 119.086001,18.2180012 118.834,17.978 C118.581999,17.7379988 118.228002,17.618 117.772,17.618 L114.46,17.618 L114.46,20.984 Z M114.46,15.674 L117.394,15.674 C117.826002,15.674 118.161999,15.5570012 118.402,15.323 C118.642001,15.0889988 118.762,14.7620021 118.762,14.342 L118.762,13.784 C118.762,13.3639979 118.642001,13.0370012 118.402,12.803 C118.161999,12.5689988 117.826002,12.452 117.394,12.452 L114.46,12.452 L114.46,15.674 Z M130.786,23 C130.281997,23 129.883001,22.8530015 129.589,22.559 C129.294999,22.2649985 129.112,21.8720025 129.04,21.38 L128.932,21.38 C128.775999,21.9920031 128.458002,22.4509985 127.978,22.757 C127.497998,23.0630015 126.904004,23.216 126.196,23.216 C125.235995,23.216 124.498003,22.9640025 123.982,22.46 C123.465997,21.9559975 123.208,21.2840042 123.208,20.444 C123.208,19.4719951 123.555997,18.7490024 124.252,18.275 C124.948003,17.8009976 125.937994,17.564 127.222,17.564 L128.824,17.564 L128.824,16.88 C128.824,16.3519974 128.686001,15.9440014 128.41,15.656 C128.133999,15.3679986 127.690003,15.224 127.078,15.224 C126.537997,15.224 126.103002,15.3409988 125.773,15.575 C125.442998,15.8090012 125.164001,16.0879984 124.936,16.412 L123.568,15.188 C123.916002,14.6479973 124.377997,14.2130016 124.954,13.883 C125.530003,13.5529983 126.291995,13.388 127.24,13.388 C128.512006,13.388 129.477997,13.6759971 130.138,14.252 C130.798003,14.8280029 131.128,15.6559946 131.128,16.736 L131.128,21.164 L132.064,21.164 L132.064,23 L130.786,23 Z M126.97,21.542 C127.486003,21.542 127.923998,21.4280011 128.284,21.2 C128.644002,20.9719989 128.824,20.6360022 128.824,20.192 L128.824,18.95 L127.348,18.95 C126.147994,18.95 125.548,19.3339962 125.548,20.102 L125.548,20.408 C125.548,20.7920019 125.670999,21.0769991 125.917,21.263 C126.163001,21.4490009 126.513998,21.542 126.97,21.542 Z M140.848,23 C140.343997,23 139.945001,22.8530015 139.651,22.559 C139.356999,22.2649985 139.174,21.8720025 139.102,21.38 L138.994,21.38 C138.837999,21.9920031 138.520002,22.4509985 138.04,22.757 C137.559998,23.0630015 136.966004,23.216 136.258,23.216 C135.297995,23.216 134.560003,22.9640025 134.044,22.46 C133.527997,21.9559975 133.27,21.2840042 133.27,20.444 C133.27,19.4719951 133.617997,18.7490024 134.314,18.275 C135.010003,17.8009976 135.999994,17.564 137.284,17.564 L138.886,17.564 L138.886,16.88 C138.886,16.3519974 138.748001,15.9440014 138.472,15.656 C138.195999,15.3679986 137.752003,15.224 137.14,15.224 C136.599997,15.224 136.165002,15.3409988 135.835,15.575 C135.504998,15.8090012 135.226001,16.0879984 134.998,16.412 L133.63,15.188 C133.978002,14.6479973 134.439997,14.2130016 135.016,13.883 C135.592003,13.5529983 136.353995,13.388 137.302,13.388 C138.574006,13.388 139.539997,13.6759971 140.2,14.252 C140.860003,14.8280029 141.19,15.6559946 141.19,16.736 L141.19,21.164 L142.126,21.164 L142.126,23 L140.848,23 Z M137.032,21.542 C137.548003,21.542 137.985998,21.4280011 138.346,21.2 C138.706002,20.9719989 138.886,20.6360022 138.886,20.192 L138.886,18.95 L137.41,18.95 C136.209994,18.95 135.61,19.3339962 135.61,20.102 L135.61,20.408 C135.61,20.7920019 135.732999,21.0769991 135.979,21.263 C136.225001,21.4490009 136.575998,21.542 137.032,21.542 Z M143.998,23 L143.998,13.604 L146.302,13.604 L146.302,15.17 L146.392,15.17 C146.584001,14.6659975 146.886998,14.2430017 147.301,13.901 C147.715002,13.5589983 148.287996,13.388 149.02,13.388 C149.992005,13.388 150.735997,13.7059968 151.252,14.342 C151.768003,14.9780032 152.026,15.8839941 152.026,17.06 L152.026,23 L149.722,23 L149.722,17.294 C149.722,16.6219966 149.602001,16.1180017 149.362,15.782 C149.121999,15.4459983 148.726003,15.278 148.174,15.278 C147.933999,15.278 147.703001,15.3109997 147.481,15.377 C147.258999,15.4430003 147.061001,15.5389994 146.887,15.665 C146.712999,15.7910006 146.572001,15.9469991 146.464,16.133 C146.355999,16.3190009 146.302,16.5379987 146.302,16.79 L146.302,23 L143.998,23 Z" id="MeesterBaan" fill-rule="nonzero"></path>
            </g>
        </g>
    </g>
</svg>