<?xml version="1.0" encoding="UTF-8"?>
<svg width="61px" height="35px" viewBox="0 0 61 35" version="1.1" xmlns="http://www.w3.org/2000/svg" xmlns:xlink="http://www.w3.org/1999/xlink">
    <!-- Generator: Sketch 58 (84663) - https://sketch.com -->
    <title>Combined Shape</title>
    <desc>Created with Sketch.</desc>
    <g id="Design" stroke="none" stroke-width="1" fill="none" fill-rule="evenodd">
        <g id="About-me" transform="translate(-552.000000, -2555.000000)" fill="#191A1E" fill-rule="nonzero">
            <path d="M602.454338,2563.34247 C603.429224,2563.34247 604.308219,2563.47831 605.05137,2563.75799 L605.05137,2563.75799 L610.85274,2563.75799 L610.85274,2565.51598 C610.85274,2566.40297 610.133562,2567.28196 609.110731,2567.28196 L609.110731,2567.28196 L608.575342,2567.28196 C608.942922,2567.97717 609.222603,2568.76826 609.222603,2569.64726 C609.222603,2573.31507 606.34589,2575.96005 602.446347,2575.96005 C601.375571,2575.96005 600.320776,2575.76027 599.3379,2575.35274 C599.06621,2575.62443 598.914384,2575.99201 598.922374,2576.37557 C598.922374,2577.26256 599.385845,2577.67808 603.093607,2577.86187 C609.078767,2578.1895 611.164384,2580.36301 611.172374,2583.7911 C611.172374,2587.36301 608.575342,2589.96005 602.726027,2589.96005 C597.068493,2589.96005 594.007991,2587.64269 594.007991,2584.35046 C594.007991,2582.121 595.214612,2580.86644 597.116438,2580.21918 C595.765982,2579.61986 595.070776,2578.31735 595.070776,2576.92694 C595.070776,2575.44064 595.861872,2574.32991 597.252283,2573.68265 C596.237443,2572.5879 595.678082,2571.14155 595.678082,2569.64726 C595.678082,2565.98744 598.554795,2563.34247 602.454338,2563.34247 Z M601.982877,2581.98516 C599.665525,2581.98516 598.323059,2582.44863 598.323059,2583.93493 C598.323059,2585.22945 599.849315,2586.02055 602.726027,2586.02055 C605.458904,2586.02055 606.577626,2585.1895 606.577626,2583.93493 C606.577626,2582.68037 605.650685,2581.98516 601.982877,2581.98516 Z M593.336758,2555 L593.336758,2579.61187 L589.261416,2579.61187 C589.016895,2579.61187 588.752957,2579.41769 588.702614,2579.16332 L588.694064,2579.07648 L588.694064,2577.80594 C587.815068,2579.19635 586.192922,2580.03539 583.77968,2580.03539 C579.648402,2580.03539 576.308219,2576.51142 576.308219,2571.68493 C576.308219,2566.85845 579.648402,2563.33447 583.77968,2563.33447 C586.084713,2563.33447 587.677878,2564.10505 588.580276,2565.39302 L588.694064,2565.56393 L588.694064,2557.33333 C588.694064,2556.10041 589.66279,2555.08765 590.875838,2555.00539 L591.035388,2555 L593.336758,2555 Z M555.619863,2563.75799 C557.156194,2563.75799 557.74208,2565.05937 557.790123,2565.17253 L557.793379,2565.18037 L560.869863,2572.07648 C560.869863,2572.07648 562.579909,2568.35274 562.651826,2568.22489 C563.570776,2566.65868 565.784247,2566.66667 566.671233,2568.22489 C566.756101,2568.37919 568.435115,2572.06445 568.550808,2572.31843 L568.557078,2572.33219 L571.809361,2565.18037 C571.809361,2565.18037 572.432685,2563.89023 573.734555,2563.76736 L573.934932,2563.75799 L577.043379,2563.75799 L569.899543,2579.59589 L568.21347,2579.59589 C568.028539,2579.58904 567.86122,2579.49413 567.761835,2579.34638 L567.718037,2579.26826 L564.593607,2572.46804 L561.48516,2579.27626 C561.405251,2579.47603 561.205479,2579.61187 560.989726,2579.60388 L560.69194,2579.60322 C560.146674,2579.60145 559.196519,2579.59665 559.063564,2579.59597 L559.047945,2579.59589 L552,2563.75799 L555.619863,2563.75799 Z M584.986301,2567.4258 C582.621005,2567.4258 581.086758,2569.09589 581.086758,2571.69292 C581.086758,2574.28995 582.621005,2575.96005 584.986301,2575.96005 C587.351598,2575.96005 588.789954,2574.28995 588.789954,2571.69292 C588.789954,2569.09589 587.351598,2567.4258 584.986301,2567.4258 Z M602.446347,2567.00228 C600.776256,2567.00228 599.705479,2568.07306 599.705479,2569.64726 C599.705479,2571.22146 600.776256,2572.29224 602.446347,2572.29224 C604.116438,2572.29224 605.187215,2571.22945 605.187215,2569.64726 C605.187215,2568.06507 604.116438,2567.00228 602.446347,2567.00228 Z M612.043379,2563.77397 L612.043379,2563.90982 L611.859589,2563.90982 L611.859589,2564.44521 L611.691781,2564.44521 L611.691781,2563.90982 L611.507991,2563.90982 L611.507991,2563.77397 L612.043379,2563.77397 Z M612.291096,2563.77397 L612.466895,2564.14155 L612.642694,2563.77397 L612.794521,2563.77397 L612.794521,2564.44521 L612.634703,2564.44521 L612.634703,2564.09361 L612.530822,2564.30137 L612.402968,2564.30137 L612.299087,2564.09361 L612.299087,2564.44521 L612.139269,2564.44521 L612.139269,2563.77397 L612.291096,2563.77397 Z" id="Combined-Shape"></path>
        </g>
    </g>
</svg>