<?xml version="1.0" encoding="UTF-8"?>
<svg width="110px" height="19px" viewBox="0 0 110 19" version="1.1" xmlns="http://www.w3.org/2000/svg" xmlns:xlink="http://www.w3.org/1999/xlink">
    <!-- Generator: Sketch 55.2 (78181) - https://sketchapp.com -->
    <title>Logo</title>
    <desc>Created with Sketch.</desc>
    <g id="Design" stroke="none" stroke-width="1" fill="none" fill-rule="evenodd">
        <g id="About-me" transform="translate(-251.000000, -2564.000000)" fill="#191A1E">
            <g id="Logo" transform="translate(251.000000, 2564.000000)">
                <g id="Logo-group">
                    <path d="M6.87793154,16.1747803 C7.30287042,16.1747803 7.82839609,16.1003859 8.25306601,15.951062 L8.25306601,18.6134704 C7.80311491,18.763062 7.00272372,18.9121183 6.27790709,18.9121183 C3.80169682,18.9121183 2.00108557,17.9420479 2.00108557,14.6074141 L2.00108557,8.83382254 L0.000107579462,8.83382254 L0.000107579462,6.22145634 L2.00108557,6.22145634 L2.00108557,2.48862535 L5.00201467,2.48862535 L5.00201467,6.22145634 L8.25306601,6.22145634 L8.25306601,8.83382254 L5.00201467,8.83382254 L5.00201467,14.4080479 C5.00201467,15.6275268 5.57729584,16.1747803 6.87793154,16.1747803" id="Fill-1"></path>
                    <path d="M19.7585819,12.442431 C19.7585819,10.2028394 18.3078729,8.7096 16.3819315,8.7096 C14.4559902,8.7096 13.0055501,10.2028394 13.0055501,12.442431 C13.0055501,14.6817549 14.4559902,16.1747268 16.3819315,16.1747268 C18.3078729,16.1747268 19.7585819,14.6817549 19.7585819,12.442431 M10.0043521,12.442431 C10.0043521,8.63493803 12.7304156,5.97252958 16.3819315,5.97252958 C20.0334474,5.97252958 22.759511,8.63493803 22.759511,12.442431 C22.759511,16.2496563 20.0334474,18.9123324 16.3819315,18.9123324 C12.7304156,18.9123324 10.0043521,16.2496563 10.0043521,12.442431" id="Fill-3"></path>
                    <path d="M34.26422,12.442431 C34.26422,10.2028394 32.813511,8.7096 30.8875697,8.7096 C28.9616284,8.7096 27.5114572,10.2028394 27.5114572,12.442431 C27.5114572,14.6817549 28.9616284,16.1747268 30.8875697,16.1747268 C32.813511,16.1747268 34.26422,14.6817549 34.26422,12.442431 M24.5099902,12.442431 C24.5099902,8.63493803 27.2363227,5.97252958 30.8875697,5.97252958 C34.5390856,5.97252958 37.2651491,8.63493803 37.2651491,12.442431 C37.2651491,16.2496563 34.5390856,18.9123324 30.8875697,18.9123324 C27.2363227,18.9123324 24.5099902,16.2496563 24.5099902,12.442431" id="Fill-5"></path>
                    <polygon id="Fill-7" points="39.8910024 18.6634592 42.8922005 18.6634592 42.8922005 0.000107042254 39.8910024 0.000107042254"></polygon>
                    <path d="M51.1457237,18.9122521 C48.0197335,18.9122521 45.6435721,17.319731 45.6435721,14.5575056 L48.7698313,14.5575056 C48.7698313,15.9011535 49.7953325,16.5731113 51.1457237,16.5731113 C52.396066,16.5731113 53.1464328,16.1251394 53.1464328,15.2043085 C53.1464328,12.5665197 45.8689511,14.8063789 45.8689511,9.7299 C45.8689511,7.41564648 47.9944523,5.9724493 50.7702714,5.9724493 C53.7717384,5.9724493 56.0223007,7.81384366 56.0223007,10.1778718 L52.8965795,10.1778718 C52.8965795,9.13260423 51.9961394,8.33647746 50.7702714,8.33647746 C49.6452592,8.33647746 48.8951614,8.80906901 48.8951614,9.60546338 C48.8951614,11.9943789 56.2476797,9.95361831 56.2476797,15.0801394 C56.2476797,17.4441676 54.0716161,18.9122521 51.1457237,18.9122521" id="Fill-9"></path>
                    <path d="M62.0003301,18.6634592 L58.999401,18.6634592 L58.999401,0.000107042254 L62.0003301,0.000107042254 L62.0003301,8.01275493 C62.775709,6.69399437 64.0513325,5.97252958 65.6018215,5.97252958 C68.2525795,5.97252958 70.2535575,7.71437465 70.2535575,11.2229521 L70.2535575,18.6634592 L67.2523594,18.6634592 L67.2523594,11.8205155 C67.2523594,9.72998028 66.2524083,8.58543099 64.6263447,8.58543099 C63.0005501,8.58543099 62.0003301,9.72998028 62.0003301,11.8205155 L62.0003301,18.6634592 Z" id="Fill-10"></path>
                    <path d="M75.731154,11.3226085 L82.1829633,11.3226085 C81.8583423,9.58049577 80.70778,8.58527042 78.9571932,8.58527042 C77.2063374,8.58527042 76.056044,9.58049577 75.731154,11.3226085 M85.1093936,13.4374958 L75.7058729,13.4374958 C76.0313007,15.2540028 77.2313496,16.299538 79.0819853,16.299538 C80.4076333,16.299538 81.1830122,15.8015239 81.5832078,14.9304676 L84.8345281,14.9304676 C84.0844303,17.5184817 81.9080978,18.9121718 78.9571932,18.9121718 C75.3809829,18.9121718 72.7549682,16.2494958 72.7549682,12.442538 C72.7549682,8.63504507 75.3809829,5.97263662 78.9571932,5.97263662 C82.5336724,5.97263662 85.1594181,8.63504507 85.1594181,12.442538 C85.1594181,12.7904254 85.1346748,13.1142282 85.1093936,13.4374958" id="Fill-11"></path>
                    <path d="M90.7873032,18.6634592 L87.7861051,18.6634592 L87.7861051,6.22140282 L90.7873032,6.22140282 L90.7873032,8.23700845 C91.6874743,6.76865634 93.1631956,5.97252958 94.9885501,5.97252958 C95.2139291,5.97252958 95.4637824,5.97252958 95.6141247,6.02230423 L95.6141247,9.28174085 C95.2636846,9.15783944 94.8137335,9.08264225 94.31322,9.08264225 C92.0876699,9.08264225 90.7873032,10.2279944 90.7873032,12.3177268 L90.7873032,18.6634592 Z" id="Fill-12"></path>
                    <path d="M106.743785,12.442431 C106.743785,10.2028394 105.293076,8.7096 103.367134,8.7096 C101.441193,8.7096 99.991022,10.2028394 99.991022,12.442431 C99.991022,14.6817549 101.441193,16.1747268 103.367134,16.1747268 C105.293076,16.1747268 106.743785,14.6817549 106.743785,12.442431 M96.989824,12.442431 C96.989824,8.63493803 99.7158875,5.97252958 103.367134,5.97252958 C107.01865,5.97252958 109.744714,8.63493803 109.744714,12.442431 C109.744714,16.2496563 107.01865,18.9123324 103.367134,18.9123324 C99.7158875,18.9123324 96.989824,16.2496563 96.989824,12.442431" id="Fill-13"></path>
                </g>
            </g>
        </g>
    </g>
</svg>