<?xml version="1.0" encoding="UTF-8"?>
<svg width="127px" height="132px" viewBox="0 0 127 132" version="1.1" xmlns="http://www.w3.org/2000/svg" xmlns:xlink="http://www.w3.org/1999/xlink">
    <!-- Generator: Sketch 55.2 (78181) - https://sketchapp.com -->
    <title>Group 36</title>
    <desc>Created with Sketch.</desc>
    <defs>
        <polygon id="path-1" points="0.378088004 0.435532955 12.1693295 0.435532955 12.1693295 9.04141531 0.378088004 9.04141531"></polygon>
    </defs>
    <g id="Design" stroke="none" stroke-width="1" fill="none" fill-rule="evenodd">
        <g id="About-me" transform="translate(-985.000000, -210.000000)">
            <g id="Group-36" transform="translate(1049.192771, 276.000000) rotate(-5.000000) translate(-1049.192771, -276.000000) translate(991.000000, 206.000000)">
                <path d="M3.91952647,9.86995412 C5.95183266,9.97880985 7.68458883,8.87699099 7.82967475,6.16222866 C7.96814078,3.56350544 6.3821255,2.23402892 4.33326958,2.12406806 L2.71360319,2.03731502 L2.29986008,9.78320108 L3.91952647,9.86995412 Z M0.618959704,0 L4.51807484,0.208870376 C8.20314687,0.406136842 10.2900672,2.90816082 10.1096752,6.284346 C9.91825001,9.87603236 7.58473883,11.9918119 3.8996668,11.7945454 L0,11.5851225 L0.618959704,0 Z" id="Fill-1" fill="#A58861"></path>
                <polygon id="Fill-3" fill="#A58861" points="14.3891748 0.843373494 21.0843373 1.96469201 20.7988765 3.85462946 16.1793618 3.0810195 15.7469571 5.94032627 19.6954809 6.60191529 19.4126534 8.47521596 15.4641297 7.81362694 15.0122378 10.8043642 19.7876499 11.604593 19.5021891 13.4939759 12.6506024 12.3465931"></polygon>
                <polygon id="Fill-5" fill="#A58861" points="25.0497819 3.37349398 27.4317729 3.99273808 30.2240996 12.812753 30.3228526 12.8383057 32.4590961 5.30027281 34.5783133 5.85155772 31.4562422 16.8674699 29.0577924 16.2433327 26.2983833 7.43201654 26.1996303 7.40646389 24.0633868 14.9450404 21.9277108 14.3894061"></polygon>
                <polygon id="Fill-7" fill="#A58861" points="39.0186291 6.74698795 41.2820441 7.64972425 42.9263766 16.8574139 43.020194 16.894913 46.0588666 9.55501069 48.0722892 10.3584846 43.6319734 21.0843373 41.3528285 20.175535 39.7399557 10.9799775 39.6461383 10.9424783 36.6074657 18.2823806 34.5783133 17.4728407"></polygon>
                <polygon id="Fill-9" fill="#A58861" points="51.0778918 12.6506024 53.1325301 13.6971915 47.5962285 24.4578313 45.5421687 23.4112422"></polygon>
                <path d="M52.8414541,22.2625196 L54.55776,23.3693415 C54.0581023,24.2608263 54.3513457,25.3939489 55.5222396,26.1489987 C56.5199951,26.7922705 57.4189629,26.755559 57.8505091,26.0125637 C59.1529466,23.7693316 53.1534152,22.3869001 55.4816847,18.3765884 C56.384812,16.8204626 58.2966134,16.2993796 60.3456777,17.6204428 C62.1150169,18.7612365 63.0483005,20.7118731 61.9132821,22.7934654 L60.1439429,21.6526717 C60.6025257,20.8307743 60.3747941,19.9321664 59.3765187,19.2888946 C58.3922815,18.6543898 57.6118589,18.8636997 57.2541435,19.4806707 C56.0655718,21.5282912 62.058344,23.0794857 59.7545115,27.0470587 C58.7453174,28.7861937 56.7108113,29.2661818 54.4761302,27.8251216 C52.3469958,26.4525529 51.7100753,24.2115125 52.8414541,22.2625196" id="Fill-11" fill="#A58861"></path>
                <path d="M65.0584571,30.791604 L66.7868892,32.1775749 C66.0934185,32.9966592 66.2402711,34.1839966 67.4197541,35.1291797 C68.4244126,35.9354309 69.4273227,36.0403272 70.0217262,35.3601748 C71.8171744,33.3074425 65.3847963,30.9656873 68.5939924,27.296547 C69.8399087,25.8720768 72.0397843,25.650009 74.1038796,27.3049163 C75.8859245,28.7338501 76.6149429,30.846284 75.0298669,32.7623163 L73.247822,31.3333825 C73.8847661,30.5784636 73.7734611,29.6377442 72.76822,28.831493 C71.7769647,28.036401 70.8789493,28.1245586 70.3853613,28.6886554 C68.7472552,30.5622828 75.1458339,33.0730996 71.9698545,36.7042988 C70.5782511,38.2950408 68.2484225,38.456849 65.9966823,36.6518506 C63.8527505,34.932778 63.4984394,32.574842 65.0584571,30.791604" id="Fill-13" fill="#A58861"></path>
                <polygon id="Fill-15" fill="#A58861" points="79.6755421 33.7349398 81.2625489 35.3964129 79.0799534 44.0969236 79.1458371 44.1657107 84.6120767 38.9019097 86.0240964 40.3803033 78.0353013 48.0722892 76.437226 46.3991751 78.6419585 37.7214171 78.5766018 37.65263 73.1098351 42.916431 71.686747 41.4269256"></polygon>
                <polygon id="Fill-17" fill="#A58861" points="89.274274 43.0120482 93.6144578 48.5467547 92.1104119 49.6945851 89.1155473 45.8759149 86.8404643 47.6126133 89.3999327 50.876671 87.909114 52.0147141 85.3496456 48.7506564 82.969847 50.5672842 86.0655693 54.5148202 84.5615233 55.6626506 80.1204819 49.9990782"></polygon>
                <polygon id="Fill-19" fill="#A58861" points="95.0520842 52.2891566 96.1445783 54.1113601 88.6383333 59.1897032 90.9630058 63.0664209 89.4412629 64.0963855 86.0240964 58.3969229"></polygon>
                <polygon id="Fill-21" fill="#A58861" points="101.834899 60.7228916 102.891566 62.7410801 93.9528449 67.3094888 96.2010722 71.6044766 94.3886551 72.5301205 91.0843373 66.2169442"></polygon>
                <polygon id="Fill-23" fill="#A58861" points="106.108937 70 108.795181 77.0065585 107.019716 77.7684858 105.165947 72.9343305 102.479702 74.0869144 104.064125 78.2184752 102.303655 78.9739404 100.719232 74.8417922 97.9096995 76.0472469 99.8256686 81.0453017 98.0502039 81.8072289 95.3012048 74.6373583"></polygon>
                <polygon id="Fill-25" fill="#A58861" points="109.590287 80.1204819 110.235019 82.4736638 104.098986 89.5579562 104.125467 89.6552555 111.594739 87.4393051 112.168675 89.5326471 101.252546 92.7710843 100.604031 90.4015921 106.748711 83.3499204 106.721689 83.2520586 99.2524176 85.4680091 98.6746988 83.3583567"></polygon>
                <path d="M109.706071,99.0885722 C109.879257,100.058009 110.613151,100.562869 111.526518,100.41893 C112.405591,100.279825 112.886852,99.5665772 112.721668,98.6449406 L112.389015,96.7855547 L109.379134,97.2614114 L109.706071,99.0885722 Z M104.657976,99.9350171 C104.843164,100.96783 105.514757,101.613406 106.681901,101.429186 C107.848473,101.244966 108.202274,100.306679 108.029088,99.3372422 L107.705009,97.5256569 L104.323037,98.0600558 L104.657976,99.9350171 Z M113.885382,94.4578313 L114.622134,98.5735084 C115.008515,100.734199 113.897385,102.200976 112.121521,102.481334 C111.039541,102.652664 110.069017,102.282613 109.436291,101.565605 L109.335123,101.581718 C109.144219,102.363712 108.46691,103.434658 106.893953,103.683328 C104.712275,104.027599 103.170754,102.604326 102.840959,100.76159 L102.048193,96.3279589 L113.885382,94.4578313 Z" id="Fill-27" fill="#A58861"></path>
                <polygon id="Fill-29" fill="#A58861" points="115.060925 105.421687 115.542169 112.84261 113.681541 112.980774 113.349537 107.860065 110.533992 108.069333 110.817871 112.445464 108.973465 112.582471 108.689585 108.205762 105.744807 108.424279 106.088167 113.717259 104.227538 113.855422 103.73494 106.26165"></polygon>
                <g id="Group-33" transform="translate(103.734940, 116.385542)">
                    <mask id="mask-2" fill="white">
                        <use xlink:href="#path-1"></use>
                    </mask>
                    <g id="Clip-32"></g>
                    <path d="M6.50977999,4.7281056 C6.4784285,5.80807016 7.09885804,6.62772998 8.31936616,6.66265556 C9.35836564,6.69212403 10.1372027,6.0099837 10.1718544,4.79904819 L10.226857,2.88468958 L6.56588266,2.78154996 L6.50977999,4.7281056 Z M12.1695495,0.761323175 L12.0463436,5.0484387 C11.9786904,7.38845287 10.4320168,8.94918994 8.2550131,8.88807016 C6.65553693,8.84277605 5.46198009,7.87577392 4.95265584,6.64955847 L0.378088004,9.04141531 L0.447941331,6.60426435 L4.6325406,4.5769433 L4.68589314,2.72807016 L0.562346778,2.61128774 L0.625049764,0.435532955 L12.1695495,0.761323175 Z" id="Fill-31" fill="#A58861" mask="url(#mask-2)"></path>
                </g>
                <path d="M109.652787,128.263076 C112.960886,128.746345 115.127347,131.565053 114.627103,135.015812 C114.213929,137.869272 112.21728,139.652481 109.864782,139.934297 L110.205488,137.580396 C111.395258,137.29315 112.361134,136.282086 112.587731,134.717706 C112.907887,132.508786 111.498551,130.804855 109.330467,130.488286 C107.130476,130.166831 105.277681,131.411384 104.957525,133.619762 C104.691449,135.458356 105.569174,136.985269 106.974724,137.355595 L107.493356,133.776145 L109.259622,134.03407 L108.395417,140 C104.399415,139.515102 102.475775,136.714856 102.966825,133.329257 C103.468691,129.862751 106.31278,127.775463 109.652787,128.263076" id="Fill-34" fill="#A58861"></path>
            </g>
        </g>
    </g>
</svg>