<?xml version="1.0" standalone="no"?>
<!DOCTYPE svg PUBLIC "-//W3C//DTD SVG 20010904//EN"
 "http://www.w3.org/TR/2001/REC-SVG-20010904/DTD/svg10.dtd">
<svg version="1.0" xmlns="http://www.w3.org/2000/svg"
 width="1200.000000pt" height="1200.000000pt" viewBox="0 0 1200.000000 1200.000000"
 preserveAspectRatio="xMidYMid meet">

<g transform="translate(0.000000,1200.000000) scale(0.100000,-0.100000)"
fill="#000000" stroke="none">
<path d="M7251 7025 c-26 -12 -31 -19 -26 -32 5 -10 10 -75 13 -146 l4 -127
-33 33 c-84 84 -265 42 -326 -77 -28 -54 -43 -129 -43 -217 0 -136 38 -231
109 -273 43 -25 142 -27 187 -3 36 18 89 76 99 106 8 25 25 18 25 -9 0 -64 72
-129 128 -115 51 12 72 33 72 70 0 32 -3 35 -28 35 -15 0 -33 5 -40 12 -9 9
-12 102 -12 359 0 316 -2 349 -17 368 -24 28 -70 35 -112 16z m-59 -315 c77
-60 55 -354 -33 -442 -29 -30 -82 -38 -118 -18 -35 18 -53 87 -54 205 -1 190
41 275 137 275 28 0 52 -7 68 -20z"/>
<path d="M3905 7001 c-86 -14 -98 -20 -89 -44 4 -12 9 -185 11 -384 5 -427 -5
-396 129 -402 181 -7 325 32 380 104 23 31 29 50 32 105 2 38 -1 84 -8 104
-14 44 -76 99 -131 115 l-42 13 50 28 c63 36 93 91 93 169 0 97 -39 144 -144
176 -60 18 -213 27 -281 16z m205 -59 c50 -25 75 -74 75 -147 -1 -110 -53
-165 -157 -165 l-58 0 0 165 0 165 53 0 c30 0 67 -8 87 -18z m29 -380 c56 -28
75 -63 79 -146 7 -133 -53 -196 -186 -196 l-62 0 0 180 0 180 68 0 c44 0 79
-6 101 -18z"/>
<path d="M4630 6793 c-33 -13 -50 -37 -50 -72 0 -34 2 -36 33 -36 l32 0 5
-237 c5 -230 6 -238 28 -260 16 -17 33 -22 63 -22 57 2 72 19 58 69 -14 50 -6
356 10 409 7 21 23 49 36 62 30 30 80 32 95 5 12 -24 13 -91 0 -111 -12 -19 5
-30 47 -30 45 0 62 9 78 41 30 58 10 136 -43 163 -96 49 -196 14 -234 -83 -10
-25 -11 -24 -24 21 -8 28 -24 54 -37 63 -27 17 -76 27 -97 18z"/>
<path d="M5493 6790 c-67 -14 -110 -39 -153 -88 -49 -56 -70 -121 -70 -223 0
-110 23 -172 85 -234 74 -74 174 -99 284 -71 92 23 151 78 151 139 0 34 -7 34
-32 2 -50 -64 -169 -85 -249 -44 -31 15 -46 33 -65 72 -13 29 -24 66 -24 82
l0 31 67 -4 c85 -6 193 14 235 42 56 37 80 83 76 142 -6 66 -34 106 -95 132
-57 24 -152 34 -210 22z m132 -65 c20 -19 25 -34 25 -77 0 -29 -6 -64 -13 -78
-19 -40 -91 -70 -164 -70 -35 0 -63 3 -63 8 0 40 25 144 41 172 40 71 126 93
174 45z"/>
<path d="M6050 6793 c-33 -12 -50 -37 -50 -74 0 -35 1 -37 33 -35 l32 1 5
-237 c5 -230 6 -238 28 -260 16 -17 33 -22 63 -22 55 2 72 20 59 64 -17 59
-12 305 7 373 23 82 66 127 122 127 86 0 101 -46 101 -315 0 -220 4 -238 59
-250 17 -4 44 0 66 9 30 13 36 19 29 33 -4 10 -10 115 -14 233 -7 233 -14 265
-65 313 -52 47 -156 57 -226 21 -31 -16 -77 -67 -91 -103 -11 -25 -11 -25 -19
16 -11 60 -26 83 -64 99 -36 15 -50 16 -75 7z"/>
<path d="M7860 6794 c-117 -23 -170 -66 -170 -139 0 -63 31 -96 96 -102 64 -5
83 6 60 38 -25 37 -21 105 9 134 44 45 137 27 164 -32 8 -15 16 -60 19 -99 l4
-71 -68 -8 c-191 -20 -314 -103 -314 -212 0 -91 54 -138 155 -137 88 1 172 52
213 129 l15 30 13 -48 c17 -67 38 -94 83 -108 73 -22 136 17 129 79 -3 24 -7
27 -35 24 -18 -2 -35 2 -40 10 -4 7 -10 94 -13 193 -5 168 -7 183 -30 223 -32
57 -99 90 -195 96 -38 2 -81 2 -95 0z m184 -361 c-18 -100 -97 -183 -173 -183
-38 0 -61 31 -61 82 0 74 86 135 193 137 l48 1 -7 -37z"/>
</g>
</svg>
