<?xml version="1.0" standalone="no"?>
<!DOCTYPE svg PUBLIC "-//W3C//DTD SVG 20010904//EN"
 "http://www.w3.org/TR/2001/REC-SVG-20010904/DTD/svg10.dtd">
<svg version="1.0" xmlns="http://www.w3.org/2000/svg"
 width="1200.000000pt" height="1200.000000pt" viewBox="0 0 1200.000000 1200.000000"
 preserveAspectRatio="xMidYMid meet">
<metadata>
Created by potrace 1.15, written by Peter Selinger 2001-2017
</metadata>
<g transform="translate(0.000000,1200.000000) scale(0.100000,-0.100000)"
fill="#000000" stroke="none">
<path d="M7251 7025 c-26 -12 -31 -19 -26 -32 5 -10 10 -75 13 -146 l4 -127
-33 33 c-63 63 -195 58 -271 -11 -74 -67 -103 -161 -96 -314 3 -80 8 -104 33
-154 47 -93 127 -130 224 -104 49 13 113 67 131 110 15 36 25 32 33 -14 8 -51
35 -84 77 -97 32 -10 44 -9 77 7 33 16 38 24 41 57 3 35 2 37 -25 37 -16 0
-34 5 -41 12 -9 9 -12 102 -12 359 0 316 -2 349 -17 368 -24 28 -70 35 -112
16z m-59 -315 c37 -29 52 -95 45 -203 -10 -164 -65 -267 -144 -267 -78 0 -107
59 -106 220 0 186 43 270 137 270 28 0 52 -7 68 -20z"/>
<path d="M3905 7001 c-86 -14 -98 -20 -89 -44 4 -12 9 -185 11 -384 5 -427 -5
-396 129 -402 111 -4 235 13 299 43 52 23 96 70 110 114 10 35 8 118 -5 157
-14 42 -81 101 -124 111 -49 10 -50 15 -6 36 115 57 138 257 36 319 -72 44
-245 68 -361 50z m205 -59 c50 -25 75 -74 74 -147 -1 -111 -52 -165 -156 -165
l-58 0 0 165 0 165 53 0 c30 0 67 -8 87 -18z m29 -380 c57 -28 75 -63 79 -147
4 -62 1 -80 -19 -114 -30 -55 -85 -81 -167 -81 l-62 0 0 180 0 180 68 0 c44 0
79 -6 101 -18z"/>
<path d="M4630 6793 c-33 -13 -50 -37 -50 -72 0 -34 2 -36 33 -36 l32 0 5
-235 c3 -129 9 -242 13 -252 12 -24 61 -41 96 -33 44 9 52 24 40 70 -14 50 -6
356 10 409 7 21 23 49 36 62 30 30 80 32 95 5 12 -24 13 -91 0 -111 -12 -19 5
-30 47 -30 45 0 62 9 78 41 30 58 10 136 -43 163 -96 49 -196 14 -234 -83 -10
-25 -11 -24 -24 21 -8 28 -24 54 -37 63 -27 17 -76 27 -97 18z"/>
<path d="M5471 6785 c-133 -37 -201 -141 -201 -305 0 -113 21 -172 83 -235 62
-61 117 -81 222 -79 119 2 215 68 215 146 0 35 -7 35 -32 3 -52 -67 -175 -86
-253 -40 -45 26 -85 97 -85 152 l0 28 108 0 c79 0 119 5 154 18 51 20 104 72
114 113 10 39 -2 100 -25 132 -44 63 -195 96 -300 67z m154 -60 c20 -19 25
-34 25 -75 0 -68 -22 -107 -73 -131 -43 -19 -151 -26 -161 -10 -10 15 15 135
35 171 40 71 126 93 174 45z"/>
<path d="M6050 6793 c-33 -12 -50 -37 -50 -74 0 -35 1 -37 33 -35 l32 1 5
-235 c3 -129 9 -242 13 -252 12 -24 61 -41 96 -33 44 9 52 24 40 70 -6 22 -9
103 -7 194 3 138 6 162 27 209 30 66 62 92 112 92 84 0 99 -48 99 -315 0 -220
4 -238 59 -250 17 -4 44 0 66 9 30 13 36 19 29 33 -4 10 -10 115 -14 233 -5
196 -8 219 -29 262 -32 67 -77 92 -161 92 -41 0 -77 -6 -96 -17 -36 -18 -81
-68 -96 -106 -11 -25 -11 -25 -19 16 -11 60 -26 83 -64 99 -36 15 -50 16 -75
7z"/>
<path d="M7830 6787 c-100 -23 -140 -61 -140 -133 0 -62 31 -95 96 -101 64 -5
83 6 60 38 -25 37 -21 105 9 134 44 45 137 27 164 -32 8 -15 16 -60 19 -99 l4
-71 -68 -8 c-191 -20 -314 -103 -314 -212 0 -91 54 -138 155 -137 88 1 172 52
213 129 l15 30 13 -48 c17 -67 38 -94 83 -108 73 -22 136 17 129 79 -3 24 -7
27 -35 24 -18 -2 -35 2 -40 10 -4 7 -10 94 -13 193 -5 166 -7 183 -28 220 -27
45 -51 64 -101 83 -52 19 -159 23 -221 9z m214 -354 c-18 -100 -97 -183 -173
-183 -38 0 -61 31 -61 82 0 74 86 135 193 137 l48 1 -7 -37z"/>
</g>
</svg>
