<?xml version="1.0" encoding="UTF-8"?>
<svg width="137px" height="44px" viewBox="0 0 137 44" version="1.1" xmlns="http://www.w3.org/2000/svg" xmlns:xlink="http://www.w3.org/1999/xlink">
    <!-- Generator: Sketch 62 (91390) - https://sketch.com -->
    <title>Logo</title>
    <desc>Created with Sketch.</desc>
    <defs>
        <polygon id="path-1" points="0 0.351356354 43.5770331 0.351356354 43.5770331 43.5969267 0 43.5969267"></polygon>
    </defs>
    <g id="Design" stroke="none" stroke-width="1" fill="none" fill-rule="evenodd">
        <g id="About-me" transform="translate(-788.000000, -2157.000000)">
            <g id="Logo" transform="translate(788.000000, 2157.000000)">
                <g id="Name" transform="translate(50.600000, 12.466667)" fill="#191A1E">
                    <path d="M8.54411348,1.30266168e-15 L8.54411348,11.753617 C8.54411348,12.4822695 8.7329078,13.0034043 9.46156028,13.0658156 L9.71120567,13.0876596 L9.71120567,14.4841135 C9.71120567,14.4841135 9.27276596,14.8382979 8.54411348,14.8382979 C7.48156028,14.8382979 6.85588652,14.2329078 6.60624113,13.2124823 L6.48141844,13.2124823 C5.91815603,14.0659574 4.93829787,14.8382979 3.54340426,14.8382979 C1.52283688,14.8382979 5.21064673e-15,13.3778723 5.21064673e-15,9.6893617 L5.21064673e-15,8.81404255 C5.21064673e-15,5.16921986 1.60553191,3.5012766 4.02241135,3.5012766 C5.10524823,3.5012766 5.89787234,3.87574468 6.41900709,4.27205674 L6.46113475,4.27205674 L6.46113475,1.56340426 L5.10524823,1.24978723 L5.10524823,1.30266168e-15 L8.54411348,1.30266168e-15 Z M2.08453901,9.52397163 C2.08453901,12.0032624 2.71021277,13.0658156 4.12695035,13.0658156 C5.06468085,13.0658156 5.89787234,12.3371631 6.46113475,11.6287943 L6.46113475,5.96028369 C6.33475177,5.87758865 5.4812766,5.27219858 4.4187234,5.27219858 C3.04255319,5.27219858 2.08453901,6.18964539 2.08453901,8.93886525 L2.08453901,9.52397163 Z" id="Fill-1"></path>
                    <path d="M12.6063121,9.89875177 C12.6063121,12.1705248 13.4395035,13.0661277 15.4195035,13.0661277 C16.6068794,13.0661277 17.731844,12.5871206 17.8785106,12.5449929 L18.1078723,12.6698156 C18.1078723,12.732227 18.2108511,13.4624397 18.2748227,14.0865532 C18.2108511,14.1286809 16.9829078,14.8386099 15.0231915,14.8386099 C12.105461,14.8386099 10.521773,13.1706667 10.521773,9.48215603 L10.521773,8.75194326 C10.521773,5.43946099 12.2942553,3.50158865 14.7938298,3.50158865 L14.8983688,3.50158865 C17.2122695,3.50158865 18.6492908,4.91832624 18.6492908,7.81577305 L18.6492908,8.14811348 C18.6492908,8.85648227 18.4823404,9.89875177 18.4823404,9.89875177 L12.6063121,9.89875177 Z M12.6063121,8.3369078 L16.6692908,8.3369078 L16.6692908,7.60669504 C16.6692908,5.81392908 15.878227,5.27251064 14.8562411,5.27251064 L14.7517021,5.27251064 C13.6267376,5.27251064 12.6063121,6.06357447 12.6063121,7.94059574 L12.6063121,8.3369078 Z" id="Fill-3"></path>
                    <polygon id="Fill-5" points="24.3777163 5.3146383 23.1700567 5.62669504 24.5040993 10.0017305 25.1282128 12.5028652 25.2951631 12.5028652 25.9192766 10.0017305 27.2330355 5.62669504 26.0440993 5.3146383 26.0440993 3.75123404 30.547078 3.75123404 30.547078 5.3146383 29.2957305 5.62669504 26.565234 14.5874043 23.8581418 14.5874043 21.1058014 5.62669504 19.8778582 5.3146383 19.8778582 3.75123404 24.3777163 3.75123404"></polygon>
                    <path d="M35.1291631,12.7116312 L36.7955461,13.0236879 L36.7955461,14.5870922 L31.3782411,14.5870922 L31.3782411,13.0236879 L33.0461844,12.7116312 L33.0461844,5.62638298 L31.5873191,5.31432624 L31.5873191,3.75092199 L35.1291631,3.75092199 L35.1291631,12.7116312 Z M34.0868936,1.17239551e-14 C34.8373901,1.17239551e-14 35.3585248,0.418156028 35.3585248,1.18893617 C35.3585248,1.93943262 34.8373901,2.35446809 34.0868936,2.35446809 C33.3161135,2.35446809 32.7949787,1.93943262 32.7949787,1.18893617 C32.7949787,0.418156028 33.3161135,1.17239551e-14 34.0868936,1.17239551e-14 L34.0868936,1.17239551e-14 Z" id="Fill-7"></path>
                    <path d="M37.6287376,3.75139007 L39.0876028,3.75139007 L39.6087376,1.25025532 L41.1721418,1.25025532 L41.1721418,3.75139007 L43.7762553,3.75139007 L43.7762553,5.52231206 L41.1721418,5.52231206 L41.1721418,11.4201844 C41.1721418,12.6699716 41.629305,13.0662837 42.5046241,13.0662837 C43.1100142,13.0662837 43.5671773,12.9617447 43.5671773,12.9617447 L43.7762553,13.0662837 L43.7762553,14.5672766 C43.7762553,14.5672766 43.1302979,14.8372057 42.1925674,14.8372057 C39.941078,14.8372057 39.0876028,13.7122411 39.0876028,11.4404681 L39.0876028,5.52231206 L37.6287376,5.52231206 L37.6287376,3.75139007 Z" id="Fill-9"></path>
                    <path d="M45.7334752,6.77287943 L45.7334752,3.95968794 C45.7334752,3.95968794 47.2344681,3.50096454 48.7339007,3.50096454 C52.046383,3.50096454 53.2134752,4.85529078 53.2134752,7.67004255 L53.2134752,11.753305 C53.2134752,12.6504681 53.5270922,13.0233759 54.130922,13.0655035 L54.3805674,13.0873475 L54.3805674,14.4838014 C54.3805674,14.4838014 53.9436879,14.8379858 53.2134752,14.8379858 C52.172766,14.8379858 51.5065248,14.2544397 51.2553191,13.1091915 L51.1929078,13.1091915 C50.6093617,14.0656454 49.5889362,14.8379858 48.108227,14.8379858 C46.1703546,14.8379858 44.9829787,13.3369929 44.9829787,11.5660709 L44.9829787,11.4615319 C44.9829787,9.52365957 46.0034043,8.39869504 48.108227,8.12876596 L51.1304965,7.75273759 L51.1304965,7.60607092 C51.1304965,6.06451064 50.506383,5.27344681 48.4421277,5.27344681 C48.1300709,5.27344681 47.7961702,5.31401418 47.5043972,5.35614184 L47.2953191,6.77287943 L45.7334752,6.77287943 Z M51.1304965,11.6284823 L51.1304965,9.16947518 L48.8384397,9.48153191 C47.6510638,9.64848227 47.0659574,10.2117447 47.0659574,11.2540142 L47.0659574,11.3569929 C47.0659574,12.4211064 47.7337589,13.0655035 48.7339007,13.0655035 C49.6934752,13.0655035 50.5469504,12.3992624 51.1304965,11.6284823 L51.1304965,11.6284823 Z" id="Fill-11"></path>
                    <polygon id="Fill-13" points="58.7139433 12.7116312 60.3803262 13.0236879 60.3803262 14.5870922 54.9630213 14.5870922 54.9630213 13.0236879 56.6309645 12.7116312 56.6309645 1.56340426 55.275078 1.25134752 55.275078 1.17239551e-14 58.7139433 1.17239551e-14"></polygon>
                    <path d="M63.4854468,9.89875177 C63.4854468,12.1705248 64.3186383,13.0661277 66.2986383,13.0661277 C67.4860142,13.0661277 68.612539,12.5871206 68.7576454,12.5449929 L68.9870071,12.6698156 C68.9870071,12.732227 69.0915461,13.4624397 69.1539574,14.0865532 C69.0915461,14.1286809 67.8620426,14.8386099 65.9023262,14.8386099 C62.9845957,14.8386099 61.4009078,13.1706667 61.4009078,9.48215603 L61.4009078,8.75194326 C61.4009078,5.43946099 63.1733901,3.50158865 65.6729645,3.50158865 L65.7775035,3.50158865 C68.089844,3.50158865 69.5284255,4.91832624 69.5284255,7.81577305 L69.5284255,8.14811348 C69.5284255,8.85648227 69.3614752,9.89875177 69.3614752,9.89875177 L63.4854468,9.89875177 Z M63.4854468,8.3369078 L67.5484255,8.3369078 L67.5484255,7.60669504 C67.5484255,5.81392908 66.7573617,5.27251064 65.7353759,5.27251064 L65.6308369,5.27251064 C64.5058723,5.27251064 63.4854468,6.06357447 63.4854468,7.94059574 L63.4854468,8.3369078 Z" id="Fill-15"></path>
                    <path d="M74.2359574,5.00164539 L74.2578014,5.00164539 C74.7976596,4.12632624 75.5497163,3.50221277 76.9243262,3.50221277 C77.1739716,3.50221277 77.5078723,3.56462411 77.5078723,3.56462411 L77.340922,5.37611348 L77.0694326,5.54462411 C77.0694326,5.54462411 76.7995035,5.48065248 76.4858865,5.48065248 C75.5902837,5.48065248 74.8616312,5.93937589 74.5074468,6.62746099 L74.5074468,12.7110071 L76.3813475,13.0246241 L76.3813475,14.5880284 L70.9640426,14.5880284 L70.9640426,13.0246241 L72.4229078,12.7110071 L72.4229078,5.62731915 L70.9640426,5.31526241 L70.9640426,3.75185816 L73.6742553,3.75185816 L74.2359574,5.00164539 Z" id="Fill-17"></path>
                    <path d="M78.6319007,11.6701418 L80.4028227,11.6701418 L80.6524681,13.0026241 C80.9660851,13.0447518 81.2781418,13.0665957 81.6323262,13.0665957 C83.2799858,13.0665957 83.946227,12.4612057 83.946227,11.4189362 C83.946227,10.67 83.5499149,10.2534043 82.258,9.98191489 L81.0690638,9.7322695 C79.3605532,9.37808511 78.424383,8.5651773 78.424383,6.77241135 C78.424383,4.87666667 79.7771489,3.50205674 82.6948794,3.50205674 C83.7995603,3.50205674 85.0914752,3.77198582 85.0914752,3.77198582 L85.0914752,6.77241135 L83.5296312,6.77241135 L83.2581418,5.31510638 C83.2581418,5.31510638 82.9882128,5.27297872 82.6948794,5.27297872 C80.9660851,5.27297872 80.5073617,5.91737589 80.5073617,6.77241135 C80.5073617,7.48078014 80.9239574,7.8770922 81.7992766,8.06432624 L83.1333191,8.3358156 C85.1757305,8.75241135 86.030766,9.8570922 86.030766,11.4189362 C86.030766,13.5877305 84.7388511,14.8375177 81.7571489,14.8375177 C80.0486383,14.8375177 78.6319007,14.4412057 78.6319007,14.4412057 L78.6319007,11.6701418 Z" id="Fill-19"></path>
                </g>
                <g id="Icon">
                    <mask id="mask-2" fill="white">
                        <use xlink:href="#path-1"></use>
                    </mask>
                    <g id="Clip-25"></g>
                    <path d="M40.1704137,31.5978251 C39.2030378,32.5652009 37.9184043,33.0969976 36.5505556,33.0969976 C35.1827069,33.0969976 33.896773,32.5652009 32.9332979,31.6017258 C32.9267967,31.5952246 32.9020922,31.5692199 32.8968913,31.5627187 C32.8799882,31.5458156 32.8630851,31.5302128 32.8448818,31.5146099 L23.3063475,21.9747754 L32.8526832,12.4271395 C32.8643853,12.4167376 32.8760875,12.4050355 32.8864894,12.3946336 L32.9215957,12.3595272 C33.8876714,11.3921513 35.1736052,10.8590544 36.5401537,10.8590544 C37.9080024,10.8590544 39.1939362,11.3921513 40.1613121,12.3595272 C42.1571749,14.3553901 42.1571749,17.6033806 40.1613121,19.5992435 C39.3928723,20.3676832 38.4202955,20.8643735 37.3489007,21.0347045 C36.8847163,21.1075177 36.5427541,21.5079905 36.5427541,21.9786761 C36.5427541,22.4480615 36.8860165,22.8485343 37.3502009,22.9213475 C38.4241962,23.0916785 39.3993735,23.5870686 40.1704137,24.3568085 C42.1662766,26.3526714 42.1662766,29.6006619 40.1704137,31.5978251 M31.5797518,40.1910875 C29.5812884,42.1882506 26.3332979,42.1856501 24.337435,40.1897872 C23.567695,39.418747 23.0710047,38.4435697 22.901974,37.3708747 C22.8291608,36.9053901 22.4286879,36.5634279 21.9593026,36.5634279 L21.9580024,36.5634279 C21.488617,36.5634279 21.0881442,36.9053901 21.015331,37.3682742 C20.845,38.4409693 20.3496099,39.4135461 19.5811702,40.1819858 C17.5840071,42.1778487 14.3360165,42.1778487 12.3401537,40.1819858 C10.3442908,38.1848227 10.3442908,34.9368322 12.3167494,32.9630733 C12.3284515,32.9526714 12.3635579,32.9201655 12.37526,32.9084634 C12.3843617,32.8993617 12.3934634,32.8889598 12.4038652,32.8798582 L21.9554019,23.3270213 L23.2894444,24.6597636 L31.4952364,32.8668558 C31.5082388,32.8811584 31.5212411,32.895461 31.5342435,32.9084634 L31.5797518,32.9500709 C33.5743144,34.9459338 33.5743144,38.1939243 31.5797518,40.1910875 M7.26923168,33.0904965 C5.83767139,33.0904965 4.49062648,32.532695 3.47774232,31.5185106 C2.46745863,30.508227 1.91095745,29.1624823 1.91095745,27.7283215 C1.91095745,26.295461 2.46745863,24.9484161 3.47774232,23.9381324 C3.9237234,23.4934515 4.46462175,23.1267849 5.08743499,22.8485343 C5.4306974,22.6951064 5.65303783,22.3544444 5.65303783,21.9773759 C5.65433806,21.6003073 5.43199764,21.2583452 5.08873522,21.1049173 C4.46852246,20.8266667 3.92892435,20.4613002 3.48684397,20.0179196 C2.47395981,19.0050355 1.91615839,17.6592908 1.91615839,16.2277305 C1.91745863,14.7961702 2.47395981,13.4491253 3.48684397,12.4375414 C4.4984279,11.4246572 5.84547281,10.8668558 7.2770331,10.8668558 C8.69299054,10.8668558 10.0348345,11.423357 11.0646217,12.4349409 L20.6044563,21.9747754 L11.1049291,31.4717021 C11.088026,31.4899054 11.0724232,31.5055083 11.0581206,31.5185106 C10.0465366,32.5313948 8.70079196,33.0891962 7.26923168,33.0904965 M12.3297518,3.75846336 C14.3256147,1.76260047 17.5736052,1.76260047 19.5707683,3.75846336 C20.3405083,4.52820331 20.8371986,5.50468085 21.0062293,6.57867612 C21.0790426,7.04416076 21.4795154,7.38612293 21.9489007,7.38612293 L21.9502009,7.38612293 C22.4195863,7.38612293 22.8200591,7.04546099 22.8928723,6.5812766 C23.0645035,5.50858156 23.5611939,4.53600473 24.3283333,3.76626478 C26.3254965,1.77040189 29.5721868,1.77170213 31.5693499,3.76626478 C33.5652128,5.7634279 33.5652128,9.01141844 31.5836525,10.994279 C31.5732506,11.0033806 31.5433452,11.0306856 31.5342435,11.0410875 C31.5225414,11.0514894 31.5108392,11.0644917 31.5017376,11.0748936 L21.9541017,20.6225296 L12.4142671,11.082695 C12.3986643,11.0644917 12.3817612,11.0475887 12.3648582,11.0319858 L12.3297518,10.9981797 C10.3351891,9.00231678 10.3351891,5.75432624 12.3297518,3.75846336 M41.5213593,23.0058629 C41.123487,22.6079905 40.6853073,22.2634279 40.215922,21.9760757 C40.6827069,21.6887234 41.1169858,21.3467612 41.5122577,20.9514894 C44.253156,18.210591 44.253156,13.7494799 41.5122577,11.0085816 C40.1847163,9.67973995 38.4189953,8.94900709 36.5401537,8.94900709 C35.9251418,8.94900709 35.3231324,9.02832151 34.743227,9.18044917 C35.3569385,6.84132388 34.7510284,4.24605201 32.9202955,2.41531915 C30.1780969,-0.325579196 25.7182861,-0.325579196 22.9773877,2.41661939 C22.5821158,2.81189125 22.2388534,3.24617021 21.9528014,3.71425532 C21.6654492,3.24356974 21.3195863,2.80539007 20.9217139,2.40751773 C18.1795154,-0.334680851 13.7197045,-0.333380615 10.9788061,2.40751773 C9.14027187,4.24605201 8.53696217,6.85952719 9.1662766,9.20775414 C8.55646572,9.04262411 7.92195035,8.95550827 7.2770331,8.95550827 C5.33447991,8.95550827 3.50894799,9.71224586 2.13589835,11.0865957 C0.761548463,12.4596454 0.00611111111,14.2851773 0.0048108747,16.2277305 C0.0048108747,18.1702837 0.761548463,19.9958156 2.13459811,21.3688652 C2.35173759,21.5860047 2.58317967,21.7875414 2.82892435,21.9747754 C2.57927896,22.1646099 2.34523641,22.368747 2.12679669,22.5871868 C0.755047281,23.9589362 -0.000390070922,25.7844681 -0.000390070922,27.7283215 C-0.000390070922,29.6734752 0.755047281,31.4990071 2.12679669,32.8707565 C3.49984634,34.2438061 5.32667849,35.0005437 7.26923168,35.0005437 C7.92065012,35.0005437 8.55906619,34.9134279 9.17147754,34.7482979 C8.54996454,37.0939243 9.15457447,39.6982979 10.989208,41.5329314 C13.7301064,44.2738298 18.1912175,44.2738298 20.9334161,41.5329314 C21.3273877,41.1376596 21.6706501,40.7020804 21.9567021,40.2365957 C22.2440544,40.7046809 22.588617,41.1428605 22.9864894,41.5407329 C24.3569385,42.9124823 26.157766,43.5977069 27.9585934,43.5977069 C29.7594208,43.5977069 31.558948,42.9124823 32.9306974,41.5420331 C34.76013,39.7113002 35.3660402,37.1160284 34.7523286,34.7769031 C35.332234,34.9290307 35.9355437,35.0083452 36.5505556,35.0083452 C38.4280969,35.0083452 40.193818,34.2776123 41.5213593,32.9487707 C44.2622577,30.2078723 44.2622577,25.7467612 41.5213593,23.0058629" id="Fill-24" fill="#191A1E" mask="url(#mask-2)"></path>
                </g>
            </g>
        </g>
    </g>
</svg>