<?xml version="1.0" encoding="UTF-8"?>
<svg width="148px" height="28px" viewBox="0 0 148 28" version="1.1" xmlns="http://www.w3.org/2000/svg" xmlns:xlink="http://www.w3.org/1999/xlink">
    <!-- Generator: Sketch 58 (84663) - https://sketch.com -->
    <title>image-logo-header</title>
    <desc>Created with Sketch.</desc>
    <defs>
        <polygon id="path-1" points="14.6666667 14.8822222 14.6666667 0.191111111 0.144 0.191111111 0.144 14.8817778 14.6666667 14.8817778"></polygon>
    </defs>
    <g id="Design" stroke="none" stroke-width="1" fill="none" fill-rule="evenodd">
        <g id="About-me" transform="translate(-234.000000, -2359.000000)">
            <g id="image-logo-header" transform="translate(234.000000, 2359.000000)">
                <path d="M32.8337778,1.00888889 L36.3173333,1.00888889 L40.1777778,7.22 L44.04,1.00888889 L47.5244444,1.00888889 L47.5244444,15.6991111 L44.3133333,15.6991111 L44.3133333,6.108 L40.1777778,12.3835556 L40.0942222,12.3835556 L36.0017778,6.17111111 L36.0017778,15.6991111 L32.8328889,15.6991111 L32.8337778,1.00888889 Z M62.6328889,8.39555556 L62.6328889,8.35377778 C62.6328889,5.83511111 60.7862222,3.736 58.184,3.736 C55.5813333,3.736 53.7768889,5.79377778 53.7768889,8.31155556 L53.7768889,8.35422222 C53.7768889,10.8724444 55.6235556,12.9706667 58.2257778,12.9706667 C60.828,12.9706667 62.6328889,10.9142222 62.6328889,8.396 M50.3973333,8.396 L50.3973333,8.35422222 C50.3973333,4.17777778 53.6924444,0.756888889 58.2253333,0.756888889 C62.7586667,0.756888889 66.012,4.136 66.012,8.31244444 L66.012,8.35422222 C66.012,12.5302222 62.7168889,15.9511111 58.1835556,15.9511111 C53.6502222,15.9511111 50.3977778,12.5715556 50.3977778,8.39555556 M68.8853333,1.00888889 L71.8657778,1.00888889 L78.7488889,10.0533333 L78.7488889,1.00888889 L81.9391111,1.00888889 L81.9391111,15.6995556 L79.1902222,15.6995556 L72.0755556,6.36 L72.0755556,15.6991111 L68.8853333,15.6991111 L68.8853333,1.00888889 Z M88.8844444,3.988 L84.4142222,3.988 L84.4142222,1.008 L96.5866667,1.008 L96.5866667,3.988 L92.1164444,3.988 L92.1164444,15.6991111 L88.8844444,15.6991111 L88.8844444,3.988 Z M97.9288889,1.00844444 L101.391111,1.00844444 L104.435556,10.9551111 L107.728889,0.965777778 L110.5,0.965777778 L113.794222,10.9555556 L116.837778,1.00888889 L120.215556,1.00888889 L115.2,15.8044444 L112.388444,15.8044444 L109.072889,6.192 L105.757333,15.804 L102.944,15.804 L97.9288889,1.00844444 Z M128.945333,9.54888889 L126.993333,4.78444444 L125.042222,9.54888889 L128.945333,9.54888889 Z M125.545333,0.902666667 L128.525778,0.902666667 L134.821778,15.6982222 L131.442222,15.6982222 L130.1,12.4031111 L123.886667,12.4031111 L122.544444,15.6982222 L119.249333,15.6982222 L125.545333,0.902666667 L125.545333,0.902666667 Z" id="Shape" fill="#191A1E" fill-rule="nonzero"></path>
                <g id="Group" transform="translate(133.333333, 0.816889)">
                    <g id="Clipped">
                        <mask id="mask-2" fill="white">
                            <use xlink:href="#path-1"></use>
                        </mask>
                        <g id="a"></g>
                        <polygon id="Path" fill="#191A1E" fill-rule="nonzero" mask="url(#mask-2)" points="5.78933333 9.08977778 0.144 0.191111111 3.92177778 0.191111111 7.42666667 6.08888889 10.9937778 0.191111111 14.6666667 0.191111111 9.02088889 9.02666667 9.02088889 14.8822222 5.78977778 14.8822222"></polygon>
                    </g>
                </g>
                <path d="M38.4177778,24.0222222 L36.5493333,19.8266667 L34.6693333,24.0222222 L38.4177778,24.0222222 Z M36.1266667,18.7457778 L36.996,18.7457778 L40.7453333,27.0311111 L39.7462222,27.0311111 L38.7831111,24.8564444 L34.3057778,24.8564444 L33.3302222,27.0311111 L32.3777778,27.0311111 L36.1266667,18.7457778 Z M42.2364444,23.5866667 L42.2364444,18.8044444 L43.1653333,18.8044444 L43.1653333,23.5288889 C43.1653333,25.3031111 44.1057778,26.3022222 45.6808889,26.3022222 C47.1964444,26.3022222 48.1595556,25.3857778 48.1595556,23.5875556 L48.1595556,18.8044444 L49.0884444,18.8044444 L49.0884444,23.5173333 C49.0884444,25.9142222 47.7128889,27.16 45.656,27.16 C43.6231111,27.16 42.236,25.9142222 42.236,23.5875556 M53.4591111,19.6622222 L50.6973333,19.6622222 L50.6973333,18.8044444 L57.1608889,18.8044444 L57.1608889,19.6622222 L54.4,19.6622222 L54.4,27.0311111 L53.46,27.0311111 L53.4591111,19.6622222 Z M65.9631111,22.9408889 L65.9631111,22.9173333 C65.9631111,21.0488889 64.6,19.5217778 62.72,19.5217778 C60.84,19.5217778 59.5004444,21.0248889 59.5004444,22.8942222 L59.5004444,22.9173333 C59.5004444,24.7857778 60.8631111,26.3137778 62.7431111,26.3137778 C64.6231111,26.3137778 65.9635556,24.8093333 65.9635556,22.9404444 M58.5368889,22.9404444 L58.5368889,22.9173333 C58.5368889,20.6493333 60.2408889,18.6631111 62.7431111,18.6631111 C65.2466667,18.6631111 66.9271111,20.6262222 66.9271111,22.8942222 C66.9386667,22.9057778 66.9386667,22.9057778 66.9271111,22.9173333 C66.9271111,25.1853333 65.2226667,27.172 62.7204444,27.172 C60.2173333,27.172 58.5368889,25.2093333 58.5368889,22.9408889 M74.5893333,19.6622222 L71.828,19.6622222 L71.828,18.8044444 L78.2915556,18.8044444 L78.2915556,19.6622222 L75.5297778,19.6622222 L75.5297778,27.0311111 L74.5897778,27.0311111 L74.5893333,19.6622222 Z M83.4848889,23 C84.7186667,23 85.6004444,22.3644444 85.6004444,21.3075556 L85.6004444,21.284 C85.6004444,20.2728889 84.8253333,19.6617778 83.4968889,19.6617778 L80.9582222,19.6617778 L80.9582222,22.9995556 L83.4848889,22.9995556 L83.4848889,23 Z M80.0302222,18.8044444 L83.568,18.8044444 C84.5786667,18.8044444 85.3893333,19.1102222 85.9057778,19.6266667 C86.3057778,20.0266667 86.5404444,20.6022222 86.5404444,21.2488889 L86.5404444,21.2724444 C86.5404444,22.6355556 85.6008889,23.4346667 84.308,23.6697778 L86.8342222,27.0306667 L85.6946667,27.0306667 L83.3088889,23.8337778 L80.9577778,23.8337778 L80.9577778,27.0302222 L80.0302222,27.0302222 L80.0302222,18.8044444 L80.0302222,18.8044444 Z M93.8626667,24.0222222 L91.9928889,19.8266667 L90.1128889,24.0222222 L93.8622222,24.0222222 L93.8626667,24.0222222 Z M91.5702222,18.7457778 L92.44,18.7457778 L96.188,27.0311111 L95.1893333,27.0311111 L94.2248889,24.8564444 L89.748,24.8564444 L88.7728889,27.0311111 L87.8204444,27.0311111 L91.5693333,18.7457778 L91.5702222,18.7457778 Z M97.8102222,18.8044444 L98.6795556,18.8044444 L103.861778,25.3973333 L103.861778,18.8044444 L104.767111,18.8044444 L104.767111,27.0311111 L104.026667,27.0311111 L98.7146667,20.2853333 L98.7146667,27.0311111 L97.8097778,27.0311111 L97.8102222,18.8044444 Z M106.553333,25.832 L107.129778,25.1502222 C107.987556,25.9262222 108.809778,26.3137778 109.950667,26.3137778 C111.054667,26.3137778 111.784,25.7262222 111.784,24.9151111 L111.784,24.8911111 C111.784,24.1275556 111.372,23.6928889 109.644889,23.3284444 C107.751556,22.9168889 106.882667,22.3062222 106.882667,20.9542222 L106.882667,20.9311111 C106.882667,19.6377778 108.022222,18.6866667 109.584889,18.6866667 C110.784,18.6866667 111.642667,19.0271111 112.476,19.6968889 L111.935556,20.4133333 C111.172,19.7911111 110.408,19.52 109.562222,19.52 C108.492444,19.52 107.811111,20.108 107.811111,20.848 L107.811111,20.872 C107.811111,21.6475556 108.233333,22.0822222 110.044,22.4702222 C111.877333,22.8702222 112.724,23.5395556 112.724,24.7968889 L112.724,24.8204444 C112.724,26.2302222 111.547556,27.1471111 109.914222,27.1471111 C108.610222,27.1471111 107.540889,26.7124444 106.553333,25.8315556 M117.576889,23.2804444 C118.939556,23.2804444 119.832889,22.5515556 119.832889,21.4715556 L119.832889,21.448 C119.832889,20.2724444 118.951556,19.6613333 117.624,19.6613333 L115.544,19.6613333 L115.544,23.2808889 L117.576889,23.2808889 L117.576889,23.2804444 Z M114.615556,18.8035556 L117.694667,18.8035556 C119.550667,18.8035556 120.772889,19.7902222 120.772889,21.4124444 L120.772889,21.4364444 C120.772889,23.2106667 119.292889,24.1271111 117.541778,24.1271111 L115.543556,24.1271111 L115.543556,27.0302222 L114.615556,27.0302222 L114.615556,18.8044444 L114.615556,18.8035556 Z M129.527556,22.94 L129.527556,22.9164444 C129.527556,21.048 128.164444,19.5208889 126.284444,19.5208889 C124.404444,19.5208889 123.064,21.024 123.064,22.8933333 L123.064,22.9164444 C123.064,24.7848889 124.427111,26.3128889 126.307556,26.3128889 C128.187556,26.3128889 129.527111,24.8084444 129.527111,22.9395556 M122.100444,22.9395556 L122.100444,22.9164444 C122.100444,20.6484444 123.804444,18.6622222 126.307556,18.6622222 C128.810667,18.6622222 130.490667,20.6253333 130.490667,22.8933333 C130.502667,22.9048889 130.502667,22.9048889 130.490667,22.9164444 C130.490667,25.1844444 128.787111,27.1711111 126.284,27.1711111 C123.780889,27.1711111 122.1,25.2084444 122.1,22.94 M135.908889,22.9991111 C137.142222,22.9991111 138.023556,22.3635556 138.023556,21.3066667 L138.023556,21.2831111 C138.023556,20.272 137.248444,19.6608889 135.92,19.6608889 L133.382222,19.6608889 L133.382222,22.9986667 L135.908889,22.9986667 L135.908889,22.9991111 Z M132.453778,18.8035556 L135.990667,18.8035556 C137.001333,18.8035556 137.812,19.1093333 138.328444,19.6257778 C138.728444,20.0257778 138.964,20.6013333 138.964,21.248 L138.964,21.2715556 C138.964,22.6346667 138.023556,23.4337778 136.731111,23.6688889 L139.257778,27.0297778 L138.118222,27.0297778 L135.732889,23.8328889 L133.381778,23.8328889 L133.381778,27.0293333 L132.453778,27.0293333 L132.453778,18.8044444 L132.453778,18.8035556 Z M143.124,19.6613333 L140.362222,19.6613333 L140.362222,18.8035556 L146.825333,18.8035556 L146.825333,19.6613333 L144.064,19.6613333 L144.064,27.0302222 L143.124,27.0302222 L143.124,19.6613333 Z" id="Shape" fill="#191A1E" fill-rule="nonzero"></path>
                <path d="M13.9644444,0 C9.21111111,0 5.01555556,2.37644444 2.49333333,6.00355556 C4.61155556,5.04888889 6.87377778,4.47911111 9.18444444,4.11022222 C11.0288889,3.81466667 12.9106667,3.73155556 14.78,3.63377778 C15.3933333,3.60177778 16.0546667,3.72977778 16.6333333,3.94666667 C17.9386667,4.43555556 18.1986667,5.54933333 17.2422222,6.54044444 C15.2422222,8.61422222 13.2022222,10.6493333 11.1822222,12.7035556 C10.9066667,12.9835556 10.6488889,13.2822222 10.4711111,13.6813333 C11.1493333,13.176 11.8106667,12.6457778 12.5084444,12.1693333 C15.0136684,10.4584679 17.5262845,8.75845198 20.0462222,7.06933333 C20.3937778,6.83555556 20.7853333,6.66266667 21.1684444,6.48711111 C22.2217778,6.00488889 23.0484444,6.19288889 23.6648889,7.03911111 C24.2035556,7.77777778 24.1026667,8.4 23.2684444,9.36888889 C21.6831111,11.2097778 20.0862222,13.0422222 18.5057778,14.8888889 C18.1035556,15.3577778 17.7457778,15.8653333 17.4688889,16.4533333 C18.7337778,15.4382222 19.9888889,14.4115556 21.2662222,13.4133333 C22.2644583,12.6325573 23.2792068,11.8731259 24.3097778,11.1355556 C24.9124444,10.7044444 25.452,10.8542222 25.9942222,11.5564444 C26.4031111,12.0862222 26.5542222,12.6008889 25.9751111,13.1626667 C24.2622222,14.8248889 22.672,16.5937778 21.704,18.8137778 C21.4337778,19.4351111 21.264,20.1115556 21.1377778,20.7795556 C21.0177778,21.4133333 20.9306667,22.1111111 21.9608889,22.1786667 C21.2742222,22.7617778 20.3537778,22.5786667 19.8128889,21.812 C19.1653333,20.8964444 19.0462222,19.8288889 19.5017778,18.8697778 C20.2195556,17.3564444 21.1195556,15.9275556 21.9617778,14.4742222 C22.1555556,14.1408889 22.4311111,13.8551111 22.5697778,13.4297778 C21.5582222,14.2417778 20.5271111,15.0297778 19.5395556,15.8706667 C17.7542222,17.3888889 15.7706667,18.7026667 14.4671111,20.7284444 C14.1675556,21.1937778 13.7684444,21.1364444 13.3751111,20.8493333 C12.7293333,20.3782222 12.4977778,19.6226667 12.9697778,18.8857778 C14.2497778,16.888 15.5542222,14.9017778 16.9551111,12.988 C18.2173333,11.2657778 19.62,9.64577778 21.0857778,7.82355556 C20.7466667,7.97777778 20.564,8.04 20.4026667,8.13733333 C16.1608889,10.6875556 12.1671111,13.5897778 8.39911111,16.7897778 C7.32222222,17.7044444 6.39466667,18.8182222 5.51911111,19.9355556 C5.09911111,20.4733333 4.96133333,21.2306667 4.656,21.9862222 C3.33733333,21.8071111 2.42711111,20.3084444 3.168,19.0248889 C3.98532707,17.6093143 4.94112203,16.2783475 6.02133333,15.0515556 C8.92488889,11.7653333 11.9213333,8.56177778 14.88,5.32444444 C15.0177778,5.17422222 15.1511111,5.02133333 15.3702222,4.776 C13.1915556,4.82133333 11.1746667,5.11911111 9.20222222,5.68266667 C6.448,6.47066667 3.80666667,7.52133333 1.52533333,9.30577778 C1.16040127,9.5909309 0.818594714,9.90450127 0.503111111,10.2435556 C0.283033765,11.0420894 0.134594197,11.8586558 0.0595555556,12.6835556 L0.0684444444,12.6924444 L0.06,12.6924444 C0.020962001,13.1148864 0.000941776244,13.5388703 7.10542736e-15,13.9631111 C7.10542736e-15,21.6755556 6.25155556,27.9275556 13.9644444,27.9275556 C21.6755556,27.9275556 27.928,21.6755556 27.928,13.9631111 C27.928,6.25066667 21.6755556,0 13.9644444,0" id="Path" fill="#191A1E" fill-rule="nonzero"></path>
            </g>
        </g>
    </g>
</svg>