<?xml version="1.0" encoding="UTF-8"?>
<svg width="127px" height="45px" viewBox="0 0 127 45" version="1.1" xmlns="http://www.w3.org/2000/svg" xmlns:xlink="http://www.w3.org/1999/xlink">
    <!-- Generator: Sketch 55.2 (78181) - https://sketchapp.com -->
    <title>logo-flexeditors</title>
    <desc>Created with Sketch.</desc>
    <defs>
        <polygon id="path-1" points="0.000113770845 0.0440227273 8.88675444 0.0440227273 8.88675444 11.5909091 0.000113770845 11.5909091"></polygon>
        <polygon id="path-3" points="0 0.222727273 27.2031092 0.222727273 27.2031092 23.2277045 0 23.2277045"></polygon>
    </defs>
    <g id="Design" stroke="none" stroke-width="1" fill="none" fill-rule="evenodd">
        <g id="About-me" transform="translate(-519.000000, -2152.000000)">
            <g id="logo-flexeditors" transform="translate(519.000000, 2152.000000)">
                <path d="M41.6640892,19.20175 C41.5901382,19.2756137 41.5036724,19.3126591 41.4051468,19.3126591 L37.6334158,19.3126591 C37.0907288,19.3126591 36.7116444,19.4233409 36.4963899,19.6449318 C36.2804529,19.8665227 36.1728256,20.2853863 36.1728256,20.9008409 L36.1728256,22.8951591 L41.1832936,22.8951591 C41.2818192,22.8951591 41.3682851,22.9322045 41.4422361,23.0060682 C41.5161871,23.0799318 41.5530489,23.1660682 41.5530489,23.2644772 L41.5530489,24.59425 C41.5530489,24.6931136 41.5161871,24.7790227 41.4422361,24.8528863 C41.3682851,24.92675 41.2818192,24.9635682 41.1832936,24.9635682 L36.1728256,24.9635682 L36.1728256,30.6147046 C36.1728256,30.7133409 36.1355088,30.7994773 36.0608751,30.8733409 C35.9862415,30.9469773 35.8995481,30.9840227 35.8003399,30.9840227 L33.9750005,30.9840227 C33.8755648,30.9840227 33.7890989,30.9469773 33.7144652,30.8733409 C33.6398316,30.7994773 33.6027423,30.7133409 33.6027423,30.6147046 L33.6027423,20.9008409 C33.6027423,20.1128864 33.7142377,19.4726591 33.9376837,18.9801591 C34.1613572,18.4878864 34.4655804,18.1028863 34.8503533,17.8258409 C35.2353539,17.5490227 35.6872517,17.3612954 36.2067294,17.2626591 C36.726207,17.16425 37.288235,17.1149318 37.8921307,17.1149318 C38.4468773,17.1149318 38.9119725,17.1240227 39.2883265,17.1426591 C39.6639978,17.1610681 39.9843765,17.1826591 40.2496901,17.2072046 C40.5145487,17.2319773 40.7364018,17.2599318 40.9152495,17.2903864 C41.0938698,17.3212954 41.2572447,17.3490227 41.4051468,17.3735682 C41.5407616,17.3981136 41.6363291,17.4351591 41.6918493,17.48425 C41.747142,17.5335682 41.774902,17.6258409 41.774902,17.7612955 L41.774902,18.9431136 C41.774902,19.04175 41.7380403,19.1278864 41.6640892,19.20175" id="Fill-1" fill="#191A1E" fill-rule="nonzero"></path>
                <path d="M46.4987813,30.864 C46.4309739,30.9442273 46.3476936,30.984 46.2491681,30.984 L44.5296355,30.984 C44.4308824,30.984 44.3448717,30.9442273 44.2706931,30.864 C44.1969696,30.784 44.1598802,30.6949091 44.1598802,30.5960455 L44.1598802,17.2994546 C44.1598802,17.2010455 44.1969696,17.1149091 44.2706931,17.0410454 C44.3448717,16.9671818 44.4308824,16.9301364 44.5296355,16.9301364 L46.2491681,16.9301364 C46.3476936,16.9301364 46.4309739,16.9671818 46.4987813,17.0410454 C46.5663612,17.1149091 46.6004924,17.2010455 46.6004924,17.2994546 L46.6004924,30.5960455 C46.6004924,30.6949091 46.5663612,30.784 46.4987813,30.864" id="Fill-3" fill="#191A1E" fill-rule="nonzero"></path>
                <path d="M55.1608156,24.81575 C55.1608156,24.0896136 54.9810576,23.5293864 54.6219968,23.1352955 C54.2627085,22.7414318 53.7921523,22.5443863 53.2103282,22.5443863 C52.628049,22.5443863 52.1513492,22.73825 51.7800011,23.1259773 C51.4084256,23.5139318 51.222524,24.0771137 51.222524,24.81575 L51.222524,24.8896136 L55.1608156,24.8896136 L55.1608156,24.81575 Z M57.6014277,26.1641591 C57.6014277,26.4718864 57.4781001,26.62575 57.2316725,26.62575 L51.2040931,26.62575 L51.2040931,26.6809773 C51.2040931,26.9518864 51.2348112,27.22575 51.2967026,27.5027954 C51.3581389,27.7798409 51.4723648,28.0323409 51.6386977,28.2600682 C51.8050307,28.4880227 52.0330275,28.6727954 52.322688,28.8141591 C52.6123486,28.95575 52.9791458,29.0264318 53.4228521,29.0264318 C54.1006988,29.0264318 54.7384981,29.0052955 55.3364777,28.9618864 C55.9342298,28.9189318 56.4302706,28.8787045 56.8248279,28.8418864 L56.8803481,28.8418864 C56.9788736,28.8418864 57.0589683,28.8634773 57.1206321,28.9064318 C57.1822959,28.9496136 57.2132416,29.0202955 57.2132416,29.1189318 L57.2132416,30.3375682 C57.2132416,30.4852955 57.1916251,30.5962045 57.1483922,30.6700681 C57.1051593,30.7439318 56.9973046,30.79325 56.8248279,30.8177954 C56.5290237,30.8796137 56.2516504,30.9284773 55.9929355,30.96575 C55.7342206,31.0025682 55.4720925,31.0330227 55.2072341,31.0580227 C54.9419204,31.0823409 54.6524874,31.10075 54.3380248,31.11325 C54.0237898,31.1255228 53.6569925,31.1316591 53.2378607,31.1316591 C52.7693524,31.1316591 52.2737666,31.06075 51.7504207,30.9193864 C51.2268473,30.7777954 50.7451415,30.5314318 50.3048484,30.1805227 C49.8645552,29.8298409 49.500716,29.3559773 49.2131033,28.7587046 C48.9257182,28.1616591 48.7819119,27.4075681 48.7819119,26.4964319 L48.7819119,25.1298409 C48.7819119,24.4159773 48.8802099,23.7693864 49.0772609,23.19075 C49.2740845,22.6121136 49.5601044,22.1196136 49.9353207,21.71325 C50.3103094,21.3071136 50.7744944,20.9930227 51.3281034,20.7714318 C51.8814848,20.5498409 52.5088172,20.4391591 53.2103282,20.4391591 C53.9236714,20.4391591 54.5539619,20.5530227 55.1014272,20.78075 C55.648665,21.0087046 56.1067064,21.3318864 56.4760065,21.7502954 C56.8448516,22.1689318 57.1247278,22.6643864 57.3154078,23.2368864 C57.5060877,23.8093864 57.6014277,24.4405227 57.6014277,25.1298409 L57.6014277,26.1641591 Z" id="Fill-5" fill="#191A1E" fill-rule="nonzero"></path>
                <path d="M67.9925968,30.7439318 C67.9925968,30.8055227 67.9648367,30.8612045 67.9093165,30.9100681 C67.8540239,30.9593864 67.7891745,30.9841591 67.7152234,30.9841591 L65.6075048,30.9841591 C65.5085241,30.9841591 65.4254714,30.9625681 65.3578916,30.9193864 C65.2900842,30.8764318 65.2068039,30.7748409 65.1082783,30.6148409 L63.0005596,27.3643864 L61.0036538,30.6148409 C60.9049007,30.7748409 60.8216205,30.8764318 60.7540406,30.9193864 C60.6860056,30.9625681 60.6029528,30.9841591 60.5044273,30.9841591 L58.5999034,30.9841591 C58.4520013,30.9841591 58.3780502,30.9164318 58.3780502,30.78075 C58.3780502,30.7316591 58.3967086,30.6764318 58.4335704,30.6148409 L61.7431643,25.6098409 L58.6183342,20.9377954 C58.5935322,20.8887046 58.5814725,20.8516591 58.5814725,20.8268863 C58.5814725,20.7652954 58.6092326,20.7068864 58.6647528,20.6514318 C58.7202729,20.5959773 58.7910384,20.56825 58.8772767,20.56825 L60.9849954,20.56825 C61.0835209,20.56825 61.1636156,20.5959773 61.225507,20.6514318 C61.2869432,20.7068864 61.3670379,20.8023409 61.465791,20.9377954 L63.3332256,23.8184773 L65.071189,20.9377954 C65.1697146,20.7652954 65.2529948,20.66075 65.3208022,20.6237045 C65.3883821,20.5868864 65.4716624,20.56825 65.5704155,20.56825 L67.4749394,20.56825 C67.6228415,20.56825 67.6967926,20.6362045 67.6967926,20.7714318 C67.6967926,20.83325 67.6783617,20.8887046 67.6412724,20.9377954 L64.5903935,25.5914318 L67.9555075,30.6148409 C67.980082,30.6639318 67.9925968,30.7071136 67.9925968,30.7439318" id="Fill-7" fill="#191A1E" fill-rule="nonzero"></path>
                <path d="M74.7965029,24.81575 C74.7965029,24.0896136 74.6167449,23.5293864 74.2576841,23.1352955 C73.8983958,22.7414318 73.4276121,22.5443863 72.8460155,22.5443863 C72.2637363,22.5443863 71.7870365,22.73825 71.4156884,23.1259773 C71.0441129,23.5139318 70.8582113,24.0771137 70.8582113,24.81575 L70.8582113,24.8896136 L74.7965029,24.8896136 L74.7965029,24.81575 Z M77.2371151,26.1641591 C77.2371151,26.4718864 77.113787,26.62575 76.86736,26.62575 L70.8397804,26.62575 L70.8397804,26.6809773 C70.8397804,26.9518864 70.8704985,27.22575 70.9321623,27.5027954 C70.9938262,27.7798409 71.1080521,28.0323409 71.274385,28.2600682 C71.440718,28.4880227 71.6687148,28.6727954 71.9583754,28.8141591 C72.2478084,28.95575 72.6148331,29.0264318 73.0585394,29.0264318 C73.7361586,29.0264318 74.3741854,29.0052955 74.9721651,28.9618864 C75.5699171,28.9189318 76.065958,28.8787045 76.4605149,28.8418864 L76.5160355,28.8418864 C76.6145609,28.8418864 76.6946559,28.8634773 76.7563195,28.9064318 C76.8179831,28.9496136 76.8489287,29.0202955 76.8489287,29.1189318 L76.8489287,30.3375682 C76.8489287,30.4852955 76.8270847,30.5962045 76.7840798,30.6700681 C76.7408467,30.7439318 76.6329915,30.79325 76.4605149,30.8177954 C76.164711,30.8796137 75.8873376,30.9284773 75.628623,30.96575 C75.3696802,31.0025682 75.1077796,31.0330227 74.8426938,31.0580227 C74.5776077,31.0823409 74.2881747,31.10075 73.9737121,31.11325 C73.6594771,31.1255228 73.2926798,31.1316591 72.873548,31.1316591 C72.4050397,31.1316591 71.9094539,31.06075 71.386108,30.9193864 C70.8625346,30.7777954 70.3808288,30.5314318 69.9405357,30.1805227 C69.5002425,29.8298409 69.1361758,29.3559773 68.8487906,28.7587046 C68.5614055,28.1616591 68.4175992,27.4075681 68.4175992,26.4964319 L68.4175992,25.1298409 C68.4175992,24.4159773 68.5158972,23.7693864 68.7129483,23.19075 C68.9097718,22.6121136 69.1955642,22.1196136 69.571008,21.71325 C69.9459967,21.3071136 70.4101817,20.9930227 70.9637907,20.7714318 C71.5171721,20.5498409 72.1445045,20.4391591 72.8460155,20.4391591 C73.5591312,20.4391591 74.1896492,20.5530227 74.7371145,20.78075 C75.2843523,21.0087046 75.7423938,21.3318864 76.1116938,21.7502954 C76.4805388,22.1689318 76.7604149,22.6643864 76.9510952,23.2368864 C77.1417749,23.8093864 77.2371151,24.4405227 77.2371151,25.1298409 L77.2371151,26.1641591 Z" id="Fill-9" fill="#191A1E" fill-rule="nonzero"></path>
                <path d="M85.1688772,22.58075 C84.9099344,22.5439318 84.6048014,22.5134773 84.2537044,22.4889318 C83.9023799,22.4643864 83.615905,22.4521136 83.393824,22.4521136 C82.9992671,22.4521136 82.6727444,22.5196136 82.4140299,22.6539318 C82.155087,22.7887045 81.9516648,22.9725682 81.8037633,23.2050682 C81.6560884,23.4377954 81.5541495,23.71325 81.4988571,24.0316591 C81.4433372,24.3500682 81.4155769,24.6989318 81.4155769,25.0784773 L81.4155769,26.4923409 C81.4155769,26.8721136 81.4433372,27.2209773 81.4988571,27.5391591 C81.5541495,27.8577955 81.6560884,28.1334772 81.8037633,28.3659772 C81.9516648,28.5987046 82.155087,28.7823409 82.4140299,28.9168864 C82.6727444,29.0516591 82.9992671,29.1189318 83.393824,29.1189318 C83.726718,29.1189318 84.062569,29.1066591 84.4016067,29.0821136 C84.7404162,29.0575681 84.996173,29.0268864 85.1688772,28.9900681 L85.1688772,22.58075 Z M87.6094893,30.1530227 C87.6094893,30.2884773 87.5785437,30.3900682 87.5171069,30.4575682 C87.4552157,30.5255227 87.3198284,30.5900682 87.1102625,30.6516591 C86.5307139,30.7993864 85.9145311,30.9164318 85.2612589,31.0025682 C84.6077592,31.0884772 83.9856601,31.1316591 83.393824,31.1316591 C81.9025162,31.1316591 80.7930228,30.7225681 80.0657994,29.9037046 C79.3383486,29.0850682 78.9749648,27.9491591 78.9749648,26.4964318 L78.9749648,25.0743864 C78.9749648,23.6218864 79.3383486,22.4859772 80.0657994,21.6671136 C80.7930228,20.8484773 81.9025162,20.4391591 83.393824,20.4391591 C83.615905,20.4391591 83.8807633,20.44825 84.1888548,20.4668863 C84.4969462,20.4852955 84.8236964,20.5193864 85.1688772,20.56825 L85.1688772,17.2996136 C85.1688772,17.2012045 85.2059665,17.1148409 85.2799177,17.0409772 C85.3536406,16.9671137 85.4398793,16.9302955 85.5386322,16.9302955 L87.2397343,16.9302955 C87.3382597,16.9302955 87.4247252,16.9671137 87.4986763,17.0409772 C87.5724,17.1148409 87.6094893,17.2012045 87.6094893,17.2996136 L87.6094893,30.1530227 Z" id="Fill-11" fill="#191A1E" fill-rule="nonzero"></path>
                <path d="M92.5090991,30.5961136 C92.5090991,30.6949773 92.4720097,30.7840681 92.3980586,30.8640682 C92.3243349,30.9440682 92.2378695,30.9840682 92.1393433,30.9840682 L90.438242,30.9840682 C90.339489,30.9840682 90.2532503,30.9440682 90.1795267,30.8640682 C90.1055763,30.7840681 90.0684869,30.6949773 90.0684869,30.5961136 L90.0684869,20.9377045 C90.0684869,20.8392955 90.1055763,20.7529318 90.1795267,20.6790682 C90.2532503,20.6052046 90.339489,20.5681591 90.438242,20.5681591 L92.1393433,20.5681591 C92.2378695,20.5681591 92.3243349,20.6052046 92.3980586,20.6790682 C92.4720097,20.7529318 92.5090991,20.8392955 92.5090991,20.9377045 L92.5090991,30.5961136 Z M92.5646189,18.8138409 C92.5646189,18.9127045 92.5277571,18.9986136 92.4535784,19.0724773 C92.3796273,19.1463409 92.2933893,19.1833864 92.1948639,19.1833864 L90.4013802,19.1833864 C90.3023997,19.1833864 90.2132032,19.1463409 90.1333358,19.0724773 C90.0530141,18.9986136 90.0129663,18.9127045 90.0129663,18.8138409 L90.0129663,17.1888409 C90.0129663,17.0904318 90.0530141,17.0040682 90.1333358,16.9302046 C90.2132032,16.8563409 90.3023997,16.8195227 90.4013802,16.8195227 L92.1948639,16.8195227 C92.2933893,16.8195227 92.3796273,16.8563409 92.4535784,16.9302046 C92.5277571,17.0040682 92.5646189,17.0904318 92.5646189,17.1888409 L92.5646189,18.8138409 Z" id="Fill-13" fill="#191A1E" fill-rule="nonzero"></path>
                <path d="M100.422384,31.0025 C100.200531,31.0393182 99.9877801,31.07 99.7845847,31.0947727 C99.5811625,31.1195455 99.374555,31.1315909 99.1652166,31.1315909 C98.6489243,31.1315909 98.2040805,31.0947727 97.8309119,31.0209091 C97.457744,30.9470455 97.1548855,30.8056818 96.9227929,30.5961364 C96.6902453,30.3870455 96.518907,30.0884091 96.4087766,29.7004546 C96.2986462,29.3127273 96.2438089,28.8111364 96.2438089,28.1952273 L96.2438089,22.3965909 L94.505845,22.1381819 C94.4068645,22.1136364 94.3208541,22.0704545 94.246903,22.0088636 C94.1729518,21.9472727 94.13609,21.8675 94.13609,21.7686364 L94.13609,20.9377273 C94.13609,20.8393182 94.1729518,20.7529546 94.246903,20.6790909 C94.3208541,20.6052273 94.4068645,20.5681818 94.505845,20.5681818 L96.2438089,20.5681818 L96.2438089,19.0540909 C96.2438089,18.9556818 96.2804432,18.8756819 96.3539393,18.8138636 C96.4272072,18.7525 96.5127633,18.7095455 96.6108337,18.6845455 L98.3176237,18.3890909 L98.3908923,18.3890909 C98.5863506,18.3890909 98.684421,18.4815909 98.684421,18.6661364 L98.684421,20.5681818 L100.348434,20.5681818 C100.446959,20.5681818 100.533197,20.6052273 100.607148,20.6790909 C100.681327,20.7529546 100.718189,20.8393182 100.718189,20.9377273 L100.718189,22.0272728 C100.718189,22.1259091 100.681327,22.2118182 100.607148,22.2856818 C100.533197,22.3597727 100.446959,22.3965909 100.348434,22.3965909 L98.684421,22.3965909 L98.684421,28.1952273 C98.684421,28.4295455 98.6903372,28.6140909 98.7028515,28.7495455 C98.7151391,28.8852273 98.7458571,28.9895455 98.795234,29.0634091 C98.8443826,29.1372728 98.915376,29.1834091 99.0079852,29.2018182 C99.1003669,29.2202273 99.2325689,29.2295455 99.4055006,29.2295455 L100.385295,29.2295455 C100.644238,29.2295455 100.773709,29.3218182 100.773709,29.5065909 L100.773709,30.67 C100.773709,30.8547727 100.656298,30.9656818 100.422384,31.0025" id="Fill-15" fill="#191A1E" fill-rule="nonzero"></path>
                <path d="M108.354465,25.0374773 C108.354465,24.2742955 108.188132,23.6681591 107.855238,23.2183864 C107.522345,22.7690682 107.029262,22.5442954 106.37599,22.5442954 C105.72249,22.5442954 105.229862,22.7690682 104.896969,23.2183864 C104.564076,23.6681591 104.397743,24.2742955 104.397743,25.0374773 L104.397743,26.5333864 C104.397743,27.2967955 104.564076,27.9029318 104.896969,28.3524773 C105.229862,28.8017954 105.72249,29.0265682 106.37599,29.0265682 C107.029262,29.0265682 107.522345,28.8017954 107.855238,28.3524773 C108.188132,27.9029318 108.354465,27.2967955 108.354465,26.5333864 L108.354465,25.0374773 Z M110.795077,26.5333864 C110.795077,27.1981591 110.699282,27.8106591 110.508374,28.3708864 C110.31724,28.9313409 110.036909,29.4142954 109.667153,29.8206591 C109.297398,30.2267954 108.837991,30.5470227 108.289616,30.7808863 C107.741013,31.01475 107.103213,31.1315682 106.37599,31.1315682 C105.648539,31.1315682 105.01074,31.01475 104.462364,30.7808863 C103.913761,30.5470227 103.45481,30.2267954 103.084827,29.8206591 C102.715071,29.4142954 102.434513,28.9313409 102.243833,28.3708864 C102.05247,27.8106591 101.957131,27.1981591 101.957131,26.5333864 L101.957131,25.0374772 C101.957131,24.3724773 102.05247,23.7604318 102.243833,23.1999772 C102.434513,22.6399773 102.715071,22.1565682 103.084827,21.7502045 C103.45481,21.3440682 103.913761,21.0238409 104.462364,20.7899773 C105.01074,20.5561136 105.648539,20.4390682 106.37599,20.4390682 C107.103213,20.4390682 107.741013,20.5561136 108.289616,20.7899773 C108.837991,21.0238409 109.297398,21.3440682 109.667153,21.7502045 C110.036909,22.1565682 110.31724,22.6399773 110.508374,23.1999772 C110.699282,23.7604318 110.795077,24.3724773 110.795077,25.0374772 L110.795077,26.5333864 Z" id="Fill-17" fill="#191A1E" fill-rule="nonzero"></path>
                <path d="M118.135071,22.3966591 C118.061121,22.4705228 117.974654,22.5073409 117.876357,22.5073409 C117.370759,22.5073409 116.917723,22.5659773 116.51725,22.6827955 C116.116549,22.8000682 115.719034,22.9630227 115.324704,23.1723409 L115.324704,30.5962046 C115.324704,30.6948409 115.287615,30.7841591 115.213663,30.8639318 C115.139713,30.9441591 115.053474,30.9841591 114.954949,30.9841591 L113.253847,30.9841591 C113.155094,30.9841591 113.069083,30.9441591 112.995132,30.8639318 C112.920954,30.7841591 112.884092,30.6948409 112.884092,30.5962046 L112.884092,20.9377954 C112.884092,20.8391591 112.920954,20.7530227 112.995132,20.6791591 C113.069083,20.6052955 113.155094,20.56825 113.253847,20.56825 L114.862567,20.56825 C114.960865,20.56825 115.047331,20.6052955 115.121282,20.6791591 C115.195233,20.7530227 115.232322,20.8391591 115.232322,20.9377954 L115.232322,21.3255227 C115.688088,20.9684773 116.150453,20.7316591 116.618961,20.6146136 C117.08747,20.4977954 117.506374,20.4391591 117.876357,20.4391591 C117.974654,20.4391591 118.061121,20.4759772 118.135071,20.5498409 C118.209022,20.6237045 118.246112,20.7100681 118.246112,20.8084773 L118.246112,22.1380227 C118.246112,22.2366591 118.209022,22.3227955 118.135071,22.3966591" id="Fill-19" fill="#191A1E" fill-rule="nonzero"></path>
                <path d="M126.825093,28.2567955 C126.825093,28.6624773 126.751143,29.0402045 126.60324,29.3902045 C126.455338,29.7406591 126.230299,30.0442954 125.928351,30.3024772 C125.626176,30.5604318 125.247091,30.7631591 124.791326,30.9106591 C124.335105,31.0579318 123.804932,31.1315682 123.201264,31.1315682 C123.016273,31.1315682 122.791234,31.1254318 122.526376,31.1131591 C122.261062,31.1006591 121.974587,31.0788409 121.666495,31.0479318 C121.358404,31.0167955 121.050085,30.9795227 120.741994,30.9361136 C120.433902,30.8929318 120.150386,30.8336136 119.891443,30.7590682 C119.657303,30.6967954 119.540118,30.5540682 119.540118,30.3304318 L119.540118,29.2120227 C119.540118,29.1374773 119.567879,29.06975 119.623399,29.0079318 C119.678919,28.9465681 119.755828,28.9156591 119.854581,28.9156591 L119.928532,28.9156591 C120.150386,28.9404318 120.412058,28.9649773 120.714461,28.9895227 C121.016182,29.0142955 121.315172,29.0356591 121.610975,29.0540682 C121.907007,29.0727046 122.184153,29.0881591 122.443096,29.1004318 C122.70181,29.1129318 122.899089,29.1188409 123.034704,29.1188409 C123.31822,29.1188409 123.54599,29.0974773 123.718922,29.0545227 C123.891398,29.0113409 124.023827,28.9499773 124.116437,28.8699772 C124.208819,28.7904318 124.270255,28.6952045 124.301201,28.5842954 C124.331919,28.4738409 124.347391,28.35725 124.347391,28.2342955 C124.347391,28.0624773 124.285728,27.9086136 124.162628,27.7736136 C124.0393,27.6383863 123.829735,27.4786136 123.53393,27.2942954 L121.000936,25.7463409 C120.544715,25.4640682 120.171774,25.10475 119.882341,24.6683863 C119.592453,24.2324773 119.447964,23.7442954 119.447964,23.2033864 C119.447964,21.3606591 120.618666,20.4390682 122.960753,20.4390682 C123.330736,20.4390682 123.66636,20.4486136 123.968535,20.4670227 C124.270255,20.4858864 124.550814,20.5138409 124.809757,20.5511136 C125.068471,20.5881591 125.314899,20.6286136 125.549267,20.6717954 C125.783408,20.7154319 126.017548,20.76225 126.251916,20.8117954 C126.473769,20.8742954 126.584809,21.0170227 126.584809,21.2402045 L126.584809,22.3215682 C126.584809,22.5563409 126.485828,22.6736136 126.289005,22.6736136 L126.214826,22.6736136 C126.079212,22.6615682 125.89422,22.6399773 125.660307,22.6088409 C125.425939,22.5783864 125.166997,22.5536136 124.883708,22.5352045 C124.599963,22.5165682 124.307344,22.4981591 124.005397,22.47975 C123.703222,22.4613409 123.423117,22.4520227 123.164175,22.4520227 C122.720469,22.4520227 122.396905,22.5106591 122.193482,22.6270227 C121.99006,22.7438409 121.888349,22.9433864 121.888349,23.2258864 C121.888349,23.3736136 121.953198,23.5027045 122.08267,23.6131591 C122.212141,23.7238409 122.393719,23.8465681 122.628086,23.9815681 L125.050041,25.4558864 C125.432083,25.6892954 125.740175,25.9227046 125.974542,26.1561136 C126.208683,26.3895227 126.390489,26.6231591 126.51996,26.8565682 C126.649431,27.0899773 126.732711,27.3233863 126.769573,27.5567954 C126.806662,27.7902046 126.825093,28.0238409 126.825093,28.2567955" id="Fill-21" fill="#191A1E" fill-rule="nonzero"></path>
                <path d="M23.1533226,15.0759772 L0.144079398,25.5239318 L0.12564852,34.7125681 C0.12564852,34.7125681 17.8559245,26.6234773 17.8736727,26.6155227 C22.8925597,24.3352954 23.1883639,20.7212045 23.1533226,15.0759772" id="Fill-23" fill="#191A1E" fill-rule="nonzero"></path>
                <g id="Group-27" transform="translate(0.000000, 32.959091)">
                    <g id="Fill-25-Clipped">
                        <mask id="mask-2" fill="white">
                            <use xlink:href="#path-1"></use>
                        </mask>
                        <g id="path-1"></g>
                        <path d="M8.88675444,0.0440227273 L0.000113770845,4.09265909 L0.028556482,11.5910682 L6.15397875,8.81788635 C8.44168287,7.7660682 8.44168287,7.7660682 8.88675444,0.0440227273" id="Fill-25" fill="#191A1E" fill-rule="nonzero" mask="url(#mask-2)"></path>
                    </g>
                </g>
                <g id="Group-30" transform="translate(0.000000, 0.004546)">
                    <g id="Fill-28-Clipped">
                        <mask id="mask-4" fill="white">
                            <use xlink:href="#path-3"></use>
                        </mask>
                        <g id="path-3"></g>
                        <path d="M26.9264188,0.222704545 L6.3630213,9.5588409 C2.27842044,11.4163409 -0.0181578268,15.1658863 -6.18863427e-05,19.96475 L0.0111950511,23.2277045 C0.0111950511,23.2277045 22.8450036,12.8592955 22.8543327,12.8545227 C27.3942445,10.7938409 27.5769605,5.52293182 26.9264188,0.222704545" id="Fill-28" fill="#191A1E" fill-rule="nonzero" mask="url(#mask-4)"></path>
                    </g>
                </g>
            </g>
        </g>
    </g>
</svg>