<?xml version="1.0" encoding="UTF-8"?>
<svg width="127px" height="35px" viewBox="0 0 127 35" version="1.1" xmlns="http://www.w3.org/2000/svg" xmlns:xlink="http://www.w3.org/1999/xlink">
    <!-- Generator: Sketch 55.2 (78181) - https://sketchapp.com -->
    <title>EG_WHITE_RGB-01</title>
    <desc>Created with Sketch.</desc>
    <g id="Design" stroke="none" stroke-width="1" fill="none" fill-rule="evenodd">
        <g id="About-me" transform="translate(-1059.000000, -2157.000000)" fill="#191A1E" fill-rule="nonzero">
            <g id="EG_WHITE_RGB-01" transform="translate(1059.000000, 2157.000000)">
                <polygon id="Path" points="47.1559701 19.7880597 50.6559701 19.7880597 50.6559701 0.203731343 47.1559701 1.78656716"></polygon>
                <path d="M26.9343284,5.74626866 L26.9343284,6.88507463 C23.9069055,4.9224795 19.8965253,5.4882796 17.5302435,8.21183962 C15.1639618,10.9353997 15.1639618,14.9854959 17.5302435,17.7090559 C19.8965253,20.4326159 23.9069055,20.998416 26.9343284,19.0358209 L26.9343284,19.7985075 L30.4343284,19.7985075 L30.5335821,5.74626866 L26.9343284,5.74626866 Z M22.9850746,16.7843319 C21.4358714,16.7843319 20.0393116,15.8508293 19.4469463,14.4193496 C18.8545811,12.9878699 19.1831416,11.3404947 20.2793413,10.2457906 C21.3755409,9.15108646 23.0233631,8.82477522 24.4540328,9.41909414 C25.8847025,10.0134131 26.8162926,11.4112459 26.8141827,12.9604478 C26.8141827,13.9755097 26.4105911,14.9489212 25.6923441,15.6661883 C24.9740972,16.3834553 24.0001356,16.7857151 22.9850746,16.7843319 Z" id="Shape"></path>
                <path d="M45.6723881,9.19402985 L46.3671642,5.74626866 L38.9753731,5.74626866 L38.6567164,5.74626866 C35.534422,5.75216585 32.7675924,7.75896932 31.7923443,10.7250524 C30.8170962,13.6911354 31.8531267,16.9483193 34.3626866,18.8059701 L33.6261194,20.2268657 C29.9835594,20.3130413 26.9733943,23.0944703 26.600213,26.7188883 C26.2270317,30.3433063 28.6072817,33.6797491 32.1558597,34.5063467 C35.7044378,35.3329442 39.3140449,33.3917648 40.5809,29.9755172 C41.847755,26.5592695 40.3765483,22.7339601 37.1470149,21.0470149 L37.6171642,20.1276119 C40.3984315,20.5240497 43.1581844,19.2769772 44.6986884,16.9276245 C46.2391925,14.5782719 46.2827464,11.5501489 44.8104478,9.15746269 L45.6723881,9.19402985 Z M37.6119439,27.4880597 C37.614053,29.0377366 36.6818969,30.4358995 35.2505854,31.0299116 C33.8192738,31.6239236 32.1710417,31.2966538 31.0752536,30.2008658 C29.9794656,29.1050777 29.6521958,27.4568456 30.2462078,26.025534 C30.8402199,24.5942225 32.2383828,23.6620664 33.7880597,23.6641755 C35.8987376,23.6670567 37.6090628,25.3773818 37.6119439,27.4880597 Z M38.6567164,16.8052275 C37.1070395,16.8073366 35.7088766,15.8751805 35.1148645,14.4438689 C34.5208525,13.0125574 34.8481223,11.3643253 35.9439104,10.2685372 C37.0396984,9.17274914 38.6879305,8.84547935 40.1192421,9.43949139 C41.5505536,10.0335034 42.4827097,11.4316664 42.4806006,12.9813433 C42.4777195,15.0920212 40.7673943,16.8023463 38.6567164,16.8052275 L38.6567164,16.8052275 Z" id="Shape"></path>
                <path d="M5.10895522,14.2559701 L14.8619403,14.2559701 C14.9419438,13.8287708 14.9820897,13.3950738 14.9820897,12.9604478 C14.9785704,9.20594996 12.1037256,6.07798621 8.36285166,5.75841152 C4.62197767,5.43883683 1.25823138,8.03385138 0.61793366,11.7333493 C-0.0223640592,15.4328472 2.27356876,19.0074216 5.90424538,19.9636922 C9.53492199,20.9199628 13.293806,18.9401445 14.5589552,15.4052239 L10.6776119,15.4052239 C9.9530235,16.2789454 8.87687595,16.7844667 7.74179104,16.7843284 L7.38134328,16.7843284 L7.27686567,16.7843284 L7.03134328,16.7164179 L6.91641791,16.7164179 L6.67089552,16.6537313 L6.58208955,16.6276119 L6.26865672,16.491791 L6.20074627,16.4604478 L5.96044776,16.3455224 L5.86119403,16.2880597 C5.79328358,16.2514925 5.73059701,16.2097015 5.66791045,16.1679104 L5.56865672,16.1052239 C5.49552239,16.058209 5.42761194,16.0007463 5.35970149,15.9485075 L5.30223881,15.9067164 L5.05671642,15.6716418 L4.98358209,15.5985075 C4.9261194,15.5410448 4.87910448,15.4835821 4.82686567,15.4261194 L4.74850746,15.3320896 C4.70149254,15.2746269 4.65970149,15.2119403 4.61791045,15.1544776 L4.55,15.0604478 C4.48731343,14.9664179 4.43507463,14.8776119 4.38283582,14.7835821 L4.35149254,14.7261194 C4.30970149,14.6425373 4.26791045,14.5641791 4.23134328,14.4753731 L4.17910448,14.3708955 L4.13208955,14.2559701 L4.13208955,14.2559701 C3.80741237,13.3585138 3.83353202,12.3715642 4.20522388,11.4925373 L4.20522388,11.4925373 L4.20522388,11.4925373 L4.25223881,11.4037313 C4.28358209,11.330597 4.31492537,11.2626866 4.35149254,11.1947761 L4.4141791,11.0798507 L4.5238806,10.8970149 L4.58656716,10.7977612 C4.64925373,10.7089552 4.7119403,10.6253731 4.77985075,10.541791 L4.83731343,10.4791045 C4.88955224,10.4164179 4.94179104,10.3537313 4.99925373,10.2962687 L5.0880597,10.2126866 L5.25,10.061194 L5.33358209,9.9880597 C5.41716418,9.92537313 5.50597015,9.85746269 5.59477612,9.8 C5.6091893,9.7877777 5.62496539,9.7772603 5.64179104,9.76865672 L5.87686567,9.62238806 L5.9761194,9.57014925 L6.19029851,9.47089552 L6.26865672,9.40298507 C6.3704884,9.35781343 6.47519419,9.31942131 6.58208955,9.2880597 L6.60820896,9.2880597 C6.70746269,9.25671642 6.8119403,9.23059701 6.91119403,9.20970149 L7.01567164,9.20970149 L7.26641791,9.17313433 L7.37089552,9.17313433 C7.4858209,9.17313433 7.60597015,9.17313433 7.7261194,9.17313433 L7.7261194,9.17313433 C9.26942525,9.15973232 10.6699141,10.0741691 11.2783582,11.4925373 L7.31343284,11.4925373 L5.10895522,14.2559701 Z" id="Path"></path>
                <path d="M56.130597,14.2559701 L65.8835821,14.2559701 C65.9635856,13.8287708 66.0037315,13.3950738 66.0037315,12.9604478 C66.0002122,9.20594996 63.1253674,6.07798621 59.3844934,5.75841152 C55.6436195,5.43883683 52.2798732,8.03385138 51.6395755,11.7333493 C50.9992777,15.4328472 53.2952106,19.0074216 56.9258872,19.9636922 C60.5565638,20.9199628 64.3154478,18.9401445 65.580597,15.4052239 L61.6992537,15.4052239 C60.9746653,16.2789454 59.8985177,16.7844667 58.7634328,16.7843284 L58.4029851,16.7843284 L58.2985075,16.7843284 L58.0529851,16.7477612 L57.9380597,16.7477612 L57.6925373,16.6850746 L57.6037313,16.6589552 L57.2850746,16.5440299 L57.2171642,16.5126866 L56.9768657,16.3977612 L56.8776119,16.3402985 C56.8097015,16.3037313 56.7470149,16.2619403 56.6843284,16.2201493 L56.5850746,16.1574627 C56.5119403,16.1104478 56.4440299,16.0529851 56.3761194,16.0007463 L56.3186567,15.9589552 L56.0783582,15.7343284 L56.0052239,15.661194 C55.9477612,15.6037313 55.9007463,15.5462687 55.8485075,15.488806 L55.7701493,15.3947761 C55.7231343,15.3373134 55.6813433,15.2746269 55.6395522,15.2171642 L55.5716418,15.1231343 C55.5089552,15.0291045 55.4567164,14.9402985 55.4044776,14.8462687 L55.3731343,14.788806 C55.3313433,14.7052239 55.2895522,14.6268657 55.2529851,14.5380597 L55.2059701,14.4231343 L55.1589552,14.308209 L55.1589552,14.308209 C54.8323209,13.4136253 54.8547028,12.4288206 55.2216418,11.55 L55.2216418,11.55 L55.2216418,11.55 C55.2376958,11.5214447 55.2516626,11.4917652 55.2634328,11.461194 L55.3679104,11.2522388 L55.430597,11.1373134 C55.4640679,11.0745631 55.5006815,11.0135403 55.5402985,10.9544776 L55.6029851,10.8552239 C55.6656716,10.7664179 55.7283582,10.6828358 55.7962687,10.5992537 L55.8485075,10.5365672 C55.9059701,10.4738806 55.958209,10.411194 56.0156716,10.3537313 L56.1044776,10.2701493 L56.2664179,10.1186567 L56.35,10.0455224 C56.4335821,9.98283582 56.5223881,9.91492537 56.611194,9.85746269 C56.6256072,9.84524038 56.6413833,9.83472299 56.658209,9.8261194 L56.8932836,9.67985075 L56.9925373,9.62761194 L57.2067164,9.52835821 L57.3007463,9.48656716 C57.402578,9.44139552 57.5072837,9.4030034 57.6141791,9.37164179 L57.6141791,9.37164179 C57.7134328,9.34029851 57.8179104,9.3141791 57.9171642,9.29328358 L58.0216418,9.29328358 L58.2723881,9.25671642 L58.3768657,9.25671642 C58.491791,9.25671642 58.6119403,9.25671642 58.7320896,9.25671642 L58.7320896,9.25671642 C60.2611913,9.22252754 61.6639666,10.1015727 62.3,11.4925373 L58.3298507,11.4925373 L56.130597,14.2559701 Z" id="Path"></path>
                <path d="M71.4992537,21.6843284 C73.0664179,21.6843284 74.1843284,20.5820896 74.1843284,18.7171642 L74.1843284,18.5343284 C73.6068266,19.4150826 72.6255864,19.9469148 71.5723881,19.95 C70.5789359,19.9672349 69.6212425,19.5794609 68.9196461,18.8758937 C68.2180497,18.1723265 67.8329636,17.2135492 67.8529851,16.2201493 C67.8273578,15.2379311 68.2026538,14.2875969 68.8924785,13.5879176 C69.5823032,12.8882383 70.5272187,12.4995008 71.5097015,12.511194 C72.5702229,12.468475 73.5783354,12.9735176 74.1791045,13.8485075 L74.1791045,12.6835821 L75.0671642,12.6835821 L75.0671642,18.6126866 C75.0671642,21.1932836 73.6619403,22.5671642 71.5619403,22.5671642 C69.9425373,22.5671642 68.6992537,21.7104478 68.3701493,20.3731343 L69.4149254,20.3731343 C69.7281434,21.2353887 70.5863933,21.7752903 71.4992537,21.6843284 Z M71.4992537,19.1037313 C72.9913206,18.9763718 74.1375915,17.7280896 74.1375915,16.230597 C74.1375915,14.7331044 72.9913206,13.4848222 71.4992537,13.3574627 C70.7639669,13.3724831 70.0651273,13.6805287 69.5580006,14.2131588 C69.0508739,14.745789 68.7774609,15.4588908 68.7985075,16.1940299 C68.7674498,16.9389082 69.03529,17.665321 69.5424708,18.2117421 C70.0496516,18.7581632 70.7541287,19.0792954 71.4992537,19.1037313 L71.4992537,19.1037313 Z" id="Shape"></path>
                <path d="M77.041791,16.5231343 C77.0540941,17.2320698 77.3490374,17.9067284 77.86108,18.3971907 C78.3731227,18.887653 79.0598485,19.1532905 79.7686567,19.1350746 C80.8218692,19.1513307 81.7817754,18.5333653 82.2029851,17.5679104 L83.2477612,17.5679104 C82.7421563,19.0359308 81.3578604,20.019012 79.8052239,20.0127169 C78.8165058,20.0071868 77.8707875,19.6076916 77.1775553,18.9026931 C76.4843231,18.1976946 76.1008,17.245387 76.1119403,16.2567164 C76.075126,15.2543394 76.4564502,14.2817299 77.1647243,13.5714746 C77.8729985,12.8612193 78.844539,12.4771798 79.8470149,12.511194 C81.9365672,12.511194 83.4723881,14.0783582 83.4723881,16.4813433 L83.4723881,16.5492537 L77.041791,16.5231343 Z M79.7007463,13.3470026 C78.3341675,13.3428519 77.1953933,14.3928018 77.088806,15.7552239 L82.4746269,15.7552239 C82.1089552,14.1671642 81.1843284,13.3470026 79.7007463,13.3470026 L79.7007463,13.3470026 Z" id="Shape"></path>
                <path d="M85.3895522,12.6835821 L85.3895522,13.4932836 C85.9519706,12.8499242 86.7769692,12.4980017 87.630597,12.5373134 C88.5582807,12.4803264 89.4494621,12.907145 89.9865672,13.6656716 C90.3940299,14.2873134 90.4462687,15.0395522 90.4462687,16.0738806 L90.4462687,19.7880597 L89.5477612,19.7880597 L89.5477612,15.8074627 C89.5477612,14.1776119 88.9783582,13.4097015 87.5208955,13.4097015 C86.7800817,13.3646601 86.0762963,13.7377269 85.6977612,14.3761194 C85.4231044,14.990213 85.3167316,15.6663113 85.3895522,16.3350746 L85.3895522,19.7880597 L84.5067164,19.7880597 L84.5067164,12.6835821 L85.3895522,12.6835821 Z" id="Path"></path>
                <path d="M95.1164179,12.4589552 C96.6505318,12.3950988 98.0698308,13.2688887 98.7036286,14.6674178 C99.3374263,16.0659469 99.0588258,17.709206 97.999479,18.8206769 C96.9401322,19.9321478 95.3121383,20.2892954 93.8848019,19.7233503 C92.4574654,19.1574053 91.5165632,17.7816794 91.5067164,16.2462687 C91.4657538,14.2067717 93.0773053,12.5159253 95.1164179,12.4589552 L95.1164179,12.4589552 Z M95.1843284,19.1141791 C95.9304643,19.1010047 96.6392857,18.7854899 97.1484321,18.2399056 C97.6575785,17.6943212 97.923424,16.9654154 97.8850746,16.2201493 C97.9625495,15.2013706 97.4629097,14.2250226 96.5912806,13.6919417 C95.7196516,13.1588609 94.6228857,13.1588609 93.7512567,13.6919417 C92.8796276,14.2250226 92.3799878,15.2013706 92.4574627,16.2201493 C92.4189754,16.9698873 92.6883378,17.7028241 93.203166,18.2492126 C93.7179941,18.7956011 94.4336282,19.1080437 95.1843284,19.1141791 L95.1843284,19.1141791 Z" id="Shape"></path>
                <path d="M108.008955,12.5373134 C110.030597,12.5373134 110.772388,13.7701493 110.772388,16.1940299 L110.772388,19.7776119 L109.9,19.7776119 L109.9,16.0216418 C109.9,14.2977612 109.435075,13.4097015 107.914925,13.4097015 C107.181165,13.3714461 106.486844,13.7437634 106.112687,14.3761194 C105.84244,14.9914664 105.737983,15.6668371 105.809701,16.3350746 L105.809701,19.7880597 L104.947761,19.7880597 L104.947761,15.8074627 C104.947761,14.2037313 104.326119,13.4097015 102.926119,13.4097015 C102.184003,13.365074 101.478882,13.7377808 101.097761,14.3761194 C100.827515,14.9914664 100.723058,15.6668371 100.794776,16.3350746 L100.794776,19.7880597 L99.8962687,19.7880597 L99.8962687,12.6835821 L100.820896,12.6835821 L100.820896,13.4932836 C101.366381,12.860328 102.169389,12.5087715 103.004478,12.5373134 C103.995675,12.4968853 104.936917,12.9734384 105.491045,13.7962687 C106.065185,12.9798393 107.011328,12.5067678 108.008955,12.5373134 L108.008955,12.5373134 Z" id="Path"></path>
                <path d="M112.240299,11.8529851 L112.240299,10.3798507 L113.240299,10.3798507 L113.240299,11.8529851 L112.240299,11.8529851 Z M112.240299,12.6835821 L113.240299,12.6835821 L113.240299,19.7880597 L112.240299,19.7880597 L112.240299,12.6835821 Z" id="Shape"></path>
                <path d="M117.850746,13.3470149 C117.118312,13.3806869 116.429857,13.7062388 115.939096,14.250984 C115.448335,14.7957292 115.196135,15.5143033 115.238806,16.2462687 C115.198955,16.9849884 115.461538,17.7081019 115.966102,18.2491287 C116.470667,18.7901555 117.173732,19.1024737 117.913433,19.1141791 C118.965917,19.1413606 119.92684,18.5187327 120.33209,17.5470149 L121.340299,17.5470149 C120.879776,19.0217971 119.494372,20.0101517 117.95,19.9656716 C115.87852,19.958459 114.205101,18.2733456 114.21229,16.2018657 C114.219526,14.1303857 115.904639,12.4569664 117.976119,12.4641791 C119.496273,12.4419315 120.856414,13.4050127 121.340299,14.8462687 L120.33209,14.8462687 C119.883692,13.8912299 118.90475,13.2997431 117.850746,13.3470149 L117.850746,13.3470149 Z" id="Path"></path>
                <path d="M123.13209,17.5522388 L123.13209,17.5522388 C123.094452,17.9331825 123.214442,18.3129233 123.464132,18.6030774 C123.713823,18.8932315 124.071433,19.0684892 124.453731,19.0880597 C124.77705,19.1067721 125.093763,18.9912496 125.329104,18.7687637 C125.564444,18.5462778 125.697556,18.2365459 125.697015,17.9126866 C125.697015,17.1552239 125.273881,16.8261194 124.401493,16.5074627 C123.288806,16.1104478 122.494776,15.7656716 122.494776,14.4701493 C122.501624,13.9312001 122.723404,13.4172991 123.110852,13.0426028 C123.4983,12.6679064 124.019332,12.4634414 124.558209,12.4746269 C125.096146,12.4304054 125.627055,12.6201033 126.015163,12.995208 C126.403271,13.3703127 126.610945,13.894451 126.585075,14.4335821 L125.602985,14.4335821 C125.602985,13.8421428 125.123529,13.3626866 124.53209,13.3626866 C123.94065,13.3626866 123.461194,13.8421428 123.461194,14.4335821 C123.433796,14.8187401 123.639539,15.1829049 123.983582,15.358209 C124.439885,15.5719781 124.913466,15.7467315 125.399254,15.880597 C126.230599,16.1582434 126.766691,16.9656097 126.7,17.8395522 C126.698316,18.4259587 126.454509,18.985632 126.02624,19.3862074 C125.59797,19.7867828 125.023271,19.9926873 124.43806,19.9552239 C123.126866,19.9552239 122.223134,19.0410448 122.186567,17.5313433 L123.13209,17.5522388 Z" id="Path"></path>
            </g>
        </g>
    </g>
</svg>