<?xml version="1.0" encoding="UTF-8"?>
<svg width="112px" height="20px" viewBox="0 0 112 20" version="1.1" xmlns="http://www.w3.org/2000/svg" xmlns:xlink="http://www.w3.org/1999/xlink">
    <!-- Generator: Sketch 62 (91390) - https://sketch.com -->
    <title>azlogo_rgb</title>
    <desc>Created with Sketch.</desc>
    <g id="Design" stroke="none" stroke-width="1" fill="none" fill-rule="evenodd">
        <g id="About-me" transform="translate(-1076.000000, -2363.000000)" fill="#191A1E" fill-rule="nonzero">
            <g id="azlogo_rgb" transform="translate(1076.000000, 2363.000000)">
                <path d="M0,19.1873684 L1.13473684,19.1873684 L3.17473684,13.5178947 L11.1368421,13.5178947 L13.2021053,19.1873684 L16.1242105,19.1873684 L9.29684211,0.593684211 L6.75157895,0.593684211 L0,19.1873684 Z M7.13052632,2.58315789 L10.7578947,12.5094737 L3.55157895,12.5094737 L7.13052632,2.58315789 Z M19.5747368,1.60210526 L29.7284211,1.60210526 L19.1978947,18.1789474 L19.1978947,19.1873684 L33.2315789,19.1873684 L33.2315789,18.1789474 L22.4736842,18.1789474 L33.0294737,1.60210526 L33.0294737,0.593684211 L19.5768421,0.593684211 L19.5768421,1.60210526 L19.5747368,1.60210526 Z M45.0463158,19.3873684 C50.1852632,19.3873684 52.1768421,17.3221053 52.1768421,12.0821053 L52.1768421,0.593684211 L50.9936842,0.593684211 L50.9936842,12.1578947 C50.9936842,16.4147368 49.6589474,18.1031579 45.5768421,18.1031579 C41.7473684,18.1031579 40.5642105,16.3642105 40.5642105,12.1578947 L40.5642105,0.593684211 L37.7178933,0.593684211 L37.7178933,12.1326316 C37.7157895,17.1452632 40.1094737,19.3873684 45.0463158,19.3873684 Z M67.6947368,19.1873684 L70.7178947,19.1873684 L66.1326316,11.4526316 C68.9536842,10.7978947 70.6421053,9.00842105 70.6421053,6.08631579 C70.6421053,2.23157895 67.7957895,0.593684211 63.36,0.593684211 L56.7852632,0.593684211 L56.7852632,19.1873684 L59.5305263,19.1873684 L59.5305263,11.7305263 L63.2336842,11.7305263 L67.6947368,19.1873684 Z M59.5326316,10.6968421 L59.5326316,1.60210526 L63.16,1.60210526 C66.5368421,1.60210526 67.7957895,2.76210526 67.7957895,6.08631579 C67.7957895,9.48842105 66.5368421,10.6968421 63.3115789,10.6968421 L59.5326316,10.6968421 Z M80.2673684,19.1873684 L83.0884211,19.1873684 L83.0884211,12.0821053 L89.5894737,0.593684211 L88.28,0.593684211 L82.5347368,10.7221053 L76.8147368,0.593684211 L73.6421053,0.593684211 L80.2673684,12.1831579 L80.2673684,19.1873684 Z" id="Shape"></path>
                <path d="M93.2715789,9.53052632 L111.035789,9.53052632 C110.949474,6.90105263 109.976842,4.98947368 108.675789,3.6 L93.2715789,9.53052632 Z M91.8926316,9.24631579 L108.075789,3.01684211 C105.157895,0.414736842 101.138947,0 101.138947,0 L91.8926316,9.24631579 Z M91.8968421,10.5768421 L101.141053,19.8210526 C101.141053,19.8210526 105.170526,19.4189474 108.088421,16.8105263 L91.8968421,10.5768421 Z M93.2694737,10.2905263 L108.684211,16.2252632 C109.983158,14.8357895 110.949474,12.9221053 111.035789,10.2905263 L93.2694737,10.2905263 Z" id="Shape"></path>
            </g>
        </g>
    </g>
</svg>