<?xml version="1.0" encoding="UTF-8"?>
<svg width="88px" height="59px" viewBox="0 0 88 59" version="1.1" xmlns="http://www.w3.org/2000/svg" xmlns:xlink="http://www.w3.org/1999/xlink">
    <!-- Generator: Sketch 55.2 (78181) - https://sketchapp.com -->
    <title>Group</title>
    <desc>Created with Sketch.</desc>
    <defs>
        <polygon id="path-1" points="0 0.365156063 9.64029277 0.365156063 9.64029277 19.4128671 0 19.4128671"></polygon>
        <polygon id="path-3" points="0.164230763 0.221368149 7.45623576 0.221368149 7.45623576 18.9719821 0.164230763 18.9719821"></polygon>
        <polygon id="path-5" points="0.393959371 0.409985097 3.70685981 0.409985097 3.70685981 3.52637434 0.393959371 3.52637434"></polygon>
        <polygon id="path-7" points="0 0.359590269 53.9716236 0.359590269 53.9716236 25.9911524 0 25.9911524"></polygon>
    </defs>
    <g id="Design" stroke="none" stroke-width="1" fill="none" fill-rule="evenodd">
        <g id="About-me" transform="translate(-538.000000, -2343.000000)">
            <g id="Group" transform="translate(538.000000, 2343.000000)">
                <g id="Group-45" transform="translate(0.000000, 31.728553)">
                    <g id="Group-44">
                        <path d="M22.1051248,25.6817027 L6.33614306,25.0879495 L22.1051248,24.492433 C22.4357078,24.4796499 22.7097203,24.7370752 22.722979,25.0659096 C22.7366796,25.39254 22.4799033,25.6711236 22.1502043,25.6817027 L22.1051248,25.6817027 Z" id="Fill-1" fill="#191A1E"></path>
                        <g id="Group-5" transform="translate(0.000000, 1.720694)">
                            <mask id="mask-2" fill="white">
                                <use xlink:href="#path-1"></use>
                            </mask>
                            <g id="Clip-4"></g>
                            <path d="M4.80971623,11.8205831 C5.53673347,8.17034487 6.26242484,4.46103986 6.98634838,0.697957642 C7.85700125,0.582909679 8.72765411,0.471828887 9.59874893,0.365156063 C9.61244955,6.71395227 9.62615018,13.0631893 9.64029277,19.4128671 L7.26743225,19.4128671 C7.34212278,15.321832 7.4168133,11.2241851 7.49106187,7.11992611 C6.90502852,10.1349762 6.31766931,13.1143217 5.72942618,16.0553179 C5.11996918,16.0707458 4.51095413,16.0861737 3.90149713,16.1020424 C3.30574075,13.2306921 2.71086829,10.399895 2.11776365,7.61273693 C2.20261915,11.5375916 2.28747466,15.4712621 2.37277213,19.4128671 L-8.83911535e-05,19.4128671 L-8.83911535e-05,1.71134947 C0.867912736,1.57426167 1.73635582,1.44114103 2.60524086,1.31242837 C3.33756157,4.75020256 4.07297596,8.25497786 4.80971623,11.8205831" id="Fill-3" fill="#191A1E" mask="url(#mask-2)"></path>
                        </g>
                        <path d="M14.5528079,18.7578039 C14.9567555,18.7523772 15.3602611,18.7475284 15.7637667,18.7426796 C16.390018,18.7351861 16.7020388,18.3450809 16.6998407,17.5719233 C16.6887801,13.3385109 16.6781732,9.10553935 16.6666823,4.87168615 C16.6649145,4.09896938 16.3095821,3.74148318 15.6015689,3.80451712 C15.23121,3.83757688 14.8604091,3.87151823 14.4900502,3.90545958 C13.7983894,3.96937512 13.4541059,4.3837241 13.4558669,5.14233538 C13.4664806,9.30566109 13.4766456,13.468546 13.4872526,17.6309901 C13.4890204,18.3909238 13.8439109,18.7660419 14.5528079,18.7578039 L14.5528079,18.7578039 Z M13.9906402,21.1335677 C12.0782976,21.1291535 11.1205794,20.0408262 11.1157179,17.8668164 C11.1055529,13.6448647 11.0958299,9.42335383 11.0860881,5.20184295 C11.0812454,3.01152369 12.023495,1.79756932 13.9163916,1.58995403 C14.6730199,1.50884742 15.4305321,1.43082639 16.1880442,1.35589093 C18.0818247,1.16722991 19.0333555,2.23307655 19.0391009,4.52389748 C19.0505918,8.92525346 19.0620826,13.3266094 19.0735993,17.7279654 C19.0793189,20.0020361 18.1264622,21.136647 16.2150035,21.1335677 L13.9906402,21.1335677 Z" id="Fill-6" fill="#191A1E"></path>
                        <path d="M28.2350955,0.428454482 C28.2461444,6.02260658 28.2576353,11.6171995 28.2691446,17.2113516 C28.2739876,19.8288029 27.321131,21.1357654 25.4096723,21.1335642 L23.4076127,21.1335642 C21.5125064,21.1300351 20.5618595,19.8473164 20.5552302,17.2849646 C20.5410876,11.843769 20.527387,6.4038958 20.5132444,0.963140992 C21.3047871,0.897021473 22.0963299,0.834869125 22.8878727,0.775802355 C22.9015733,6.29545979 22.914832,11.8146764 22.9285326,17.3343339 C22.9307424,18.2225394 23.2781196,18.6628954 23.9702224,18.657165 C24.2915242,18.6549611 24.6128261,18.6518755 24.9341279,18.6492307 C25.5771736,18.6443819 25.8975915,18.1938876 25.8953817,17.2959846 C25.8830069,11.7207867 25.8706322,6.14558888 25.8582574,0.569950253 C26.6502422,0.519699419 27.4426688,0.472534162 28.2350955,0.428454482" id="Fill-8" fill="#191A1E"></path>
                        <path d="M34.7889018,10.2874037 C34.7844823,6.90561071 34.7800627,3.52425852 34.7760851,0.14290632 C35.5693957,0.117780903 36.3622643,0.0957410634 37.1555749,0.0772275981 C37.1622043,7.09603493 37.1688336,14.1148423 37.175463,21.1332088 L34.8026024,21.1332088 C34.8008346,19.7398501 34.7990668,18.3460507 34.797299,16.952692 C33.9438824,13.7714616 33.0900238,10.6038958 32.2348394,7.45440272 C32.2419107,12.0140047 32.249424,16.5740476 32.2564953,21.1332088 L29.8836347,21.1332088 C29.870818,14.2038832 29.8580013,7.27367604 29.8447426,0.343909658 C30.6376113,0.304678743 31.4304799,0.268533406 32.2233486,0.235914443 C33.0794169,3.5674566 33.9346013,6.91971621 34.7889018,10.2874037" id="Fill-10" fill="#191A1E"></path>
                        <path d="M42.560473,2.56310111 L42.5635667,21.1334292 L40.1907062,21.1334292 C40.1876125,14.949491 40.1845188,8.76467119 40.1814251,2.58073298 C39.4212612,2.58910812 38.6610973,2.60012804 37.9013753,2.61379274 C37.9004914,1.76305493 37.8996075,0.911876325 37.8991655,0.0602569216 C40.212804,0.0126508679 42.5268844,-0.00718498772 44.8414067,0.00207174493 C44.8409648,0.855895132 44.8409648,1.70927772 44.8409648,2.56266031 C44.0808008,2.56001553 43.3206369,2.56001553 42.560473,2.56310111" id="Fill-12" fill="#191A1E"></path>
                        <path d="M48.9157527,21.1333851 C48.9210562,14.105321 48.9263597,7.07637539 48.9316632,0.0483113285 C50.8983663,0.0848974623 52.8650695,0.142201045 54.8308887,0.220222078 C54.8295629,1.06478873 54.828237,1.90979618 54.8269111,2.75436284 C53.6544025,2.71336874 52.4814519,2.67898659 51.3089432,2.65121639 C51.3062915,4.7793833 51.3040817,6.90799102 51.3018719,9.03659873 C52.3413519,9.05290821 53.3812738,9.07230327 54.4211957,9.0947839 L54.4172181,11.6311286 C53.3781801,11.613056 52.3387002,11.5976281 51.2992202,11.584845 C51.2965685,13.9184232 51.2939167,16.2515606 51.291265,18.5851389 C52.4615639,18.589106 53.6323047,18.593514 54.8026036,18.5992443 C54.8012777,19.443811 54.7999518,20.2888185 54.798626,21.1333851 L48.9157527,21.1333851 Z" id="Fill-14" fill="#191A1E"></path>
                        <path d="M61.5218339,21.1333851 L55.8860139,21.1333851 C55.8975048,14.1776117 55.9089956,7.22139754 55.9209284,0.26518335 C56.7137971,0.300006297 57.5066657,0.337914821 58.2990924,0.37934972 C58.2871596,6.45881908 58.2756688,12.5387292 58.263736,18.6186394 C59.3518311,18.6252514 60.4394842,18.6327449 61.5275793,18.6415608 C61.5253695,19.4715812 61.5236017,20.3024832 61.5218339,21.1333851" id="Fill-16" fill="#191A1E"></path>
                        <path d="M65.9401099,13.7164942 C65.9418777,12.8988161 65.9440875,12.0806973 65.9462973,11.2630192 C67.1497428,11.3093029 68.3527464,11.3599945 69.55575,11.4142125 C69.5473529,14.654069 69.5385138,17.8939254 69.5301166,21.1333456 L64.8829517,21.1333456 C63.0541387,21.1359858 62.142384,19.9824206 62.1472262,17.6744086 C62.1574105,13.1580047 62.1680174,8.64160072 62.1781824,4.12519678 C62.1834859,1.77971705 63.1023119,0.663619571 64.9333347,0.803792951 C65.4778242,0.84522785 66.0218717,0.887544342 66.5659193,0.932505615 C68.57726,1.10177158 69.5791737,2.35760165 69.5730148,4.66649525 C69.5712185,5.38852039 69.5694507,6.11054554 69.5676828,6.83257068 C68.776582,6.78011587 67.9854812,6.72942424 67.1943804,6.68181818 C67.1957062,6.08365693 67.1974741,5.48461409 67.1987999,4.88645285 C67.2014517,3.91449592 66.8646814,3.40229004 66.188489,3.3538024 C65.9909348,3.3396969 65.7929386,3.3260322 65.5949424,3.3123675 C64.9023978,3.26432065 64.5550205,3.73421003 64.5523688,4.71718688 L64.5223158,17.1921769 C64.5196641,18.1755946 64.8643896,18.6697278 65.5564923,18.6763397 C66.0921427,18.6811885 66.6277931,18.686478 67.1634435,18.6917676 C67.167863,17.0458324 67.1718406,15.3994564 67.1762602,13.7535211 C66.7639154,13.7411788 66.3520127,13.7283957 65.9401099,13.7164942" id="Fill-18" fill="#191A1E"></path>
                        <path d="M74.1579238,18.7740203 C74.5618714,18.7793098 74.965377,18.7845994 75.3688826,18.7904687 C75.995134,18.7987049 76.3089225,18.4284356 76.3106904,17.679081 C76.3204134,13.5721773 76.3296945,9.4661552 76.3394241,5.35969228 C76.3411853,4.61121933 75.9880627,4.19907433 75.2809334,4.12766525 C74.9105745,4.09063832 74.5402156,4.05449298 74.1698566,4.01878844 C73.4786378,3.95222812 73.1321445,4.30310237 73.1303767,5.06656241 C73.1193278,9.24972398 73.1087208,13.4320039 73.0985455,17.6147247 C73.0963461,18.3790664 73.4494687,18.7647635 74.1579238,18.7740203 L74.1579238,18.7740203 Z M73.5838233,21.1336138 C71.6719226,21.1371319 70.719508,20.0144225 70.7252275,17.7645956 C70.7363023,13.4112865 70.7477931,9.05797737 70.759284,4.70422745 C70.7650294,2.43809114 71.7156763,1.39208035 73.6081309,1.59793245 C74.3652011,1.67903906 75.1222713,1.76323125 75.8788996,1.85050902 C77.7695864,2.07443379 78.712278,3.28089461 78.7078739,5.43771331 C78.6990193,9.59707185 78.6906222,13.7559896 78.682225,17.9153481 C78.6778055,20.0562981 77.7200873,21.1291975 75.8081867,21.1336138 L73.5838233,21.1336138 Z" id="Fill-20" fill="#191A1E"></path>
                        <g id="Group-24" transform="translate(79.993994, 2.161491)">
                            <mask id="mask-4" fill="white">
                                <use xlink:href="#path-3"></use>
                            </mask>
                            <g id="Clip-23"></g>
                            <path d="M5.09026975,9.63811003 C5.09247953,6.72796961 5.09468931,3.81826998 5.09689909,0.908129552 C5.88358035,1.0258223 6.67026162,1.14660062 7.45650093,1.27090531 L7.45650093,18.9719821 L5.08319846,18.9719821 L5.08585019,15.3741987 C4.24038881,12.6068764 3.39625329,9.78313218 2.5538856,6.90825549 C2.54858213,10.9292038 2.5428367,14.950593 2.53753324,18.9719821 L0.164230763,18.9719821 C0.175721613,12.7219244 0.187654419,6.47142587 0.199145269,0.221368149 C0.987152402,0.324955396 1.77515954,0.431628219 2.56272471,0.541827418 C3.40376654,3.62916815 4.24613423,6.66317248 5.09026975,9.63811003" id="Fill-22" fill="#191A1E" mask="url(#mask-4)"></path>
                        </g>
                        <g id="Group-27" transform="translate(29.071850, 23.319737)">
                            <mask id="mask-6" fill="white">
                                <use xlink:href="#path-5"></use>
                            </mask>
                            <g id="Clip-26"></g>
                            <path d="M1.19036366,1.96379379 C1.19036366,2.47864444 1.58856581,2.87580236 2.05703892,2.87580236 C2.52948964,2.87580236 2.90603595,2.47864444 2.90603595,1.96379379 C2.90603595,1.44850234 2.52948964,1.06016037 2.05703892,1.06016037 C1.58414625,1.06016037 1.19036366,1.44850234 1.19036366,1.96379379 M3.70685981,1.95938582 C3.70685981,2.84979534 2.99796275,3.52641842 2.04819981,3.52641842 C1.10285642,3.52641842 0.393959371,2.85420331 0.393959371,1.95938582 C0.393959371,1.0689763 1.10285642,0.409985097 2.04819981,0.409985097 C2.99796275,0.409985097 3.70685981,1.07294347 3.70685981,1.95938582" id="Fill-25" fill="#191A1E" mask="url(#mask-6)"></path>
                        </g>
                        <path d="M34.5574496,25.3403497 C34.8942199,25.3403497 35.0913321,25.1697613 35.0913321,24.8470981 C35.0913321,24.5279612 34.8942199,24.3666296 34.5574496,24.3666296 L33.9665547,24.3666296 L33.9665547,25.3403497 L34.5574496,25.3403497 Z M34.5791054,25.9512941 L34.5574496,25.9512941 L33.9665547,25.9512941 L33.9665547,26.8112886 L33.1873867,26.8112886 L33.1873867,23.7556852 L34.5574496,23.7556852 C35.3671125,23.7556852 35.8311661,24.1396192 35.8311661,24.8206503 C35.8311661,25.2878949 35.6340538,25.6242228 35.2751857,25.8031863 L35.9186733,26.8112886 L35.0343198,26.8112886 L34.5791054,25.9512941 Z" id="Fill-28" fill="#191A1E"></path>
                        <path d="M39.0234126,24.2443966 L38.5726177,24.7768792 C38.3710859,24.5326777 38.0736497,24.380162 37.8022888,24.380162 C37.3165794,24.380162 36.9488722,24.7640961 36.9488722,25.2657228 C36.9488722,25.7770471 37.3165794,26.1649483 37.8022888,26.1649483 C38.060391,26.1649483 38.3582692,26.0256565 38.5726177,25.8074621 L39.0278322,26.2874898 C38.699459,26.6233769 38.2137496,26.8459793 37.7629548,26.8459793 C36.8397092,26.8459793 36.1524679,26.1693562 36.1524679,25.2745387 C36.1524679,24.3929452 36.8569454,23.729546 37.7894721,23.729546 C38.2442446,23.729546 38.7171373,23.9301085 39.0234126,24.2443966" id="Fill-30" fill="#191A1E"></path>
                        <polygon id="Fill-32" fill="#191A1E" points="41.4282707 26.8112445 41.4282707 25.6241788 40.1589738 25.6241788 40.1589738 26.8112445 39.3802477 26.8112445 39.3802477 23.7556411 40.1589738 23.7556411 40.1589738 25.0127936 41.4282707 25.0127936 41.4282707 23.7556411 42.2074387 23.7556411 42.2074387 26.8112445"></polygon>
                        <path d="M44.187489,24.5280494 L43.7411136,25.6586931 L44.6250252,25.6586931 L44.187489,24.5280494 Z M43.5135064,26.2480385 L43.2903188,26.8113768 L42.4894949,26.8113768 L43.8109427,23.7557734 L44.6117665,23.7557734 L45.9031613,26.8113768 L45.0714005,26.8113768 L44.8526324,26.2480385 L43.5135064,26.2480385 Z" id="Fill-34" fill="#191A1E"></path>
                        <path d="M47.5547942,25.3403497 C47.8915645,25.3403497 48.0886767,25.1697613 48.0886767,24.8470981 C48.0886767,24.5279612 47.8915645,24.3666296 47.5547942,24.3666296 L46.9638993,24.3666296 L46.9638993,25.3403497 L47.5547942,25.3403497 Z M47.57645,25.9512941 L47.5547942,25.9512941 L46.9638993,25.9512941 L46.9638993,26.8112886 L46.1847313,26.8112886 L46.1847313,23.7556852 L47.5547942,23.7556852 C48.3644571,23.7556852 48.8285107,24.1396192 48.8285107,24.8206503 C48.8285107,25.2878949 48.6313984,25.6242228 48.2725303,25.8031863 L48.9160179,26.8112886 L48.0316644,26.8112886 L47.57645,25.9512941 Z" id="Fill-36" fill="#191A1E"></path>
                        <path d="M50.1301146,26.191352 L50.685653,26.191352 C51.1629652,26.191352 51.5041551,25.8246091 51.5041551,25.2877186 C51.5041551,24.7464201 51.145287,24.37571 50.6507385,24.37571 L50.1301146,24.37571 L50.1301146,26.191352 Z M50.6684167,23.7559497 C51.6309964,23.7559497 52.2965818,24.37571 52.2965818,25.2833106 C52.2965818,26.186944 51.6225992,26.8111123 50.6374798,26.8111123 L49.3509466,26.8111123 L49.3509466,23.7559497 L50.6684167,23.7559497 Z" id="Fill-38" fill="#191A1E"></path>
                        <path d="M55.0907145,24.0609811 L54.7972559,24.6679583 C54.4737443,24.4801788 54.066703,24.3492622 53.816998,24.3492622 C53.6159081,24.3492622 53.4797858,24.4233161 53.4797858,24.5718646 C53.4797858,25.0999391 55.0995537,24.7988749 55.0995537,25.9035117 C55.0995537,26.5140152 54.556832,26.8375601 53.8740103,26.8375601 C53.3617836,26.8375601 52.8367401,26.6453727 52.4734525,26.3482756 L52.7753083,25.7505552 C53.0904227,26.0256124 53.5633154,26.2089839 53.8828494,26.2089839 C54.1276929,26.2089839 54.2810516,26.1172981 54.2810516,25.9427426 C54.2810516,25.4014441 52.6617256,25.7241074 52.6617256,24.6415105 C52.6617256,24.078613 53.147435,23.720686 53.8828494,23.720686 C54.3248052,23.720686 54.7756001,23.8560106 55.0907145,24.0609811" id="Fill-40" fill="#191A1E"></path>
                        <path d="M62.2719654,25.6817027 L78.0413892,25.0879495 L62.2719654,24.492433 C61.9413825,24.4796499 61.6673699,24.7370752 61.6541113,25.0659096 C61.6404106,25.39254 61.8971869,25.6711236 62.2268859,25.6817027 L62.2719654,25.6817027 Z" id="Fill-42" fill="#191A1E"></path>
                    </g>
                </g>
                <g id="Group-132" transform="translate(14.558023, 0.000000)">
                    <g id="Group-3" transform="translate(0.000000, 0.088553)">
                        <mask id="mask-8" fill="white">
                            <use xlink:href="#path-7"></use>
                        </mask>
                        <g id="Clip-2"></g>
                        <path d="M0.100917653,25.9911524 C3.71031885,23.3860948 7.31972004,20.7801408 11.0773974,18.0675288 C11.3442945,18.7043406 11.5487359,19.2098464 11.7666569,19.7095262 C12.8445796,22.1810371 14.9518984,23.1942894 17.5233665,22.3903201 C18.7980921,21.9914725 20.0391186,21.4747631 21.2720574,20.9567093 C23.4625006,20.0357746 25.6781059,19.8484507 27.9035963,20.7411524 C30.735671,21.8771959 33.2015484,21.412023 35.3816573,19.2707939 C35.9563398,18.705685 36.6478458,18.2593342 37.2791428,17.7497951 C40.1988352,15.3939052 43.9448302,15.1595262 47.1098522,17.2021639 C49.0172228,18.4332138 50.8715735,19.7458259 52.7528834,21.0172087 C53.0705539,21.2327657 53.4048492,21.4241229 53.9718932,21.7754673 C48.9107336,14.6741869 40.1377275,7.39320102 35.1246453,0.359590269 C34.3603491,1.27693982 31.118493,7.99550576 28.945124,12.0547887 C28.5097313,12.8686172 27.9993018,13.6318054 27.7831781,12.9537644 C25.2180005,4.90510883 25.5163501,5.85920615 24.6001832,2.78628681 C18.4714352,9.33411012 6.40804631,19.014904 -0.000179728679,25.8611908 C0.0335193986,25.9046607 0.0672185259,25.9476825 0.100917653,25.9911524" id="Fill-1" fill="#191A1E" mask="url(#mask-8)"></path>
                    </g>
                    <polygon id="Fill-4" fill="#191A1E" points="14.6913367 15.7614725 23.5784706 7.35699104 24.580458 8.72427657"></polygon>
                    <path d="M19.4563933,6.38985275 C19.4527988,6.39164533 19.4492042,6.3934379 19.4456096,6.39523047 C19.4465083,6.39791933 19.4469576,6.40060819 19.4478562,6.40329706 C19.4496535,6.40105634 19.4563933,6.38985275 19.4563933,6.38985275" id="Fill-6" fill="#191A1E"></path>
                    <path d="M26.3504709,15.8551344 C26.5068349,15.6328553 26.6407327,15.3899616 26.8236067,15.1923303 C27.4095222,14.5582074 28.1571935,14.2019334 28.9866413,13.9989245 C29.4979694,13.8738924 30.0173853,13.8196671 30.5439903,13.8384891 C30.5637605,13.8389373 30.5835306,13.834904 30.5642098,13.8366965 C30.3786399,13.6345839 30.1894755,13.4073752 29.9787436,13.2025736 C29.1726605,12.4169782 28.4245399,11.5838796 27.815709,10.6347119 C27.3178605,9.85897567 26.9476195,9.03035851 26.783617,8.1174904 C26.7746306,8.06909091 26.773732,8.01889885 26.7665428,7.93868118 C26.888309,8.2496927 26.9853625,8.53605634 27.1098246,8.80987196 C27.5088223,9.68464789 28.0947378,10.4276697 28.7700683,11.1043662 C29.5914283,11.9276056 30.5071459,12.6356722 31.4637518,13.2926504 C32.4279962,13.9554545 33.399879,14.6066069 34.365022,15.2676184 C34.65124,15.4639052 34.9266742,15.6767734 35.216936,15.8887452 C35.2555776,15.5266453 35.2780437,15.1784379 35.332861,14.8360563 C35.422276,14.2803585 35.5054005,13.7215237 35.6424436,13.1770294 C35.8284628,12.4344558 36.080083,11.7084635 36.2719433,10.9672343 C36.5087359,10.0498848 36.6489242,9.11460948 36.6754342,8.16588988 C36.6844206,7.8553265 36.5168236,7.59361076 36.3577638,7.34533931 C35.8477836,6.54809219 35.1481898,5.95430218 34.3057116,5.53170294 C34.0091592,5.38291933 33.6892422,5.27984635 33.3805582,5.15615877 C33.402575,5.13240717 33.4245917,5.10865557 33.4461592,5.08490397 C33.6950834,5.12613316 33.9511968,5.14316261 34.1920332,5.21262484 C35.0965178,5.47523688 35.8891212,5.93727273 36.5702929,6.58752881 C36.5851205,6.60231754 36.6026441,6.61307298 36.657012,6.65519846 C36.515925,5.0078233 36.1618595,3.45590269 35.4469887,1.99585147 C37.1261039,4.55161332 37.7416746,7.37984635 37.6046315,10.4249808 C37.7219044,10.3465557 37.8283937,10.2690269 37.9402748,10.2004609 C38.7508511,9.7043662 39.5573836,9.20199744 40.3746997,8.71710627 C41.2054955,8.22459667 42.0434805,7.74597951 42.798341,7.13605634 C43.4080705,6.6422023 43.9508511,6.09367478 44.3413117,5.40891165 C44.5515942,5.04008963 44.7030156,4.64617157 44.7758058,4.22491677 C44.7811976,4.19533931 44.7942279,4.16755442 44.8342176,4.14425096 C44.8027651,4.34546735 44.7834442,4.5493726 44.7385121,4.74745198 C44.5439558,5.60654289 44.1139549,6.34149808 43.5401711,7.00295775 C43.0733258,7.54117798 42.5507647,8.01979513 41.9904606,8.45852753 C41.9545148,8.48676056 41.9221637,8.51857875 41.8691437,8.5656338 C43.2287912,8.67318822 44.484196,8.9734443 45.4080014,10.0386812 C45.3999136,10.0539181 45.3913765,10.0687068 45.3832887,10.0834955 C45.3410524,10.0458515 45.2992655,10.0073111 45.25658,9.97056338 C45.2134451,9.93291933 45.1703102,9.894379 45.1244794,9.85987196 C44.6805496,9.52645327 44.1710188,9.34450704 43.634978,9.22933419 C42.7794695,9.04559539 41.9293528,9.06128041 41.0891212,9.32434059 C40.7175322,9.44040973 40.4066016,9.66089629 40.106904,9.89706786 C39.56637,10.3232522 39.011907,10.7355442 38.5041735,11.1984763 C38.1289899,11.5408579 37.8009851,11.9410499 37.4873585,12.3421383 C37.3094271,12.5697951 37.2245053,12.8579513 37.2065324,13.1577593 C37.1660935,13.825493 37.0856649,14.4914341 37.0775771,15.1582714 C37.0672427,16.0267734 37.1692387,16.8876569 37.3390823,17.7422663 C37.5367839,18.7402817 37.8634408,19.6952753 38.2583945,20.6278617 C38.5163052,21.2373367 38.7832023,21.8445711 39.0846971,22.4338796 C39.6077076,23.456991 40.1985656,24.4393214 40.9875745,25.2894494 C41.1569688,25.4722919 41.3101875,25.6703713 41.4705954,25.8612804 C41.1646073,26.0714597 40.7754947,26.2776056 40.3459431,26.4008451 C39.6175927,26.6110243 38.8946341,26.5424584 38.1770673,26.341242 C37.6536075,26.1951472 37.133293,26.0365045 36.6071373,25.9011652 C35.4573231,25.6053905 34.3075089,25.6076312 33.1617385,25.9329834 C33.1487082,25.9370166 33.1329819,25.9307426 33.1541001,25.9329834 C33.4537976,25.5977721 33.7844984,25.2634571 34.0738616,24.8968758 C34.5375616,24.3089117 34.8404044,23.6358003 35.0587747,22.9214597 C35.4303638,21.706991 35.4788905,20.4656338 35.3863303,19.2117286 C35.3674587,18.9513572 35.3544284,18.6851601 35.2865808,18.4359923 C35.2362568,18.2518054 35.1171866,18.078822 35.0012616,17.9206274 C34.5941761,17.3671703 34.095429,16.8970679 33.5912901,16.4345839 C33.1689277,16.0469398 32.7506092,15.6521255 32.2976929,15.3030218 C32.0680895,15.125557 31.7742331,15.0206914 31.496103,14.919411 C30.6801348,14.6218438 29.8331634,14.5241485 28.9745096,14.6527657 C28.0188024,14.7961716 27.1880066,15.1909859 26.5805236,15.9747887 C26.565696,15.9940589 26.5396354,16.0048143 26.5189666,16.0196031 C26.4628013,15.9649296 26.4066361,15.9098079 26.3504709,15.8551344" id="Fill-8" fill="#191A1E"></path>
                    <path d="M50.5072185,14.9220999 C50.052505,15.3061588 49.6094738,15.6400256 49.0635479,15.8112164 C48.429555,16.0101921 47.8674536,15.8775416 47.3583721,15.4674904 C47.1642651,15.3106402 47.013293,15.1237644 46.9090504,14.8947631 C46.8416521,14.7477721 46.8659155,14.6460435 46.9715061,14.5228041 C47.2891765,14.1508451 47.8153322,13.96621 48.2349987,14.116338 C48.4506731,14.1934187 48.6618543,14.2875288 48.8658464,14.3919462 C49.3753772,14.6532138 49.8925464,14.8866965 50.5072185,14.9220999" id="Fill-10" fill="#191A1E"></path>
                    <path d="M30.8790046,19.5422343 C30.7464547,18.9094558 30.6624315,18.3008771 30.7630796,17.6842318 C30.8848458,16.9389693 31.4730079,16.4688668 32.0939704,16.3980602 C32.5733967,16.344283 32.714933,16.4894814 32.7890711,16.9618246 C32.8865739,17.5802625 32.6376497,18.0033099 32.1335108,18.3304545 C31.6725067,18.6298143 31.2443031,18.9704033 30.9571866,19.4543982 C30.9419096,19.4794942 30.9176462,19.4992125 30.8790046,19.5422343" id="Fill-12" fill="#191A1E"></path>
                    <path d="M51.3178847,11.1115365 C50.9489916,11.0228041 50.5787505,10.9152497 50.2013203,10.8489245 C49.90342,10.7969398 49.5956347,10.8063508 49.2941398,10.7704994 C48.6682347,10.6965557 48.3914525,10.2062868 48.2669904,9.67523688 C48.2395818,9.55827145 48.2759768,9.46505762 48.3716824,9.38483995 C48.7603456,9.05993598 49.2056234,8.99181818 49.6850497,9.10026889 C50.2255837,9.22171575 50.5706627,9.59770807 50.8290227,10.0521255 C51.0132446,10.3765813 51.1511864,10.7283739 51.3088983,11.0685147 C51.3187834,11.0900256 51.3187834,11.1164661 51.3178847,11.1115365" id="Fill-14" fill="#191A1E"></path>
                    <path d="M46.3428601,0.73159411 C45.7726709,1.10848271 45.4491592,1.63056978 45.123401,2.15310499 C44.7270993,2.78767606 44.2917066,2.86430858 43.5512244,2.71014725 C43.4128333,2.68146607 43.3476817,2.58645967 43.3243169,2.44663892 C43.2030001,1.7143726 43.6725413,0.972247119 44.3842668,0.758930858 C44.9243515,0.596702945 45.469828,0.6303137 46.0175512,0.686331626 C46.1096621,0.696190781 46.2013238,0.7118758 46.3428601,0.73159411" id="Fill-16" fill="#191A1E"></path>
                    <path d="M22.9823106,5.93996159 C23.6828031,5.72081946 24.3765558,5.50571063 25.1161393,5.71723431 C25.5479374,5.84047375 25.8359526,6.13131882 26.0327556,6.51537772 C26.1590149,6.76185659 26.2524739,7.02402049 26.2313557,7.31083227 C26.2295585,7.33996159 26.2264132,7.36953905 26.2196734,7.44393086 C25.9087428,6.99354673 25.5546773,6.63996159 25.1327642,6.3603201 C24.703662,6.07664533 24.2354688,5.89962868 23.7079651,5.90993598 C24.7728575,6.15865557 25.4005599,6.93215109 25.991418,7.76435339 C25.2787937,8.11973111 24.7117498,7.95526248 24.2646747,7.28035851 C23.9204943,6.76006402 23.5417161,6.27158771 22.9823106,5.93996159" id="Fill-18" fill="#191A1E"></path>
                    <path d="M23.0718154,4.00035211 C23.3984723,3.74715109 23.7260278,3.52935339 24.0881811,3.36578105 C24.4238244,3.21386044 24.7657582,3.09734315 25.1445364,3.11706146 C25.6985501,3.14663892 26.3136715,3.6203265 26.4381336,4.12090269 C26.4740793,4.26610115 26.4543092,4.37903329 26.3343403,4.48255442 C25.7421343,4.99478233 25.3125827,5.00464149 24.7073464,4.67256722 C24.3609194,4.48255442 24.0055059,4.30777849 23.6442513,4.14823944 C23.4753063,4.07384763 23.2825473,4.05278489 23.0718154,4.00035211" id="Fill-20" fill="#191A1E"></path>
                    <path d="M29.8939117,18.6949744 C29.3381008,18.4135403 28.8469921,18.0926697 28.4673153,17.6212228 C28.2237829,17.318726 28.0988715,16.975 28.1325706,16.5913892 C28.1662698,16.2037452 28.2835427,15.847023 28.6070544,15.5866517 C28.7171382,15.4983675 28.8231781,15.487612 28.940451,15.5400448 C29.6297105,15.8483675 29.8952597,16.2283931 29.806294,16.971863 C29.7474328,17.4621319 29.7164296,17.9497119 29.817527,18.4372919 C29.8337026,18.5166133 29.8633578,18.5927977 29.8939117,18.6949744" id="Fill-22" fill="#191A1E"></path>
                    <path d="M22.6545304,15.3798784 C22.9101944,15.2535019 23.1622639,15.1428105 23.3990564,15.0056786 C23.5459846,14.9209795 23.6682001,14.7937068 23.8056926,14.6906338 C23.9993502,14.5449872 24.1835721,14.3791741 24.3956519,14.2671383 C24.7218595,14.0954994 25.0579521,14.2003649 25.383261,14.3079193 C25.47672,14.3392894 25.5679323,14.3796223 25.6573473,14.422644 C25.9646833,14.5718758 26.0603888,14.8815429 25.9175045,15.1970359 C25.668131,15.7491485 25.1815156,15.9445391 24.5780766,15.9082394 C23.9854212,15.872388 23.4336542,15.6814789 22.8868297,15.4712996 C22.809097,15.4417222 22.732263,15.4103521 22.6545304,15.3798784" id="Fill-24" fill="#191A1E"></path>
                    <path d="M41.9182995,18.1312996 C41.7879962,17.6038348 41.4671805,17.1978169 41.0960408,16.8227209 C40.7190599,16.441799 40.6624453,15.9954481 40.8394781,15.5078681 C40.8960926,15.3523624 40.9729266,15.2035787 41.036281,15.0503137 C41.0946928,14.9091485 41.2119658,14.8715045 41.3494582,14.8585083 C41.8158541,14.8150384 42.2782062,15.1601088 42.4130027,15.635589 C42.5230865,16.0227849 42.4835462,16.4081882 42.3909859,16.7819398 C42.2777568,17.2394942 42.1151024,17.6849488 41.9744647,18.1353329 L41.9182995,18.1312996 Z" id="Fill-26" fill="#191A1E"></path>
                    <path d="M28.0110741,22.166338 C28.1759751,21.9467478 28.3521092,21.7576312 28.4752234,21.5384891 C28.6432697,21.2395775 28.7641372,20.9142254 28.9169066,20.6063508 C29.2386209,19.9560948 29.5760615,19.844507 30.2994695,19.8902177 C30.4688637,19.900525 30.5838901,20.050653 30.6099507,20.2895134 C30.6818422,20.9438028 30.3893338,21.6509731 29.6470544,21.9220999 C29.1222466,22.1143534 28.5830606,22.1842638 28.0110741,22.166338" id="Fill-28" fill="#191A1E"></path>
                    <path d="M29.4937458,4.74606274 C29.1814672,5.07141485 28.9604009,5.45144046 28.7954999,5.8668694 C28.7209125,6.05598592 28.650369,6.24734315 28.5627512,6.43018566 C28.2958541,6.99036492 27.7391446,7.09567862 27.2044517,7.02666453 C27.1460399,7.01904609 27.0768444,6.95451344 27.0462905,6.89804738 C26.7874812,6.4203265 26.9658619,5.6459347 27.4079945,5.27128681 C27.7121853,5.0140525 28.0684974,4.87557618 28.4544647,4.81328425 C28.7928039,4.7590589 29.1347378,4.72768886 29.4748743,4.68556338 C29.4811648,4.70572983 29.4874553,4.72589629 29.4937458,4.74606274" id="Fill-30" fill="#191A1E"></path>
                    <path d="M49.3687721,3.27256722 C48.6907457,3.26315621 48.1021343,3.47423175 47.5130735,3.70009603 C47.2677439,3.79465429 47.0003975,3.86008323 46.7388922,3.87980154 C46.4077422,3.90489757 46.0419943,3.66200384 45.7777931,3.30304097 C46.7272099,2.91136364 47.6842651,2.64471831 48.7172557,2.87371959 C47.7489674,2.43319462 46.7847231,2.58421895 45.7998099,2.92480794 C45.9148363,2.68056978 46.1048993,2.5331306 46.3039488,2.40765045 C47.057012,1.93351472 47.8069299,1.96085147 48.5222501,2.49727913 C48.7882485,2.6962548 49.0268383,2.93197823 49.2766612,3.15246479 C49.3058671,3.17890525 49.3256373,3.21565301 49.3687721,3.27256722" id="Fill-32" fill="#191A1E"></path>
                    <path d="M47.3430951,16.5409283 C47.5587695,16.7654481 47.6594176,17.0347823 47.7236706,17.3198015 C47.9119364,18.1520038 47.6028031,18.7937452 46.9382563,19.2813252 C46.6461972,19.4959859 46.3267295,19.6734507 45.99513,19.8831818 C46.0436568,19.5802369 46.113751,19.3252433 46.1186935,19.0693534 C46.1281293,18.5996991 46.0993727,18.1295967 46.0863423,17.6599424 C46.0787039,17.3888156 46.1115044,17.1248592 46.2746081,16.8980986 C46.4444517,16.6623752 46.6812443,16.5158323 46.9854351,16.4064853 C47.0433976,17.4408003 47.0982148,18.4473303 46.5217351,19.3597503 C47.2572747,18.5629513 47.3727504,17.5819654 47.3430951,16.5409283" id="Fill-34" fill="#191A1E"></path>
                    <path d="M34.7704001,14.1150832 C34.4248717,13.7668758 34.1467416,13.3850576 33.9153409,12.9714213 C33.6839402,12.5577849 33.5352147,12.1141229 33.5082554,11.6180282 C33.4188404,11.8075928 33.4129992,12.154904 33.5289242,12.5591293 C33.6178899,12.8683483 33.7288724,13.1757746 33.8731046,13.4621383 C34.0141917,13.7417798 34.2105452,13.9936364 34.414088,14.305096 C34.2249235,14.2356338 34.0586745,14.2006786 33.9216314,14.1186684 C33.2463009,13.7117542 32.9829984,13.0794238 33.1200415,12.3045839 C33.2117031,11.7842894 33.4103033,11.3070166 33.6408053,10.8306402 C33.7383081,11.0435083 33.8061557,11.2666837 33.9315165,11.4504225 C34.1629171,11.7883227 34.4118414,12.1177081 34.6827823,12.4246863 C35.1707457,12.9772471 35.1348,13.4912676 34.7704001,14.1150832" id="Fill-36" fill="#191A1E"></path>
                    <path d="M45.130051,20.6569462 C44.4376462,20.7645006 43.7973628,20.815589 43.1768496,20.5659731 C42.7944768,20.4122599 42.5262317,20.1384443 42.413452,19.7346671 C42.3676212,19.571991 42.3312261,19.4034891 42.3168478,19.2349872 C42.2894392,18.9177017 42.4085095,18.7801216 42.7257306,18.7545775 C42.9059086,18.7402369 43.0910291,18.7245519 43.2685112,18.750096 C43.5834857,18.7949104 43.8076972,18.9947823 43.969453,19.2569462 C44.2848769,19.7660371 44.5760373,20.2926056 45.130051,20.6569462" id="Fill-38" fill="#191A1E"></path>
                    <path d="M27.8761427,0.914526248 C27.9660071,1.44871319 28.238296,1.87579385 28.5438348,2.29256722 C28.8017454,2.64391165 28.8080359,3.02976312 28.6197702,3.41830346 C28.5604597,3.53930218 28.4962067,3.65940461 28.4243152,3.77323303 C28.2342521,4.07214469 27.9776894,4.13040333 27.6676575,3.95159411 C27.2753996,3.72572983 27.0700596,3.28565301 27.1298194,2.8034507 C27.1936231,2.28763764 27.3980645,1.82067222 27.6312624,1.36446223 C27.7085458,1.21254161 27.7943662,1.06465429 27.8761427,0.914526248" id="Fill-40" fill="#191A1E"></path>
                    <path d="M25.0402489,12.8319142 C25.2240214,12.8068182 25.409142,12.8036812 25.5807829,12.7539373 C25.9200207,12.6557939 26.2516202,12.5338988 26.5859155,12.418726 C26.7732826,12.3546415 26.9543593,12.2659091 27.1462196,12.221991 C27.6687808,12.1005442 28.0367753,12.3716709 28.3899421,12.7503521 C27.5074743,13.137548 26.6326449,13.4221191 25.6477318,13.1599552 C26.1806273,13.4785851 27.1785708,13.6264725 28.4119589,13.1151408 C28.3647801,13.2948464 28.2605375,13.4198784 28.1378726,13.5278809 C27.5645381,14.0293534 26.8703361,14.0867157 26.156364,13.7008643 C25.7483798,13.4803777 25.4028515,13.1787772 25.061367,12.8713508 C25.0514819,12.862388 25.0478873,12.8462548 25.0402489,12.8319142" id="Fill-42" fill="#191A1E"></path>
                    <path d="M20.8923356,9.43099872 C20.9264841,8.94072983 21.0055647,8.48272727 21.1947291,8.04489117 C21.5038624,7.32920615 22.2326622,7.01460948 22.9637086,7.17504481 C23.219822,7.23106274 23.2863216,7.32830986 23.2813791,7.59047375 C23.2705954,8.2124968 23.0063942,8.53740077 22.3184827,8.74399488 C21.83007,8.89008963 21.3569342,9.06128041 20.9597339,9.39514725 C20.9444569,9.40769526 20.9242374,9.41441741 20.8923356,9.43099872" id="Fill-44" fill="#191A1E"></path>
                    <path d="M45.8340931,15.3256082 C45.5033924,14.9177977 45.0747395,14.6672855 44.6213739,14.4427657 C44.269555,14.268886 44.0606204,13.9829706 44.0444448,13.5791933 C44.037705,13.4071063 44.0466914,13.2345711 44.0345598,13.0633803 C44.0107457,12.7295134 44.2704536,12.6255442 44.5445399,12.5959667 C44.9412909,12.5533931 45.3730891,12.831242 45.5550644,13.2081306 C45.7424315,13.5971191 45.8053366,14.0143406 45.8304986,14.437388 C45.8480221,14.7322663 45.8340931,15.0293854 45.8340931,15.3256082" id="Fill-46" fill="#191A1E"></path>
                    <path d="M22.8140396,18.984251 C22.9268193,18.325032 23.0207276,17.6985275 23.4385967,17.187644 C23.788169,16.7601152 24.3781284,16.5978873 24.8979936,16.7690781 C25.1981405,16.8676697 25.256103,16.9738796 25.2039817,17.2853393 C25.1563536,17.5725992 25.0929992,17.8504481 24.8665411,18.0570423 C24.6580558,18.2470551 24.3920574,18.315621 24.1283055,18.3792574 C23.6825784,18.4881562 23.2593174,18.6409731 22.8967148,18.93137 C22.8809885,18.9439181 22.8630156,18.9533291 22.8140396,18.984251" id="Fill-48" fill="#191A1E"></path>
                    <path d="M40.7197788,22.4376889 C40.6631643,22.1481882 40.6254212,21.8752689 40.5530804,21.6113124 C40.4946686,21.3984443 40.3913246,21.1967798 40.3131427,20.9888412 C40.2547308,20.8333355 40.1877819,20.6782778 40.1545321,20.5173944 C40.0529854,20.0212996 40.3531323,19.6453073 40.7283159,19.3732843 C40.7593191,19.3504289 40.8190789,19.3472919 40.8586192,19.3584955 C41.2311069,19.4647055 41.613929,19.9491485 41.6867191,20.3211076 C41.8197183,21.0031818 41.4782338,21.506895 41.1021516,22.0025416 C40.9862266,22.1553585 40.8491834,22.2915941 40.7197788,22.4376889" id="Fill-50" fill="#191A1E"></path>
                    <path d="M47.0497779,10.1911844 C47.2757867,10.2906722 47.4128299,10.4318374 47.5274069,10.6030282 C47.9475227,11.2281882 47.8855163,11.8533483 47.4833734,12.4457939 C47.2510741,12.7881754 46.9536231,13.0866389 46.6840301,13.4030282 C46.6588681,13.4321575 46.6215744,13.4518758 46.6031522,13.4666645 C46.5636119,13.1731306 46.5501322,12.8755634 46.4791394,12.5923367 C46.3915216,12.2396479 46.2517826,11.9004033 46.1434961,11.552644 C45.9862335,11.0466901 46.1816884,10.5738988 46.6966111,10.2104545 C47.0124842,11.0386236 47.2371451,11.8685851 46.9936127,12.7724904 C47.1679495,12.6098143 47.290165,12.0523239 47.2951076,11.515 C47.2996008,11.071338 47.1985034,10.6487388 47.0497779,10.1911844" id="Fill-52" fill="#191A1E"></path>
                    <path d="M44.6028618,17.8906018 C44.8854852,16.9562228 44.6504899,16.1029577 44.1845433,15.2698592 C44.3701132,15.2703073 44.4873862,15.3783099 44.6028618,15.4742125 C45.1528316,15.9322151 45.3195299,16.5479641 45.0894772,17.2376569 C44.9259241,17.7283739 44.6513886,18.1572471 44.3373127,18.5941869 C44.3045122,18.4494366 44.2802489,18.325749 44.248347,18.2034059 C44.1288274,17.7422663 43.8682209,17.3492446 43.6390668,16.9396415 C43.5370708,16.7576953 43.4579901,16.5511012 43.4206964,16.3462996 C43.3479063,15.9492446 43.5815536,15.6521255 43.8174475,15.3343918 C44.3260797,16.1253649 44.699466,16.9342638 44.6028618,17.8906018" id="Fill-54" fill="#191A1E"></path>
                    <path d="M43.142746,12.2065301 C42.5779487,11.8708707 41.9870906,11.8260563 41.3971313,11.7776569 C41.0498056,11.7489757 40.711017,11.6817542 40.4984879,11.3783611 C40.3578502,11.1784891 40.2648406,10.9454545 40.1691351,10.7115237 C41.0938391,10.753201 41.9641752,10.8979513 42.6826406,11.512356 C42.0805496,10.7599232 41.2582908,10.4520487 40.3290936,10.359283 C40.3228031,10.3453905 40.3165126,10.3310499 40.3102221,10.3176056 C40.4787177,10.2512804 40.6422708,10.1580666 40.8170569,10.1226633 C41.5525966,9.97298335 42.1137994,10.2459027 42.5249287,10.859411 C42.7936231,11.2618438 42.9733518,11.7028169 43.142746,12.2065301" id="Fill-56" fill="#191A1E"></path>
                    <path d="M31.9070976,20.8551601 C32.5518742,20.8336492 32.9450307,21.0778873 33.163401,21.6438924 C33.3283021,22.0709731 33.5026389,22.4949168 33.6909047,22.9121383 C33.7623468,23.0698848 33.8850117,23.2052241 34.0171122,23.3992702 C33.6612495,23.3419078 33.3399844,23.3091933 33.0281552,23.2352497 C32.6610594,23.1478617 32.3056459,23.0147631 32.0284144,22.7427401 C31.5957176,22.317452 31.4595731,21.7976056 31.5593226,21.2087452 C31.5660624,21.1693086 31.5907751,21.1334571 31.6217783,21.0626504 C31.9619148,21.9714853 32.442689,22.7283995 33.3345926,23.1366581 C32.5518742,22.6217414 32.0472859,21.4476056 31.9070976,20.8551601" id="Fill-58" fill="#191A1E"></path>
                    <path d="M40.4200812,18.3685019 C39.5012184,18.0772087 38.9157522,17.3973752 38.3630865,16.6597311 C38.9876437,16.431178 39.3884386,16.5243918 39.8040612,17.0160051 C40.0489415,17.306402 40.2700078,17.6174136 40.5256718,17.8975032 C40.6955154,18.0834827 40.9080446,18.2309219 41.1138339,18.406146 C40.3684092,18.5616517 39.6252311,18.7189501 38.9076644,18.3080026 C38.4646332,18.0543534 38.1469628,17.462356 38.1739221,16.940717 C38.4772142,17.3095391 38.7858982,17.6393726 39.1678217,17.8957106 C39.5506437,18.1533931 39.9563812,18.3357875 40.4200812,18.3685019" id="Fill-60" fill="#191A1E"></path>
                    <path d="M40.0650722,3.59200384 C40.0277784,4.26108195 40.0120522,4.93598592 39.5465549,5.48048015 C39.2189994,5.86319462 38.6223002,5.99898207 38.1729785,5.81569142 C38.0687359,5.7731178 37.9986417,5.71665173 37.9914525,5.59161972 C37.9528109,4.9203009 38.1266983,4.53579385 38.8119139,4.29738156 C39.2693234,4.13829065 39.7029189,3.93931498 40.0650722,3.59200384" id="Fill-62" fill="#191A1E"></path>
                    <path d="M20.5101426,13.6327913 C20.2517826,13.1846479 19.9934226,12.7351601 19.9264737,12.2032138 C19.8491904,11.5919462 20.14754,11.0402817 20.7051482,10.7866325 C20.9994539,10.6530858 21.1288586,10.7023816 21.3004994,10.978886 C21.5867174,11.4386812 21.5552648,11.8702433 21.228608,12.2973239 C21.073592,12.4998848 20.9235185,12.7091677 20.8031003,12.9327913 C20.6858274,13.1510371 20.6094427,13.3907939 20.5101426,13.6327913" id="Fill-64" fill="#191A1E"></path>
                    <path d="M40.3796872,13.7286492 C40.3396976,13.8886364 40.309593,14.0401088 40.2646608,14.1866517 C40.118182,14.6634763 39.9393519,15.1237196 39.5412529,15.4571383 C39.150343,15.7847311 38.4507492,15.8183419 38.0800588,15.5221191 C38.0247922,15.4777529 37.9731202,15.3827465 37.9789614,15.3164213 C38.0427651,14.6034251 38.3078649,14.2847951 39.0290262,14.1754481 C39.4832904,14.1068822 39.9191325,13.9948464 40.3073464,13.7385083 C40.3190288,13.7308899 40.3370016,13.7340269 40.3796872,13.7286492" id="Fill-66" fill="#191A1E"></path>
                    <path d="M49.6561583,7.79424456 C49.1857185,7.73240077 48.7705452,7.88073624 48.3737942,8.07298976 C47.9082969,8.29885403 47.5039074,8.20474392 47.1233319,7.89507682 C47.0626735,7.84533291 47.0029137,7.79379641 46.9458498,7.74046735 C46.7009695,7.51236236 46.6865912,7.29859795 46.8955258,7.03016005 C47.157031,6.69450064 47.6688084,6.57215749 48.1086944,6.73304097 C48.7000017,6.94904609 49.176732,7.33669014 49.643128,7.74046735 C49.6489692,7.74539693 49.6480705,7.75884123 49.6561583,7.79424456" id="Fill-68" fill="#191A1E"></path>
                    <path d="M24.543973,12.2025864 C24.7735764,11.6061076 24.9798151,11.0288988 25.4107146,10.5628297 C25.7746652,10.1693598 26.439212,10.0779385 26.8179901,10.3840205 C26.9577292,10.4974008 27.0224315,10.6237772 26.9649183,10.8061716 C26.8561825,11.1507939 26.7559838,11.504379 26.4046142,11.6890141 C26.268919,11.7602689 26.1125551,11.8203201 25.9620323,11.829283 C25.485302,11.857516 25.0296898,11.9453521 24.6118206,12.1869014 C24.5996889,12.1940717 24.583064,12.1936236 24.543973,12.2025864" id="Fill-70" fill="#191A1E"></path>
                    <path d="M22.3892958,17.1846863 C21.8213531,17.4311652 21.0004424,17.1940973 20.6697416,16.6029962 C20.3763346,16.0773239 20.2932101,15.5041485 20.2559164,14.9094622 C20.4688948,15.0443534 20.6621032,15.1958259 20.8791256,15.2980026 C21.1945494,15.4467862 21.5279461,15.5583739 21.851907,15.6887836 C22.3803093,15.9016517 22.6224937,16.3072215 22.5690245,16.8871191 C22.0271425,16.8642638 21.0175166,16.2144558 20.4841718,15.5561332 C20.6333466,15.9697695 20.9114767,16.2857106 21.2462214,16.5640077 C21.5787194,16.8405122 21.9543524,17.0350064 22.3892958,17.1846863" id="Fill-72" fill="#191A1E"></path>
                    <path d="M34.4654454,20.9348399 C34.6056338,19.9722279 34.1738357,19.2054545 33.6117342,18.4825992 C33.7640543,18.4722919 33.8691955,18.5054545 34.1113799,18.6815749 C34.6164175,19.0477081 34.893649,19.5317029 34.8235548,20.1698592 C34.7804199,20.5615365 34.637985,20.9263252 34.4636481,21.2790141 C34.429949,21.34758 34.3944526,21.4152497 34.3468245,21.5089117 C34.1432818,20.9209475 33.7730407,20.4737004 33.3870734,20.0358643 C33.1979089,19.8220999 33.0406463,19.5868246 33.0231228,19.2919462 C33.0064979,19.0230602 33.1098419,18.7877849 33.2549728,18.5448912 C33.5892681,18.8908579 33.850324,19.2574392 34.0767822,19.6513572 C34.3063856,20.0511012 34.4618509,20.4701152 34.4654454,20.9348399" id="Fill-74" fill="#191A1E"></path>
                    <path d="M21.5634874,14.5211908 C21.7373749,13.996863 21.9180022,13.5236236 22.2576894,13.1234315 C22.6715147,12.6358515 23.3531357,12.6008963 23.7728022,12.8097311 C24.0455405,12.9446223 24.0841821,13.0355954 24.0033042,13.3233035 C23.845143,13.8852753 23.5274726,14.1353393 22.942905,14.1635723 C22.4697693,14.1873239 22.0105625,14.2715749 21.5634874,14.5211908" id="Fill-76" fill="#191A1E"></path>
                    <path d="M25.1409418,19.21621 C25.1634079,20.0905378 25.2366474,20.9384251 25.9097313,21.5940589 C25.3781837,20.7909859 25.4280584,19.8884251 25.4509738,18.9872087 C25.8544647,18.991242 26.153713,19.2614725 26.2022397,19.6764533 C26.2265031,19.8821511 26.2161687,20.0932266 26.2098782,20.3016133 C26.1950505,20.8290781 26.1694392,21.3556466 26.3505159,21.8987964 C25.7358438,21.7244686 25.1705971,21.5133931 24.9306593,20.9012292 C24.7024039,20.3181946 24.8452882,19.7486044 25.1409418,19.21621" id="Fill-78" fill="#191A1E"></path>
                    <path d="M40.9378346,12.3785275 C40.446726,12.4914597 40.0760356,12.7890269 39.7021999,13.0821127 C39.6415415,13.1296159 39.5669541,13.1596415 39.4959613,13.1919078 C39.2456891,13.3070807 38.9958662,13.2703329 38.7500873,13.1771191 C38.6382062,13.1349936 38.5267744,13.0883867 38.4216331,13.0314725 C38.1187903,12.8687964 38.0495947,12.5999104 38.23157,12.305032 C38.427025,11.9881946 38.7109963,11.8250704 39.0857306,11.814315 C39.558417,11.8013188 39.9879685,11.9630986 40.4134762,12.1374264 C40.5914076,12.2104738 40.7630485,12.2974136 40.9378346,12.3785275" id="Fill-80" fill="#191A1E"></path>
                    <path d="M50.0649062,3.688758 C50.2176756,4.10732394 50.3291074,4.51020487 50.346631,4.95297055 C50.3713436,5.57678617 49.7944146,6.20508323 49.2084991,6.29381562 C48.9609228,6.33145967 48.8998151,6.29605634 48.8032109,6.06839949 C48.5996682,5.58395647 48.7434511,5.19227913 49.1096483,4.85796415 C49.469555,4.52947503 49.8051983,4.18306018 50.0195248,3.73715749 C50.0258153,3.72505762 50.0388456,3.71654289 50.0649062,3.688758" id="Fill-82" fill="#191A1E"></path>
                    <path d="M42.7721904,3.20341869 C42.8885648,3.66948784 43.136141,4.04234315 43.4079806,4.40802817 C43.6371347,4.71635083 43.6357867,5.05783611 43.4767269,5.39976953 C43.4214603,5.51807939 43.3630485,5.63549296 43.2952009,5.74618438 C43.1698401,5.95053777 43.0071857,6.00207426 42.7766837,5.92140845 C42.4248648,5.79861716 42.1754912,5.45175416 42.1566197,5.0784507 C42.1341536,4.63523688 42.2900683,4.23773367 42.4608105,3.84426376 C42.5551681,3.62646607 42.6679478,3.4171831 42.7721904,3.20341869" id="Fill-84" fill="#191A1E"></path>
                    <path d="M31.1598306,4.31808579 C30.5572902,3.74983995 30.0589925,3.1412612 29.9201521,2.3090589 C29.8756692,3.17128681 30.2867986,3.84081306 30.850248,4.44580666 C30.6633302,4.48972471 30.462034,4.42474392 30.2054714,4.23741997 C29.869828,3.99228553 29.6833595,3.66245198 29.6492111,3.24791933 C29.602931,2.67922535 29.7920954,2.16027529 29.9704761,1.66104353 C30.1614378,1.92634443 30.3452104,2.20016005 30.5496518,2.45829065 C30.668722,2.60886684 30.8192448,2.73479513 30.9576359,2.86923816 C31.4065083,3.30393726 31.4783997,3.73236236 31.1598306,4.31808579" id="Fill-86" fill="#191A1E"></path>
                    <path d="M48.5192845,12.2485659 C48.655429,11.8353777 49.0710516,11.6543278 49.5253158,11.8075928 C49.9252121,11.9420359 50.3170207,12.1015749 50.7205115,12.2239181 C50.9622466,12.2969654 51.2188093,12.320717 51.4812132,12.3691165 C51.1505124,12.8356338 50.791055,13.2568886 50.176383,13.3272471 C49.8083885,13.3693726 49.4763398,13.2412036 49.1649598,13.0588092 C49.0526294,12.9929321 48.9465895,12.9158515 48.8450428,12.8351857 C48.8122423,12.8087452 48.8028065,12.7536236 48.7830364,12.7114981 C48.8333604,12.7043278 48.888627,12.680128 48.9340085,12.6926761 C49.3846781,12.8181562 49.8389424,12.9194366 50.3107301,12.8813444 C50.5677422,12.8602817 50.8211596,12.8109859 51.0750264,12.6442766 C50.137292,12.8795519 49.3321075,12.5479257 48.5192845,12.2485659" id="Fill-88" fill="#191A1E"></path>
                    <path d="M32.1479789,9.41262484 C31.6330563,9.38573624 31.2749469,9.09578745 31.1680083,8.6203073 C31.1077992,8.35097311 31.0812892,8.07177977 31.0035566,7.8078233 C30.9190841,7.52101152 30.7923754,7.24629962 30.6840888,6.96665813 C30.6746531,6.94290653 30.6625214,6.92005122 30.6378087,6.86627401 C30.7856355,6.91019206 30.9083004,6.94828425 31.0318638,6.98234315 C31.4713004,7.10379001 31.874342,7.28932138 32.2072894,7.60929577 C32.568544,7.95526248 32.7114283,8.69021767 32.4997978,9.13970551 C32.4827236,9.17555698 32.4580109,9.20737516 32.4247611,9.26070423 C32.2463804,8.41236876 31.9269126,7.67069142 31.1922717,7.17683739 C31.8249166,7.78451985 32.0127331,8.5790781 32.1479789,9.41262484" id="Fill-90" fill="#191A1E"></path>
                    <path d="M48.0438573,4.9150128 C47.5284853,5.17986556 47.1955379,5.59395006 46.857648,6.00758643 C46.4927988,6.45528169 46.0484196,6.54446223 45.4634027,6.28767606 C45.7473741,6.00444942 46.0066327,5.71898207 46.2932999,5.46443662 C46.5777206,5.21213188 46.9084213,5.0243598 47.2764158,4.91142766 C46.4599983,4.98447503 45.853414,5.425 45.3245623,6.03223431 C45.272441,5.82160691 45.3447818,5.64772727 45.4292543,5.47788092 C45.6714387,4.9903009 46.0641459,4.73620359 46.6114197,4.70662612 C47.0939912,4.68108195 47.5563432,4.76667734 48.0438573,4.9150128" id="Fill-92" fill="#191A1E"></path>
                    <path d="M27.1619908,17.6358771 C27.6180524,17.713854 27.9159526,17.9531626 28.1194954,18.3166069 C28.2915856,18.6222407 28.3001227,18.9520743 28.2421602,19.2899744 C28.1702687,19.710781 28.0112088,20.0988732 27.8301322,20.4708323 C27.6872479,20.2176312 27.5609885,19.9559155 27.399682,19.7179513 C27.2567977,19.5082202 27.0748224,19.3244814 26.9103707,19.1286428 C26.5810179,18.7365173 26.5500147,18.2865813 26.88431,17.7783867 C27.4185535,18.3569398 27.8400173,18.9883739 27.9460572,19.7883099 C28.029631,18.9610371 27.6854506,18.2870294 27.1619908,17.6358771" id="Fill-94" fill="#191A1E"></path>
                    <path d="M23.4605686,9.26079385 C23.7198272,9.02148528 23.9957107,8.8225096 24.3003508,8.66072983 C24.5928592,8.50477593 24.8939048,8.38915493 25.2304467,8.44965429 C25.6114715,8.51822023 25.9071252,8.7171959 26.0913471,9.06316261 C26.1843567,9.23704225 26.1699784,9.35669654 26.0181077,9.47769526 C25.8765713,9.5906274 25.723802,9.69728553 25.5602489,9.77257362 C25.2452743,9.9168758 24.9568098,9.77795134 24.6773317,9.64171575 C24.3088879,9.4615621 23.9372989,9.2984379 23.5167338,9.28857875 C23.5032541,9.28857875 23.4897745,9.27558259 23.4605686,9.26079385" id="Fill-96" fill="#191A1E"></path>
                    <path d="M40.1256407,6.1924904 C40.0339791,6.43269526 39.9310844,6.66483355 39.857845,6.9059347 C39.7980852,7.10401408 39.7747205,7.3137452 39.7324842,7.51809859 C39.6960892,7.69153009 39.6749711,7.87033931 39.6143126,8.03525608 C39.4633405,8.44485915 39.0984913,8.56048015 38.6927538,8.66893086 C38.7857634,7.8672023 38.9789717,7.13941741 39.5460157,6.55727913 C39.3393277,6.61105634 39.0257012,6.92117157 38.7862127,7.39620359 C38.6141225,7.73679257 38.5053867,8.10919974 38.3692422,8.46502561 C38.3512693,8.43096671 38.3090331,8.37001921 38.2856684,8.30324584 C38.056065,7.63371959 38.3184688,7.00587068 38.9825663,6.62450064 C39.342473,6.41745839 39.7297883,6.28660051 40.1256407,6.1924904" id="Fill-98" fill="#191A1E"></path>
                    <path d="M46.0655388,7.14829065 C45.5933017,7.38580666 45.2684421,7.73401408 44.9507716,8.0965621 C44.575588,8.52543534 44.188722,8.52409091 43.687279,8.30853393 C43.6288672,8.2834379 43.5736006,8.18529449 43.5664115,8.11628041 C43.5160874,7.6381114 43.8849806,7.11602433 44.3468833,6.97665173 C44.7876678,6.84355314 45.2172194,6.91928937 45.6463216,7.02460307 C45.7752769,7.05597311 45.9015363,7.09944302 46.0655388,7.14829065" id="Fill-100" fill="#191A1E"></path>
                    <path d="M31.5266569,12.4726376 C31.6389873,11.69242 31.8236585,10.9592574 32.4014862,10.3762228 C31.9252052,10.5630986 31.4826233,11.3168758 31.237743,12.3655314 C31.1869697,12.2669398 31.1330511,12.1965813 31.1123823,12.1172599 C30.9703966,11.5803841 31.0687981,11.0291677 31.5509202,10.6509347 C31.9683401,10.3224456 32.4603474,10.1700768 32.9936922,10.0199488 C32.9244967,10.157977 32.8633889,10.2722535 32.809021,10.3896671 C32.6261471,10.7849296 32.6000864,11.2164917 32.5281949,11.6372983 C32.4464184,12.1163636 32.0429275,12.4663636 31.5266569,12.4726376" id="Fill-102" fill="#191A1E"></path>
                    <path d="M45.473827,11.951402 C44.9090296,11.8828361 44.3869178,11.788726 43.9470319,11.4530666 C43.5444396,11.1456402 43.4064979,10.4841805 43.6639592,10.0871255 C43.7043982,10.0252817 43.8032489,9.9603009 43.8719952,9.9634379 C44.4273568,9.99211908 44.7679426,10.141799 44.9323944,10.7584443 C45.0514646,11.2034507 45.1557072,11.544936 45.473827,11.951402" id="Fill-104" fill="#191A1E"></path>
                    <path d="M50.4312832,7.02442382 C51.0580869,7.52634443 51.6260296,8.05246479 51.8798963,8.83178617 C51.7981198,8.01078745 51.3119537,7.42640845 50.7157038,6.90611396 C50.721545,6.89087708 50.7273862,6.87519206 50.7336767,6.85995519 C50.9008243,6.91328425 51.0801037,6.94420615 51.2337717,7.02397567 C51.915842,7.37666453 52.1679115,7.89068502 52.058277,8.68434699 C52.0286218,8.90080026 51.9747032,9.11366837 51.9288724,9.32743278 C51.9207846,9.36642125 51.8983185,9.40182458 51.8893321,9.42333547 C51.6705124,9.18178617 51.4642737,8.93441101 51.2360183,8.70944302 C51.054043,8.53018566 50.8379193,8.38722791 50.6492042,8.21424456 C50.2834563,7.87903329 50.1994332,7.43940461 50.4312832,7.02442382" id="Fill-106" fill="#191A1E"></path>
                    <path d="M29.5340949,6.47652369 C29.620814,6.99099232 29.6774285,7.4749872 29.5673447,7.96615237 C29.4428826,8.52095391 28.8448354,9.01122279 28.2804873,9.00181178 C28.240947,9.00091549 28.201856,8.98791933 28.1497347,8.97895647 C28.8061937,8.51243918 29.3188698,7.95943022 29.4711898,7.14918694 C29.1656511,7.89848271 28.5716478,8.37082586 27.9142902,8.79925096 C27.7273723,8.21487196 27.8846349,7.82319462 28.3636119,7.51307939 C28.7590149,7.25629321 29.1494755,6.99547375 29.4361427,6.61141485 C29.4640007,6.57466709 29.4900613,6.53702305 29.5340949,6.47652369" id="Fill-108" fill="#191A1E"></path>
                    <path d="M43.4227184,14.371959 C42.9841804,14.096799 42.5272203,14.0654289 42.0761013,14.006274 C41.4789527,13.9274008 41.2960788,13.6791293 41.1725153,13.1279129 C41.1576877,13.0611396 41.2053158,12.9513444 41.2605824,12.9033931 C41.6600294,12.5556338 42.3883798,12.640781 42.781087,13.0665173 C43.0421429,13.3497439 43.191767,13.6916773 43.3180264,14.0470551 C43.3503776,14.1389245 43.3782355,14.2330346 43.4227184,14.371959" id="Fill-110" fill="#191A1E"></path>
                    <path d="M22.3006446,11.8091613 C22.5751802,11.0231178 23.2213048,10.6265109 23.9024765,10.2567926 C24.1123097,10.6533995 23.9788611,11.1297759 23.5960391,11.3713252 C23.3844085,11.504872 23.1485146,11.6025672 22.9440733,11.7446287 C22.7360373,11.8889309 22.5527141,12.0681882 22.3590564,12.2322087 C22.3325464,12.255064 22.3078338,12.2797119 22.2588577,12.3254225 C22.1622535,11.7159475 22.0669973,11.1360499 22.3684922,10.5776633 C22.5778761,10.1900192 23.2720781,9.91127401 23.6674812,10.0627465 C22.9683366,10.4598015 22.4304986,10.9778553 22.3006446,11.8091613" id="Fill-112" fill="#191A1E"></path>
                    <path d="M30.4845451,8.79033291 C30.371316,9.26760563 30.4175961,9.71798976 30.4926329,10.1670294 C30.5811492,10.699872 30.3295291,11.0014725 29.8622345,11.2206146 C29.7548466,11.2708067 29.6708235,11.2264405 29.5908442,11.159219 C29.1887013,10.8204225 29.1127659,10.1163892 29.4331323,9.67765685 C29.7054212,9.30480154 30.0603854,9.02919334 30.4845451,8.79033291" id="Fill-114" fill="#191A1E"></path>
                    <path d="M41.1754359,4.05766965 C40.7283608,3.74979513 40.6133345,3.29806658 40.837546,2.76880922 C41.0253625,2.32514725 41.2055405,1.88103713 41.2145269,1.36567222 C41.3376411,1.50101152 41.4665964,1.63142125 41.5825214,1.77258643 C41.840432,2.08673496 42.04712,2.4237388 42.1019373,2.84096031 C42.1603491,3.28596671 41.8606515,3.90709347 41.4571606,4.07873239 C41.7267537,3.33212548 41.8440266,2.59582586 41.4832213,1.86087068 C41.6732844,2.62988476 41.470191,3.34377721 41.1754359,4.05766965" id="Fill-116" fill="#191A1E"></path>
                    <path d="M41.1449719,7.5924904 C40.677228,7.3271895 40.5302998,6.90727913 40.6624004,6.39460307 C40.7608019,6.01368118 40.8079806,5.61841869 40.869987,5.22808579 C40.8834667,5.1424904 40.8627979,5.05151729 40.8565074,4.93992958 C41.2011371,5.18640845 41.4891523,5.47008323 41.7147118,5.81201665 C41.8607414,6.03339949 41.9564469,6.27763764 41.94117,6.5487644 C41.9218491,6.89069782 41.8189545,7.20350192 41.5736248,7.45580666 C41.5381284,7.49165813 41.4963415,7.52168374 41.4235514,7.58307939 C41.5924963,6.84946863 41.6140638,6.16694622 41.2626942,5.51893086 C41.4460175,6.219379 41.3417748,6.90190141 41.1449719,7.5924904" id="Fill-118" fill="#191A1E"></path>
                    <path d="M29.7550264,6.04325864 C30.0331565,5.67981434 30.322969,5.39300256 30.6936594,5.19357875 C31.1524168,4.94754802 31.778322,5.10529449 32.0380299,5.53237516 C32.0937458,5.62424456 32.0937458,5.70132522 32.033986,5.79229834 C31.7563052,6.21713828 31.4471719,6.33231114 30.9601071,6.18800896 C30.5772851,6.07462868 30.1922164,5.97782971 29.7550264,6.04325864" id="Fill-120" fill="#191A1E"></path>
                    <path d="M45.16712,8.98989117 C45.7781975,8.78553777 46.390623,8.6649872 47.0286598,8.84110755 C46.429714,8.52023688 45.8065048,8.54712548 45.1725119,8.73041613 C45.2816971,8.4843854 45.6245295,8.26882843 45.928271,8.2334251 C46.2908736,8.19085147 46.6040508,8.31185019 46.8772384,8.52740717 C47.1171762,8.71607554 47.3315026,8.93745839 47.5489743,9.13643406 C47.2268107,9.19200384 46.9217212,9.23995519 46.6188784,9.3000064 C46.4759941,9.32868758 46.3385017,9.38291293 46.1974147,9.42234955 C45.7642686,9.54245198 45.4030139,9.39322023 45.16712,8.98989117" id="Fill-122" fill="#191A1E"></path>
                    <path d="M26.3504709,15.8551344 C26.4066361,15.9098079 26.4628013,15.9649296 26.5189666,16.0196031 C26.4223624,16.1966197 26.3185691,16.3696031 26.2300527,16.550653 C26.0341484,16.9508451 25.9128316,17.3747887 25.8557677,17.81621 C25.8503759,17.8619206 25.833751,17.9058387 25.8171261,17.9703713 C25.7708459,17.3828553 25.9851724,16.4341357 26.2691437,15.9452113 C26.2889139,15.9111524 26.3230623,15.8847119 26.3504709,15.8551344" id="Fill-124" fill="#191A1E"></path>
                    <path d="M33.4463838,5.08481434 C33.4243671,5.10856594 33.4023503,5.13231754 33.3807829,5.15606914 L32.6933207,5.05882202 C32.69377,5.05299616 32.69377,5.04672215 32.69377,5.04 C32.9328091,5.04 33.1718483,5.03955186 33.4104381,5.04224072 C33.4225698,5.04224072 33.4342521,5.07002561 33.4463838,5.08481434" id="Fill-126" fill="#191A1E"></path>
                    <path d="M32.676516,6.03317542 C32.9438624,5.94892446 33.1896414,5.90635083 33.4453055,5.93637644 C33.7616279,5.97357234 34.0195386,6.27203585 33.9988698,6.57677337 C33.9948259,6.64175416 33.9678666,6.68029449 33.9058602,6.70539052 C33.6173957,6.82056338 33.4219407,6.77037132 33.2287324,6.52747759 C33.077311,6.3365685 32.9187004,6.15327785 32.676516,6.03317542" id="Fill-128" fill="#191A1E"></path>
                    <path d="M34.4487756,7.64196543 C34.4487756,7.64196543 35.2476696,6.40867478 35.6880048,7.34932778 C36.1629379,8.36302817 34.7134261,10.5849232 34.7134261,10.5849232 C34.7134261,10.5849232 33.0967666,9.49190141 33.2072997,8.35003201 C33.3187315,7.20726633 34.2331012,7.55233675 34.4487756,7.64196543" id="Fill-130" fill="#191A1E"></path>
                </g>
            </g>
        </g>
    </g>
</svg>